SplineFontDB: 3.2
FontName: NewFamilyNameStyleName
FullName: NewFamilyName StyleName
FamilyName: NewFamilyName
Weight: Book
Copyright: (c) 2022, Copyright by Optimo SARL. All rights reserved.
Version: 1.005
ItalicAngle: 0
UnderlinePosition: -42
UnderlineWidth: 50
Ascent: 800
Descent: 200
InvalidEm: 0
sfntRevision: 0x00010147
LayerCount: 2
Layer: 0 1 "Back" 1
Layer: 1 1 "Fore" 0
XUID: [1021 950 161365953 2177076]
StyleMap: 0x0040
FSType: 8
OS2Version: 4
OS2_WeightWidthSlopeOnly: 0
OS2_UseTypoMetrics: 1
CreationTime: 1644840000
ModificationTime: 1737339262
PfmFamily: 81
TTFWeight: 400
TTFWidth: 5
LineGap: 0
VLineGap: 0
Panose: 0 0 0 0 0 0 0 0 0 0
OS2TypoAscent: 955
OS2TypoAOffset: 0
OS2TypoDescent: -245
OS2TypoDOffset: 0
OS2TypoLinegap: 0
OS2WinAscent: 1104
OS2WinAOffset: 0
OS2WinDescent: 230
OS2WinDOffset: 0
HheadAscent: 955
HheadAOffset: 0
HheadDescent: -245
HheadDOffset: 0
OS2SubXSize: 650
OS2SubYSize: 600
OS2SubXOff: 0
OS2SubYOff: 75
OS2SupXSize: 650
OS2SupYSize: 600
OS2SupXOff: 0
OS2SupYOff: 350
OS2StrikeYSize: 50
OS2StrikeYPos: 341
OS2CapHeight: 710
OS2XHeight: 530
OS2Vendor: 'OPTM'
OS2CodePages: 20000093.00000000
OS2UnicodeRanges: a00000ff.4000207b.00000000.00000000
Lookup: 1 0 0 "'aalt' Access All Alternates in Latin lookup 0" { "'aalt' Access All Alternates in Latin lookup 0 subtable"  } ['aalt' ('DFLT' <'dflt' > 'latn' <'AZE ' 'CAT ' 'CRT ' 'DEU ' 'KAZ ' 'MOL ' 'NLD ' 'ROM ' 'TAT ' 'TRK ' 'dflt' > ) ]
Lookup: 3 0 0 "'aalt' Access All Alternates in Latin lookup 1" { "'aalt' Access All Alternates in Latin lookup 1 subtable"  } ['aalt' ('DFLT' <'dflt' > 'latn' <'AZE ' 'CAT ' 'CRT ' 'DEU ' 'KAZ ' 'MOL ' 'NLD ' 'ROM ' 'TAT ' 'TRK ' 'dflt' > ) ]

StartChar: .notdef
Encoding: 65536 -1 0
Width: 577
GlyphClass: 1
Flags: W
LayerCount: 2
Fore
SplineSet
219 710 m 1,0,-1
 263 710 l 1,1,-1
 223 670 l 1,2,3
 175 656 175 656 139 620.5 c 128,-1,4
 103 585 103 585 90 536 c 1,5,-1
 40 487 l 1,6,-1
 40 531 l 1,7,-1
 219 710 l 1,0,-1
40 84 m 1,8,-1
 228 272 l 1,9,-1
 228 238 l 1,10,-1
 238 238 l 1,11,-1
 40 40 l 1,12,-1
 40 84 l 1,8,-1
40 174 m 1,13,-1
 357 490 l 1,14,-1
 357 477 l 2,15,16
 357 458 357 458 343 441.5 c 128,-1,17
 329 425 329 425 302 403 c 2,18,-1
 273 378 l 2,19,20
 260 366 260 366 253.5 356 c 128,-1,21
 247 346 247 346 240 329 c 1,22,-1
 40 129 l 1,23,-1
 40 174 l 1,13,-1
40 263 m 1,24,-1
 322 545 l 1,25,26
 336 536 336 536 346 524 c 1,27,-1
 40 219 l 1,28,-1
 40 263 l 1,24,-1
40 352 m 1,29,-1
 175 488 l 1,30,-1
 211 486 l 1,31,32
 211 513 211 513 229.5 533.5 c 128,-1,33
 248 554 248 554 279 554 c 2,34,-1
 286 554 l 1,35,-1
 40 308 l 1,36,-1
 40 352 l 1,29,-1
40 442 m 1,37,-1
 92 493 l 1,38,-1
 133 490 l 1,39,-1
 40 398 l 1,40,-1
 40 442 l 1,37,-1
40 621 m 1,41,-1
 130 710 l 1,42,-1
 174 710 l 1,43,-1
 40 576 l 1,44,-1
 40 621 l 1,41,-1
40 710 m 1,45,-1
 85 710 l 1,46,-1
 40 666 l 1,47,-1
 40 710 l 1,45,-1
283 238 m 1,48,-1
 327 238 l 1,49,-1
 243 153 l 1,50,-1
 222 153 l 1,51,-1
 222 133 l 1,52,-1
 90 0 l 1,53,-1
 44 0 l 1,54,-1
 283 238 l 1,48,-1
222 87 m 1,55,-1
 222 43 l 1,56,-1
 179 0 l 1,57,-1
 134 0 l 1,58,-1
 222 87 l 1,55,-1
254 30 m 1,59,-1
 298 30 l 1,60,-1
 268 0 l 1,61,-1
 223 0 l 1,62,-1
 254 30 l 1,59,-1
309 710 m 1,63,-1
 353 710 l 1,64,-1
 319 675 l 1,65,66
 303 677 303 677 293 677 c 256,67,68
 283 677 283 677 275 676 c 1,69,-1
 309 710 l 1,63,-1
537 402 m 1,70,-1
 537 358 l 1,71,-1
 332 153 l 1,72,-1
 287 153 l 1,73,-1
 537 402 l 1,70,-1
342 30 m 1,74,-1
 344 30 l 1,75,-1
 344 32 l 1,76,-1
 537 223 l 1,77,-1
 537 179 l 1,78,-1
 358 0 l 1,79,-1
 313 0 l 1,80,-1
 342 30 l 1,74,-1
339 256 m 2,81,82
 339 277 339 277 348.5 289 c 128,-1,83
 358 301 358 301 381 317 c 0,84,85
 385 320 385 320 390.5 324 c 128,-1,86
 396 328 396 328 403 334 c 0,87,88
 407 337 407 337 426.5 350.5 c 128,-1,89
 446 364 446 364 462 387.5 c 128,-1,90
 478 411 478 411 484 440 c 1,91,-1
 537 491 l 1,92,-1
 537 447 l 1,93,-1
 339 250 l 1,94,-1
 339 256 l 2,81,82
344 121 m 1,95,-1
 537 312 l 1,96,-1
 537 268 l 1,97,-1
 344 77 l 1,98,-1
 344 121 l 1,95,-1
398 710 m 1,99,-1
 442 710 l 1,100,-1
 386 653 l 1,101,102
 366 664 366 664 355 667 c 1,103,-1
 398 710 l 1,99,-1
537 134 m 1,104,-1
 537 89 l 1,105,-1
 447 0 l 1,106,-1
 402 0 l 1,107,-1
 537 134 l 1,104,-1
487 710 m 1,108,-1
 532 710 l 1,109,-1
 437 615 l 1,110,111
 427 627 427 627 413 636 c 1,112,-1
 487 710 l 1,108,-1
537 670 m 1,113,-1
 537 626 l 1,114,-1
 472 561 l 1,115,116
 465 579 465 579 455 590 c 1,117,-1
 537 670 l 1,113,-1
537 581 m 1,118,-1
 537 536 l 1,119,-1
 488 488 l 1,120,121
 488 506 488 506 483 528 c 1,122,-1
 537 581 l 1,118,-1
537 44 m 1,123,-1
 537 0 l 1,124,-1
 491 0 l 1,125,-1
 537 44 l 1,123,-1
EndSplineSet
Validated: 1
EndChar

StartChar: A
Encoding: 65 65 2
Width: 718
GlyphClass: 2
Flags: W
AnchorPoint: "Anchor-4" 362 732 basechar 0
AnchorPoint: "Anchor-3" 661 0 basechar 0
LayerCount: 2
Fore
SplineSet
279 710 m 1,0,-1
 445 710 l 1,1,-1
 696 0 l 1,2,-1
 582 0 l 1,3,-1
 506 225 l 1,4,-1
 217 225 l 1,5,-1
 140 0 l 1,6,-1
 29 0 l 1,7,-1
 279 710 l 1,0,-1
474 319 m 1,8,-1
 419 481 l 1,9,-1
 376 612 l 1,10,-1
 347 612 l 1,11,-1
 304 481 l 1,12,-1
 249 319 l 1,13,-1
 474 319 l 1,8,-1
EndSplineSet
Validated: 1048577
Substitution2: "Single Substitution lookup 53 subtable" ordfeminine
Substitution2: "'ordn' Ordinals in Latin lookup 20 subtable" a.superior
AlternateSubs2: "'aalt' Access All Alternates in Latin lookup 1 subtable" ordfeminine a.superior
Position2: "'cpsp' Capital Spacing in Latin lookup 0 subtable" dx=5 dy=0 dh=10 dv=0
EndChar

StartChar: Aogonek
Encoding: 260 260 9
Width: 718
GlyphClass: 2
Flags: W
AnchorPoint: "Anchor-3" 661 0 basechar 0
LayerCount: 2
Fore
SplineSet
279 710 m 1,0,-1
 445 710 l 1,1,-1
 696 0 l 1,2,3
 618 -27 618 -27 618 -60 c 0,4,5
 618 -73 618 -73 630.5 -81 c 128,-1,6
 643 -89 643 -89 665 -89 c 2,7,-1
 696 -89 l 1,8,-1
 696 -180 l 1,9,-1
 647 -180 l 2,10,11
 587 -180 587 -180 556 -155.5 c 128,-1,12
 525 -131 525 -131 525 -94 c 0,13,14
 525 -34 525 -34 581 2 c 1,15,-1
 506 225 l 1,16,-1
 217 225 l 1,17,-1
 140 0 l 1,18,-1
 29 0 l 1,19,-1
 279 710 l 1,0,-1
474 319 m 1,20,-1
 419 481 l 1,21,-1
 376 612 l 1,22,-1
 347 612 l 1,23,-1
 304 481 l 1,24,-1
 249 319 l 1,25,-1
 474 319 l 1,20,-1
EndSplineSet
Validated: 1048577
Position2: "'cpsp' Capital Spacing in Latin lookup 0 subtable" dx=5 dy=0 dh=10 dv=0
EndChar

StartChar: AE
Encoding: 198 198 13
Width: 965
GlyphClass: 2
Flags: W
AnchorPoint: "Anchor-4" 606 732 basechar 0
AnchorPoint: "Anchor-3" 482 0 basechar 0
LayerCount: 2
Fore
SplineSet
281 710 m 1,0,-1
 924 710 l 1,1,-1
 924 614 l 1,2,-1
 599 614 l 1,3,-1
 599 403 l 1,4,-1
 888 403 l 1,5,-1
 888 308 l 1,6,-1
 599 308 l 1,7,-1
 599 96 l 1,8,-1
 929 96 l 1,9,-1
 929 0 l 1,10,-1
 488 0 l 1,11,-1
 488 225 l 1,12,-1
 219 225 l 1,13,-1
 143 0 l 1,14,-1
 31 0 l 1,15,-1
 281 710 l 1,0,-1
488 319 m 1,16,-1
 488 614 l 1,17,-1
 351 614 l 1,18,-1
 251 319 l 1,19,-1
 488 319 l 1,16,-1
EndSplineSet
Validated: 1048577
Position2: "'cpsp' Capital Spacing in Latin lookup 0 subtable" dx=5 dy=0 dh=10 dv=0
EndChar

StartChar: B
Encoding: 66 66 15
Width: 619
GlyphClass: 2
Flags: W
AnchorPoint: "Anchor-5" 309 355 basechar 0
AnchorPoint: "Anchor-4" 309 710 basechar 0
AnchorPoint: "Anchor-3" 309 0 basechar 0
LayerCount: 2
Fore
SplineSet
87 691 m 128,-1,1
 106 710 106 710 135 710 c 2,2,-1
 344 710 l 2,3,4
 406 710 406 710 454.5 686.5 c 128,-1,5
 503 663 503 663 530.5 620.5 c 128,-1,6
 558 578 558 578 558 521 c 0,7,8
 558 471 558 471 534 427.5 c 128,-1,9
 510 384 510 384 463 365 c 1,10,11
 519 348 519 348 550.5 302 c 128,-1,12
 582 256 582 256 582 202 c 0,13,14
 582 145 582 145 554 98.5 c 128,-1,15
 526 52 526 52 476 26 c 128,-1,16
 426 0 426 0 363 0 c 2,17,-1
 68 0 l 1,18,-1
 68 643 l 2,19,0
 68 672 68 672 87 691 c 128,-1,1
351 95 m 2,20,21
 408 95 408 95 438.5 126 c 128,-1,22
 469 157 469 157 469 204 c 0,23,24
 469 249 469 249 439 280.5 c 128,-1,25
 409 312 409 312 351 312 c 2,26,-1
 178 312 l 1,27,-1
 178 95 l 1,28,-1
 351 95 l 2,20,21
331 403 m 2,29,30
 386 403 386 403 416.5 437.5 c 128,-1,31
 447 472 447 472 447 518 c 0,32,33
 447 563 447 563 417.5 590 c 128,-1,34
 388 617 388 617 331 617 c 2,35,-1
 178 617 l 1,36,-1
 178 403 l 1,37,-1
 331 403 l 2,29,30
EndSplineSet
Validated: 1048577
Substitution2: "'ss07' Style Set 7 in Latin lookup 36 subtable" B.ss01
Substitution2: "'ss01' Style Set 1 in Latin lookup 27 subtable" B.ss01
Substitution2: "'ordn' Ordinals in Latin lookup 20 subtable" b.superior
AlternateSubs2: "'aalt' Access All Alternates in Latin lookup 1 subtable" b.superior B.ss01
Position2: "'cpsp' Capital Spacing in Latin lookup 0 subtable" dx=5 dy=0 dh=10 dv=0
EndChar

StartChar: C
Encoding: 67 67 16
Width: 760
GlyphClass: 2
Flags: W
AnchorPoint: "Anchor-4" 394 732 basechar 0
AnchorPoint: "Anchor-3" 394 0 basechar 0
LayerCount: 2
Fore
SplineSet
217 33 m 128,-1,1
 136 76 136 76 88 159 c 128,-1,2
 40 242 40 242 40 356 c 0,3,4
 40 469 40 469 88 551.5 c 128,-1,5
 136 634 136 634 217 677 c 128,-1,6
 298 720 298 720 394 720 c 0,7,8
 484 720 484 720 554.5 688 c 128,-1,9
 625 656 625 656 668.5 600.5 c 128,-1,10
 712 545 712 545 726 476 c 1,11,-1
 607 476 l 1,12,13
 592 537 592 537 538 580.5 c 128,-1,14
 484 624 484 624 394 624 c 0,15,16
 328 624 328 624 273 594 c 128,-1,17
 218 564 218 564 185.5 503.5 c 128,-1,18
 153 443 153 443 153 356 c 0,19,20
 153 268 153 268 185.5 207.5 c 128,-1,21
 218 147 218 147 273 116.5 c 128,-1,22
 328 86 328 86 394 86 c 0,23,24
 484 86 484 86 538 129.5 c 128,-1,25
 592 173 592 173 607 234 c 1,26,-1
 726 234 l 1,27,28
 712 165 712 165 668.5 109.5 c 128,-1,29
 625 54 625 54 554.5 22 c 128,-1,30
 484 -10 484 -10 394 -10 c 0,31,0
 298 -10 298 -10 217 33 c 128,-1,1
EndSplineSet
Validated: 1048577
Substitution2: "'ordn' Ordinals in Latin lookup 20 subtable" C.aalt
Substitution2: "'aalt' Access All Alternates in Latin lookup 0 subtable" C.aalt
Position2: "'cpsp' Capital Spacing in Latin lookup 0 subtable" dx=5 dy=0 dh=10 dv=0
EndChar

StartChar: Ccedilla
Encoding: 199 199 19
Width: 760
GlyphClass: 2
Flags: W
AnchorPoint: "Anchor-3" 422 -230 basechar 0
LayerCount: 2
Fore
SplineSet
320 -179 m 1,0,-1
 405 -179 l 2,1,2
 425 -179 425 -179 436 -170.5 c 128,-1,3
 447 -162 447 -162 447 -146 c 2,4,-1
 447 -144 l 2,5,6
 447 -130 447 -130 436 -121.5 c 128,-1,7
 425 -113 425 -113 405 -113 c 2,8,-1
 333 -113 l 1,9,-1
 326 -106 l 1,10,-1
 353 -8 l 1,11,12
 266 1 266 1 194.5 46 c 128,-1,13
 123 91 123 91 81.5 170.5 c 128,-1,14
 40 250 40 250 40 356 c 0,15,16
 40 469 40 469 88 551.5 c 128,-1,17
 136 634 136 634 217 677 c 128,-1,18
 298 720 298 720 394 720 c 0,19,20
 484 720 484 720 554.5 688 c 128,-1,21
 625 656 625 656 668.5 600.5 c 128,-1,22
 712 545 712 545 726 476 c 1,23,-1
 607 476 l 1,24,25
 592 537 592 537 538 580.5 c 128,-1,26
 484 624 484 624 394 624 c 0,27,28
 328 624 328 624 273 594 c 128,-1,29
 218 564 218 564 185.5 503.5 c 128,-1,30
 153 443 153 443 153 356 c 0,31,32
 153 268 153 268 185.5 207.5 c 128,-1,33
 218 147 218 147 273 116.5 c 128,-1,34
 328 86 328 86 394 86 c 0,35,36
 484 86 484 86 538 129.5 c 128,-1,37
 592 173 592 173 607 234 c 1,38,-1
 726 234 l 1,39,40
 713 170 713 170 674 117.5 c 128,-1,41
 635 65 635 65 572.5 31.5 c 128,-1,42
 510 -2 510 -2 430 -9 c 1,43,-1
 405 -54 l 1,44,-1
 405 -62 l 1,45,-1
 430 -62 l 2,46,47
 468 -62 468 -62 496.5 -83.5 c 128,-1,48
 525 -105 525 -105 525 -144 c 2,49,-1
 525 -146 l 2,50,51
 525 -187 525 -187 496.5 -208.5 c 128,-1,52
 468 -230 468 -230 430 -230 c 2,53,-1
 320 -230 l 1,54,-1
 320 -179 l 1,0,-1
EndSplineSet
Validated: 1048577
Position2: "'cpsp' Capital Spacing in Latin lookup 0 subtable" dx=5 dy=0 dh=10 dv=0
EndChar

StartChar: D
Encoding: 68 68 22
Width: 708
GlyphClass: 2
Flags: W
AnchorPoint: "Anchor-5" 166 355 basechar 0
AnchorPoint: "Anchor-4" 308 732 basechar 0
AnchorPoint: "Anchor-3" 350 0 basechar 0
LayerCount: 2
Fore
SplineSet
87 691 m 128,-1,1
 106 710 106 710 135 710 c 2,2,-1
 330 710 l 2,3,4
 431 710 431 710 507.5 665 c 128,-1,5
 584 620 584 620 626 540 c 128,-1,6
 668 460 668 460 668 358 c 0,7,8
 668 251 668 251 625.5 170 c 128,-1,9
 583 89 583 89 506.5 44.5 c 128,-1,10
 430 0 430 0 330 0 c 2,11,-1
 68 0 l 1,12,-1
 68 643 l 2,13,0
 68 672 68 672 87 691 c 128,-1,1
321 95 m 2,14,15
 430 95 430 95 492.5 166.5 c 128,-1,16
 555 238 555 238 555 358 c 0,17,18
 555 476 555 476 492 545.5 c 128,-1,19
 429 615 429 615 321 615 c 2,20,-1
 179 615 l 1,21,-1
 179 95 l 1,22,-1
 321 95 l 2,14,15
EndSplineSet
Validated: 1048577
Substitution2: "'ss07' Style Set 7 in Latin lookup 36 subtable" D.ss01
Substitution2: "'ss01' Style Set 1 in Latin lookup 27 subtable" D.ss01
Substitution2: "'ordn' Ordinals in Latin lookup 20 subtable" d.superior
AlternateSubs2: "'aalt' Access All Alternates in Latin lookup 1 subtable" d.superior D.ss01
Position2: "'cpsp' Capital Spacing in Latin lookup 0 subtable" dx=5 dy=0 dh=10 dv=0
EndChar

StartChar: Eth
Encoding: 208 208 23
Width: 754
GlyphClass: 2
Flags: W
AnchorPoint: "Anchor-5" 212 355 basechar 0
AnchorPoint: "Anchor-4" 353 732 basechar 0
AnchorPoint: "Anchor-3" 396 0 basechar 0
LayerCount: 2
Fore
SplineSet
133 691 m 128,-1,1
 152 710 152 710 181 710 c 2,2,-1
 376 710 l 2,3,4
 477 710 477 710 553.5 665 c 128,-1,5
 630 620 630 620 672 540 c 128,-1,6
 714 460 714 460 714 358 c 0,7,8
 714 251 714 251 671.5 170 c 128,-1,9
 629 89 629 89 552.5 44.5 c 128,-1,10
 476 0 476 0 376 0 c 2,11,-1
 114 0 l 1,12,-1
 114 308 l 1,13,-1
 35 308 l 1,14,-1
 35 402 l 1,15,-1
 114 402 l 1,16,-1
 114 643 l 2,17,0
 114 672 114 672 133 691 c 128,-1,1
367 95 m 2,18,19
 476 95 476 95 538.5 166.5 c 128,-1,20
 601 238 601 238 601 358 c 0,21,22
 601 476 601 476 538 545.5 c 128,-1,23
 475 615 475 615 367 615 c 2,24,-1
 225 615 l 1,25,-1
 225 402 l 1,26,-1
 389 402 l 1,27,-1
 389 308 l 1,28,-1
 225 308 l 1,29,-1
 225 95 l 1,30,-1
 367 95 l 2,18,19
EndSplineSet
Validated: 1048577
Substitution2: "'ss07' Style Set 7 in Latin lookup 36 subtable" Eth.aalt
Substitution2: "'ss01' Style Set 1 in Latin lookup 27 subtable" Eth.aalt
Substitution2: "'aalt' Access All Alternates in Latin lookup 0 subtable" Eth.aalt
Position2: "'cpsp' Capital Spacing in Latin lookup 0 subtable" dx=5 dy=0 dh=10 dv=0
EndChar

StartChar: E
Encoding: 69 69 26
Width: 546
GlyphClass: 2
Flags: W
AnchorPoint: "Anchor-4" 289 732 basechar 0
AnchorPoint: "Anchor-3" 475 0 basechar 0
LayerCount: 2
Fore
SplineSet
87 691 m 128,-1,1
 106 710 106 710 135 710 c 2,2,-1
 504 710 l 1,3,-1
 504 614 l 1,4,-1
 179 614 l 1,5,-1
 179 403 l 1,6,-1
 468 403 l 1,7,-1
 468 308 l 1,8,-1
 179 308 l 1,9,-1
 179 96 l 1,10,-1
 509 96 l 1,11,-1
 509 0 l 1,12,-1
 68 0 l 1,13,-1
 68 643 l 2,14,0
 68 672 68 672 87 691 c 128,-1,1
EndSplineSet
Validated: 1048577
Substitution2: "'ss07' Style Set 7 in Latin lookup 36 subtable" E.ss01
Substitution2: "'ss01' Style Set 1 in Latin lookup 27 subtable" E.ss01
Substitution2: "'ordn' Ordinals in Latin lookup 20 subtable" e.superior
AlternateSubs2: "'aalt' Access All Alternates in Latin lookup 1 subtable" e.superior E.ss01
Position2: "'cpsp' Capital Spacing in Latin lookup 0 subtable" dx=5 dy=0 dh=10 dv=0
EndChar

StartChar: Eogonek
Encoding: 280 280 35
Width: 546
GlyphClass: 2
Flags: W
AnchorPoint: "Anchor-3" 475 0 basechar 0
LayerCount: 2
Fore
SplineSet
87 691 m 128,-1,1
 106 710 106 710 135 710 c 2,2,-1
 504 710 l 1,3,-1
 504 614 l 1,4,-1
 179 614 l 1,5,-1
 179 403 l 1,6,-1
 468 403 l 1,7,-1
 468 308 l 1,8,-1
 179 308 l 1,9,-1
 179 96 l 1,10,-1
 509 96 l 1,11,-1
 509 0 l 1,12,-1
 510 0 l 1,13,14
 432 -27 432 -27 432 -60 c 0,15,16
 432 -73 432 -73 444.5 -81 c 128,-1,17
 457 -89 457 -89 479 -89 c 2,18,-1
 510 -89 l 1,19,-1
 510 -180 l 1,20,-1
 461 -180 l 2,21,22
 401 -180 401 -180 370 -155.5 c 128,-1,23
 339 -131 339 -131 339 -94 c 0,24,25
 339 -36 339 -36 393 0 c 1,26,-1
 68 0 l 1,27,-1
 68 643 l 2,28,0
 68 672 68 672 87 691 c 128,-1,1
EndSplineSet
Validated: 1048577
Substitution2: "'ss07' Style Set 7 in Latin lookup 36 subtable" Eogonek.aalt
Substitution2: "'ss01' Style Set 1 in Latin lookup 27 subtable" Eogonek.aalt
Substitution2: "'aalt' Access All Alternates in Latin lookup 0 subtable" Eogonek.aalt
Position2: "'cpsp' Capital Spacing in Latin lookup 0 subtable" dx=5 dy=0 dh=10 dv=0
EndChar

StartChar: F
Encoding: 70 70 37
Width: 554
GlyphClass: 2
Flags: W
AnchorPoint: "Anchor-4" 270 710 basechar 0
AnchorPoint: "Anchor-3" 270 0 basechar 0
LayerCount: 2
Fore
SplineSet
87 691 m 128,-1,1
 106 710 106 710 135 710 c 2,2,-1
 503 710 l 1,3,-1
 503 613 l 1,4,-1
 179 613 l 1,5,-1
 179 401 l 1,6,-1
 468 401 l 1,7,-1
 468 306 l 1,8,-1
 179 306 l 1,9,-1
 179 0 l 1,10,-1
 68 0 l 1,11,-1
 68 643 l 2,12,0
 68 672 68 672 87 691 c 128,-1,1
EndSplineSet
Validated: 1048577
Substitution2: "'ss07' Style Set 7 in Latin lookup 36 subtable" F.ss01
Substitution2: "'ss01' Style Set 1 in Latin lookup 27 subtable" F.ss01
Substitution2: "'ordn' Ordinals in Latin lookup 20 subtable" f.superior
AlternateSubs2: "'aalt' Access All Alternates in Latin lookup 1 subtable" f.superior F.ss01
Position2: "'cpsp' Capital Spacing in Latin lookup 0 subtable" dx=5 dy=0 dh=10 dv=0
EndChar

StartChar: G
Encoding: 71 71 39
Width: 776
GlyphClass: 2
Flags: W
AnchorPoint: "Anchor-4" 394 732 basechar 0
AnchorPoint: "Anchor-3" 395 0 basechar 0
LayerCount: 2
Fore
SplineSet
216.5 33 m 128,-1,1
 136 76 136 76 88.5 159 c 128,-1,2
 41 242 41 242 41 356 c 0,3,4
 41 469 41 469 89 551.5 c 128,-1,5
 137 634 137 634 217.5 677 c 128,-1,6
 298 720 298 720 394 720 c 0,7,8
 485 720 485 720 555.5 688 c 128,-1,9
 626 656 626 656 669.5 600.5 c 128,-1,10
 713 545 713 545 727 476 c 1,11,-1
 608 476 l 1,12,13
 593 537 593 537 539 580.5 c 128,-1,14
 485 624 485 624 395 624 c 0,15,16
 329 624 329 624 274 594 c 128,-1,17
 219 564 219 564 186.5 503.5 c 128,-1,18
 154 443 154 443 154 356 c 0,19,20
 154 268 154 268 186.5 207.5 c 128,-1,21
 219 147 219 147 274 116.5 c 128,-1,22
 329 86 329 86 395 86 c 0,23,24
 503 86 503 86 560 132.5 c 128,-1,25
 617 179 617 179 617 270 c 2,26,-1
 617 283 l 1,27,-1
 369 283 l 1,28,-1
 369 375 l 1,29,-1
 728 375 l 1,30,-1
 728 279 l 2,31,32
 728 195 728 195 687 129.5 c 128,-1,33
 646 64 646 64 570.5 27 c 128,-1,34
 495 -10 495 -10 395 -10 c 0,35,0
 297 -10 297 -10 216.5 33 c 128,-1,1
EndSplineSet
Validated: 1048577
Substitution2: "'ss10' Style Set 10 in Latin lookup 39 subtable" G.ss10
Substitution2: "'ss09' Style Set 9 in Latin lookup 38 subtable" G.ss01
Substitution2: "'ss07' Style Set 7 in Latin lookup 36 subtable" G.ss01
Substitution2: "'ss01' Style Set 1 in Latin lookup 27 subtable" G.ss01
Substitution2: "'ordn' Ordinals in Latin lookup 20 subtable" g.superior
AlternateSubs2: "'aalt' Access All Alternates in Latin lookup 1 subtable" g.superior G.ss01 G.ss10
Position2: "'cpsp' Capital Spacing in Latin lookup 0 subtable" dx=5 dy=0 dh=10 dv=0
EndChar

StartChar: H
Encoding: 72 72 44
Width: 691
GlyphClass: 2
Flags: W
AnchorPoint: "Anchor-5" 346 355 basechar 0
AnchorPoint: "Anchor-4" 346 732 basechar 0
AnchorPoint: "Anchor-3" 346 0 basechar 0
LayerCount: 2
Fore
SplineSet
513 307 m 1,0,-1
 179 307 l 1,1,-1
 179 0 l 1,2,-1
 68 0 l 1,3,-1
 68 710 l 1,4,-1
 179 710 l 1,5,-1
 179 405 l 1,6,-1
 513 405 l 1,7,-1
 513 710 l 1,8,-1
 623 710 l 1,9,-1
 623 0 l 1,10,-1
 513 0 l 1,11,-1
 513 307 l 1,0,-1
EndSplineSet
Validated: 1048577
Substitution2: "'ordn' Ordinals in Latin lookup 20 subtable" H.aalt
Substitution2: "'aalt' Access All Alternates in Latin lookup 0 subtable" H.aalt
Position2: "'cpsp' Capital Spacing in Latin lookup 0 subtable" dx=5 dy=0 dh=10 dv=0
EndChar

StartChar: Hbar
Encoding: 294 294 45
Width: 691
GlyphClass: 2
Flags: W
AnchorPoint: "Anchor-5" 346 355 basechar 0
AnchorPoint: "Anchor-4" 346 732 basechar 0
AnchorPoint: "Anchor-3" 346 0 basechar 0
LayerCount: 2
Fore
SplineSet
513 307 m 1,0,-1
 179 307 l 1,1,-1
 179 0 l 1,2,-1
 68 0 l 1,3,-1
 68 522 l 1,4,-1
 9 522 l 1,5,-1
 9 600 l 1,6,-1
 68 600 l 1,7,-1
 68 710 l 1,8,-1
 179 710 l 1,9,-1
 179 600 l 1,10,-1
 513 600 l 1,11,-1
 513 710 l 1,12,-1
 623 710 l 1,13,-1
 623 600 l 1,14,-1
 683 600 l 1,15,-1
 683 522 l 1,16,-1
 623 522 l 1,17,-1
 623 0 l 1,18,-1
 513 0 l 1,19,-1
 513 307 l 1,0,-1
513 405 m 1,20,-1
 513 522 l 1,21,-1
 179 522 l 1,22,-1
 179 405 l 1,23,-1
 513 405 l 1,20,-1
EndSplineSet
Validated: 1048577
Position2: "'cpsp' Capital Spacing in Latin lookup 0 subtable" dx=5 dy=0 dh=10 dv=0
EndChar

StartChar: I
Encoding: 73 73 47
Width: 246
GlyphClass: 2
Flags: W
AnchorPoint: "Anchor-4" 124 732 basechar 0
AnchorPoint: "Anchor-3" 144 0 basechar 0
LayerCount: 2
Fore
SplineSet
179 710 m 1,0,-1
 179 0 l 1,1,-1
 68 0 l 1,2,-1
 68 710 l 1,3,-1
 179 710 l 1,0,-1
EndSplineSet
Validated: 1048577
Substitution2: "'ordn' Ordinals in Latin lookup 20 subtable" I.aalt
Substitution2: "'aalt' Access All Alternates in Latin lookup 0 subtable" I.aalt
Position2: "'cpsp' Capital Spacing in Latin lookup 0 subtable" dx=5 dy=0 dh=10 dv=0
EndChar

StartChar: Iogonek
Encoding: 302 302 56
Width: 246
GlyphClass: 2
Flags: W
AnchorPoint: "Anchor-3" 144 0 basechar 0
LayerCount: 2
Fore
SplineSet
179 710 m 1,0,-1
 179 0 l 1,1,2
 101 -27 101 -27 101 -60 c 0,3,4
 101 -73 101 -73 113.5 -81 c 128,-1,5
 126 -89 126 -89 148 -89 c 2,6,-1
 179 -89 l 1,7,-1
 179 -180 l 1,8,-1
 130 -180 l 2,9,10
 70 -180 70 -180 39 -155.5 c 128,-1,11
 8 -131 8 -131 8 -94 c 0,12,13
 8 -32 8 -32 68 4 c 1,14,-1
 68 710 l 1,15,-1
 179 710 l 1,0,-1
EndSplineSet
Validated: 1048577
Position2: "'cpsp' Capital Spacing in Latin lookup 0 subtable" dx=5 dy=0 dh=10 dv=0
EndChar

StartChar: J
Encoding: 74 74 58
Width: 343
GlyphClass: 2
Flags: W
AnchorPoint: "Anchor-4" 220 732 basechar 0
AnchorPoint: "Anchor-3" 180 0 basechar 0
LayerCount: 2
Fore
SplineSet
32 97 m 1,0,-1
 164 97 l 1,1,-1
 164 710 l 1,2,-1
 275 710 l 1,3,-1
 275 67 l 2,4,5
 275 38 275 38 256 19 c 128,-1,6
 237 0 237 0 208 0 c 2,7,-1
 32 0 l 1,8,-1
 32 97 l 1,0,-1
EndSplineSet
Validated: 1048577
Substitution2: "Single Substitution lookup 51 subtable" glyph59
Substitution2: "'ordn' Ordinals in Latin lookup 20 subtable" j.superior
AlternateSubs2: "'aalt' Access All Alternates in Latin lookup 1 subtable" glyph59 j.superior
Position2: "'cpsp' Capital Spacing in Latin lookup 0 subtable" dx=5 dy=0 dh=10 dv=0
EndChar

StartChar: K
Encoding: 75 75 61
Width: 627
GlyphClass: 2
Flags: W
AnchorPoint: "Anchor-4" 301 710 basechar 0
AnchorPoint: "Anchor-3" 324 0 basechar 0
LayerCount: 2
Fore
SplineSet
597 7 m 1,0,-1
 597 0 l 1,1,-1
 474 0 l 1,2,-1
 275 319 l 1,3,-1
 179 319 l 1,4,-1
 179 0 l 1,5,-1
 68 0 l 1,6,-1
 68 710 l 1,7,-1
 179 710 l 1,8,-1
 179 416 l 1,9,-1
 275 416 l 1,10,-1
 472 710 l 1,11,-1
 597 710 l 1,12,-1
 597 702 l 1,13,-1
 372 383 l 1,14,-1
 372 361 l 1,15,-1
 597 7 l 1,0,-1
EndSplineSet
Validated: 1048577
Substitution2: "'ordn' Ordinals in Latin lookup 20 subtable" K.aalt
Substitution2: "'aalt' Access All Alternates in Latin lookup 0 subtable" K.aalt
Position2: "'cpsp' Capital Spacing in Latin lookup 0 subtable" dx=5 dy=0 dh=10 dv=0
EndChar

StartChar: L
Encoding: 76 76 63
Width: 536
GlyphClass: 2
Flags: W
AnchorPoint: "Anchor-6" 310 710 basechar 0
AnchorPoint: "Anchor-5" 384 371 basechar 0
AnchorPoint: "Anchor-4" 150 732 basechar 0
AnchorPoint: "Anchor-3" 278 0 basechar 0
LayerCount: 2
Fore
SplineSet
68 710 m 1,0,-1
 179 710 l 1,1,-1
 179 97 l 1,2,-1
 506 97 l 1,3,-1
 506 0 l 1,4,-1
 68 0 l 1,5,-1
 68 710 l 1,0,-1
EndSplineSet
Validated: 1
Substitution2: "'ordn' Ordinals in Latin lookup 20 subtable" L.aalt
Substitution2: "'aalt' Access All Alternates in Latin lookup 0 subtable" L.aalt
Position2: "'cpsp' Capital Spacing in Latin lookup 0 subtable" dx=5 dy=0 dh=10 dv=0
EndChar

StartChar: Lslash
Encoding: 321 321 68
Width: 569
GlyphClass: 2
Flags: W
AnchorPoint: "Anchor-6" 344 710 basechar 0
AnchorPoint: "Anchor-5" 418 371 basechar 0
AnchorPoint: "Anchor-4" 184 732 basechar 0
AnchorPoint: "Anchor-3" 311 0 basechar 0
LayerCount: 2
Fore
SplineSet
102 334 m 1,0,-1
 34 313 l 1,1,-1
 34 404 l 1,2,-1
 102 425 l 1,3,-1
 102 710 l 1,4,-1
 213 710 l 1,5,-1
 213 460 l 1,6,-1
 395 517 l 1,7,-1
 395 426 l 1,8,-1
 213 369 l 1,9,-1
 213 97 l 1,10,-1
 540 97 l 1,11,-1
 540 0 l 1,12,-1
 102 0 l 1,13,-1
 102 334 l 1,0,-1
EndSplineSet
Validated: 1
Position2: "'cpsp' Capital Spacing in Latin lookup 0 subtable" dx=5 dy=0 dh=10 dv=0
EndChar

StartChar: M
Encoding: 77 77 69
Width: 897
GlyphClass: 2
Flags: W
AnchorPoint: "Anchor-4" 448 710 basechar 0
AnchorPoint: "Anchor-3" 448 0 basechar 0
LayerCount: 2
Fore
SplineSet
68 0 m 1,0,-1
 68 643 l 2,1,2
 68 672 68 672 87 691 c 128,-1,3
 106 710 106 710 135 710 c 2,4,-1
 269 710 l 1,5,-1
 399 246 l 1,6,-1
 437 102 l 1,7,-1
 460 102 l 1,8,-1
 498 246 l 1,9,-1
 628 710 l 1,10,-1
 829 710 l 1,11,-1
 829 0 l 1,12,-1
 725 0 l 1,13,-1
 725 607 l 1,14,-1
 702 607 l 1,15,-1
 661 451 l 1,16,-1
 531 0 l 1,17,-1
 366 0 l 1,18,-1
 235 451 l 1,19,-1
 195 607 l 1,20,-1
 171 607 l 1,21,-1
 171 0 l 1,22,-1
 68 0 l 1,0,-1
EndSplineSet
Validated: 1048577
Substitution2: "'ss07' Style Set 7 in Latin lookup 36 subtable" M.ss01
Substitution2: "'ss01' Style Set 1 in Latin lookup 27 subtable" M.ss01
Substitution2: "'ordn' Ordinals in Latin lookup 20 subtable" m.superior
AlternateSubs2: "'aalt' Access All Alternates in Latin lookup 1 subtable" m.superior M.ss01
Position2: "'cpsp' Capital Spacing in Latin lookup 0 subtable" dx=5 dy=0 dh=10 dv=0
EndChar

StartChar: N
Encoding: 78 78 70
Width: 713
GlyphClass: 2
Flags: W
AnchorPoint: "Anchor-4" 356 732 basechar 0
AnchorPoint: "Anchor-3" 356 0 basechar 0
LayerCount: 2
Fore
SplineSet
87 691 m 128,-1,1
 106 710 106 710 135 710 c 2,2,-1
 258 710 l 1,3,-1
 451 261 l 1,4,-1
 513 108 l 1,5,-1
 540 108 l 1,6,-1
 540 710 l 1,7,-1
 645 710 l 1,8,-1
 645 0 l 1,9,-1
 455 0 l 1,10,-1
 262 449 l 1,11,-1
 200 602 l 1,12,-1
 173 602 l 1,13,-1
 173 0 l 1,14,-1
 68 0 l 1,15,-1
 68 643 l 2,16,0
 68 672 68 672 87 691 c 128,-1,1
EndSplineSet
Validated: 1048577
Substitution2: "'ss07' Style Set 7 in Latin lookup 36 subtable" N.ss01
Substitution2: "'ss01' Style Set 1 in Latin lookup 27 subtable" N.ss01
Substitution2: "'ordn' Ordinals in Latin lookup 20 subtable" n.superior
AlternateSubs2: "'aalt' Access All Alternates in Latin lookup 1 subtable" n.superior N.ss01
Position2: "'cpsp' Capital Spacing in Latin lookup 0 subtable" dx=5 dy=0 dh=10 dv=0
EndChar

StartChar: Eng
Encoding: 330 330 74
Width: 713
GlyphClass: 2
Flags: W
AnchorPoint: "Anchor-4" 356 710 basechar 0
AnchorPoint: "Anchor-3" 356 0 basechar 0
LayerCount: 2
Fore
SplineSet
402 -89 m 1,0,-1
 540 -89 l 1,1,-1
 540 0 l 1,2,-1
 455 0 l 1,3,-1
 262 449 l 1,4,-1
 200 602 l 1,5,-1
 173 602 l 1,6,-1
 173 0 l 1,7,-1
 68 0 l 1,8,-1
 68 643 l 2,9,10
 68 672 68 672 87 691 c 128,-1,11
 106 710 106 710 135 710 c 2,12,-1
 258 710 l 1,13,-1
 451 261 l 1,14,-1
 513 108 l 1,15,-1
 540 108 l 1,16,-1
 540 710 l 1,17,-1
 645 710 l 1,18,-1
 645 -110 l 2,19,20
 645 -141 645 -141 625.5 -160.5 c 128,-1,21
 606 -180 606 -180 575 -180 c 2,22,-1
 402 -180 l 1,23,-1
 402 -89 l 1,0,-1
EndSplineSet
Validated: 1048577
Substitution2: "'ss01' Style Set 1 in Latin lookup 27 subtable" Eng.aalt
Substitution2: "'aalt' Access All Alternates in Latin lookup 0 subtable" Eng.aalt
Position2: "'cpsp' Capital Spacing in Latin lookup 0 subtable" dx=5 dy=0 dh=10 dv=0
EndChar

StartChar: O
Encoding: 79 79 76
Width: 788
GlyphClass: 2
Flags: W
AnchorPoint: "Anchor-6" 774 710 basechar 0
AnchorPoint: "Anchor-5" 394 355 basechar 0
AnchorPoint: "Anchor-4" 394 732 basechar 0
AnchorPoint: "Anchor-3" 394 0 basechar 0
LayerCount: 2
Fore
SplineSet
217 33.5 m 128,-1,1
 136 77 136 77 88 159.5 c 128,-1,2
 40 242 40 242 40 355 c 256,3,4
 40 468 40 468 88 550.5 c 128,-1,5
 136 633 136 633 217 676.5 c 128,-1,6
 298 720 298 720 394 720 c 256,7,8
 490 720 490 720 571 676.5 c 128,-1,9
 652 633 652 633 700 550.5 c 128,-1,10
 748 468 748 468 748 356 c 0,11,12
 748 243 748 243 700 160 c 128,-1,13
 652 77 652 77 571 33.5 c 128,-1,14
 490 -10 490 -10 394 -10 c 256,15,0
 298 -10 298 -10 217 33.5 c 128,-1,1
185 208.5 m 128,-1,17
 217 148 217 148 272 117 c 128,-1,18
 327 86 327 86 394 86 c 256,19,20
 461 86 461 86 516 117 c 128,-1,21
 571 148 571 148 603 209 c 128,-1,22
 635 270 635 270 635 356 c 0,23,24
 635 441 635 441 603 501.5 c 128,-1,25
 571 562 571 562 516 593 c 128,-1,26
 461 624 461 624 394 624 c 256,27,28
 327 624 327 624 272.5 593 c 128,-1,29
 218 562 218 562 185.5 501 c 128,-1,30
 153 440 153 440 153 355 c 0,31,16
 153 269 153 269 185 208.5 c 128,-1,17
EndSplineSet
Validated: 1
Substitution2: "Single Substitution lookup 53 subtable" ordmasculine
Substitution2: "'ordn' Ordinals in Latin lookup 20 subtable" o.superior
AlternateSubs2: "'aalt' Access All Alternates in Latin lookup 1 subtable" ordmasculine o.superior
Position2: "'cpsp' Capital Spacing in Latin lookup 0 subtable" dx=5 dy=0 dh=10 dv=0
EndChar

StartChar: Oslash
Encoding: 216 216 84
Width: 788
GlyphClass: 2
Flags: W
AnchorPoint: "Anchor-6" 774 710 basechar 0
AnchorPoint: "Anchor-5" 394 355 basechar 0
AnchorPoint: "Anchor-4" 394 732 basechar 0
AnchorPoint: "Anchor-3" 394 0 basechar 0
LayerCount: 2
Fore
SplineSet
218 33 m 1,1,-1
 167 -40 l 1,2,-1
 61 -40 l 1,3,-1
 148 83 l 1,4,5
 97 131 97 131 68.5 200 c 128,-1,6
 40 269 40 269 40 355 c 0,7,8
 40 468 40 468 88 550.5 c 128,-1,9
 136 633 136 633 217 676.5 c 128,-1,10
 298 720 298 720 394 720 c 0,11,12
 491 720 491 720 569 678 c 1,13,-1
 620 750 l 1,14,-1
 726 750 l 1,15,-1
 639 628 l 1,16,17
 690 580 690 580 719 511 c 128,-1,18
 748 442 748 442 748 356 c 0,19,20
 748 243 748 243 700 160 c 128,-1,21
 652 77 652 77 571 33.5 c 128,-1,22
 490 -10 490 -10 394 -10 c 0,23,0
 299 -10 299 -10 218 33 c 1,1,-1
210 170 m 1,25,-1
 510 596 l 1,26,27
 460 624 460 624 394 624 c 0,28,29
 327 624 327 624 272.5 593 c 128,-1,30
 218 562 218 562 185.5 501 c 128,-1,31
 153 440 153 440 153 355 c 0,32,24
 153 243 153 243 210 170 c 1,25,-1
394 86 m 0,34,35
 461 86 461 86 516 117 c 128,-1,36
 571 148 571 148 603 209 c 128,-1,37
 635 270 635 270 635 356 c 0,38,39
 635 469 635 469 577 541 c 1,40,-1
 277 114 l 1,41,33
 331 86 331 86 394 86 c 0,34,35
EndSplineSet
Validated: 1
Position2: "'cpsp' Capital Spacing in Latin lookup 0 subtable" dx=5 dy=0 dh=10 dv=0
EndChar

StartChar: OE
Encoding: 338 338 87
Width: 961
GlyphClass: 2
Flags: W
AnchorPoint: "Anchor-4" 486 710 basechar 0
AnchorPoint: "Anchor-3" 486 0 basechar 0
LayerCount: 2
Fore
SplineSet
122 96 m 128,-1,1
 41 192 41 192 41 356 c 128,-1,2
 41 520 41 520 121.5 615 c 128,-1,3
 202 710 202 710 370 710 c 2,4,-1
 919 710 l 1,5,-1
 919 614 l 1,6,-1
 594 614 l 1,7,-1
 594 403 l 1,8,-1
 883 403 l 1,9,-1
 883 308 l 1,10,-1
 594 308 l 1,11,-1
 594 96 l 1,12,-1
 924 96 l 1,13,-1
 924 0 l 1,14,-1
 370 0 l 2,15,0
 203 0 203 0 122 96 c 128,-1,1
203.5 161 m 128,-1,17
 253 96 253 96 378 96 c 2,18,-1
 483 96 l 1,19,-1
 483 614 l 1,20,-1
 378 614 l 2,21,22
 252 614 252 614 203 548.5 c 128,-1,23
 154 483 154 483 154 356 c 0,24,16
 154 226 154 226 203.5 161 c 128,-1,17
EndSplineSet
Validated: 1048577
Position2: "'cpsp' Capital Spacing in Latin lookup 0 subtable" dx=5 dy=0 dh=10 dv=0
EndChar

StartChar: P
Encoding: 80 80 88
Width: 602
GlyphClass: 2
Flags: W
AnchorPoint: "Anchor-4" 290 710 basechar 0
AnchorPoint: "Anchor-3" 290 0 basechar 0
LayerCount: 2
Fore
SplineSet
87 691 m 128,-1,1
 106 710 106 710 135 710 c 2,2,-1
 346 710 l 2,3,4
 445 710 445 710 505.5 654.5 c 128,-1,5
 566 599 566 599 566 505 c 0,6,7
 566 404 566 404 507 349.5 c 128,-1,8
 448 295 448 295 350 295 c 2,9,-1
 179 295 l 1,10,-1
 179 0 l 1,11,-1
 68 0 l 1,12,-1
 68 643 l 2,13,0
 68 672 68 672 87 691 c 128,-1,1
351 389 m 2,14,15
 403 389 403 389 428 420 c 128,-1,16
 453 451 453 451 453 505 c 0,17,18
 453 558 453 558 424.5 586.5 c 128,-1,19
 396 615 396 615 341 615 c 2,20,-1
 179 615 l 1,21,-1
 179 389 l 1,22,-1
 351 389 l 2,14,15
EndSplineSet
Validated: 1048577
Substitution2: "'ss07' Style Set 7 in Latin lookup 36 subtable" P.ss01
Substitution2: "'ss01' Style Set 1 in Latin lookup 27 subtable" P.ss01
Substitution2: "'ordn' Ordinals in Latin lookup 20 subtable" p.superior
AlternateSubs2: "'aalt' Access All Alternates in Latin lookup 1 subtable" p.superior P.ss01
Position2: "'cpsp' Capital Spacing in Latin lookup 0 subtable" dx=5 dy=0 dh=10 dv=0
EndChar

StartChar: Thorn
Encoding: 222 222 89
Width: 602
GlyphClass: 2
Flags: W
AnchorPoint: "Anchor-4" 290 710 basechar 0
AnchorPoint: "Anchor-3" 290 0 basechar 0
LayerCount: 2
Fore
SplineSet
68 710 m 1,0,-1
 179 710 l 1,1,-1
 179 563 l 1,2,-1
 346 563 l 2,3,4
 445 563 445 563 505.5 507.5 c 128,-1,5
 566 452 566 452 566 357 c 0,6,7
 566 257 566 257 507 202 c 128,-1,8
 448 147 448 147 350 147 c 2,9,-1
 179 147 l 1,10,-1
 179 0 l 1,11,-1
 68 0 l 1,12,-1
 68 710 l 1,0,-1
351 242 m 2,13,14
 403 242 403 242 428 272.5 c 128,-1,15
 453 303 453 303 453 357 c 128,-1,16
 453 411 453 411 424.5 439.5 c 128,-1,17
 396 468 396 468 341 468 c 2,18,-1
 179 468 l 1,19,-1
 179 242 l 1,20,-1
 351 242 l 2,13,14
EndSplineSet
Validated: 1048577
Position2: "'cpsp' Capital Spacing in Latin lookup 0 subtable" dx=5 dy=0 dh=10 dv=0
EndChar

StartChar: Q
Encoding: 81 81 90
Width: 788
GlyphClass: 2
Flags: W
AnchorPoint: "Anchor-6" 774 710 basechar 0
AnchorPoint: "Anchor-5" 394 355 basechar 0
AnchorPoint: "Anchor-3" 400 0 basechar 0
LayerCount: 2
Fore
SplineSet
516 117 m 128,-1,1
 571 148 571 148 603 209 c 128,-1,2
 635 270 635 270 635 356 c 0,3,4
 635 441 635 441 603 501.5 c 128,-1,5
 571 562 571 562 516 593 c 128,-1,6
 461 624 461 624 394 624 c 128,-1,7
 327 624 327 624 272.5 593 c 128,-1,8
 218 562 218 562 185.5 501 c 128,-1,9
 153 440 153 440 153 355 c 0,10,11
 153 269 153 269 185 208.5 c 128,-1,12
 217 148 217 148 272 117 c 128,-1,13
 327 86 327 86 394 86 c 128,-1,0
 461 86 461 86 516 117 c 128,-1,1
88 550.5 m 128,-1,15
 136 633 136 633 217 676.5 c 128,-1,16
 298 720 298 720 394 720 c 128,-1,17
 490 720 490 720 571 676.5 c 128,-1,18
 652 633 652 633 700 550.5 c 128,-1,19
 748 468 748 468 748 356 c 0,20,21
 748 254 748 254 708.5 176 c 128,-1,22
 669 98 669 98 601 52 c 128,-1,23
 533 6 533 6 449 -6 c 1,24,-1
 449 -37 l 1,25,-1
 668 -37 l 1,26,-1
 668 -128 l 1,27,-1
 408 -128 l 2,28,29
 379 -128 379 -128 360 -109 c 128,-1,30
 341 -90 341 -90 341 -61 c 2,31,-1
 341 -6 l 1,32,33
 256 5 256 5 188 51 c 128,-1,34
 120 97 120 97 80 174.5 c 128,-1,35
 40 252 40 252 40 355 c 0,36,14
 40 468 40 468 88 550.5 c 128,-1,15
EndSplineSet
Validated: 1048577
Substitution2: "'ss11' Style Set 11 in Latin lookup 40 subtable" Q.ss01
Substitution2: "'ss07' Style Set 7 in Latin lookup 36 subtable" Q.ss01
Substitution2: "'ss01' Style Set 1 in Latin lookup 27 subtable" Q.ss01
Substitution2: "'ordn' Ordinals in Latin lookup 20 subtable" q.superior
AlternateSubs2: "'aalt' Access All Alternates in Latin lookup 1 subtable" q.superior Q.ss01
Position2: "'cpsp' Capital Spacing in Latin lookup 0 subtable" dx=5 dy=0 dh=10 dv=0
EndChar

StartChar: R
Encoding: 82 82 91
Width: 651
GlyphClass: 2
Flags: W
AnchorPoint: "Anchor-4" 313 732 basechar 0
AnchorPoint: "Anchor-3" 313 0 basechar 0
LayerCount: 2
Fore
SplineSet
87 691 m 128,-1,1
 106 710 106 710 135 710 c 2,2,-1
 364 710 l 2,3,4
 463 710 463 710 524 655 c 128,-1,5
 585 600 585 600 585 505 c 0,6,7
 585 428 585 428 546 375 c 128,-1,8
 507 322 507 322 437 304 c 1,9,-1
 484 228 l 1,10,-1
 622 0 l 1,11,-1
 493 0 l 1,12,-1
 322 296 l 1,13,-1
 179 296 l 1,14,-1
 179 0 l 1,15,-1
 68 0 l 1,16,-1
 68 643 l 2,17,0
 68 672 68 672 87 691 c 128,-1,1
370 389 m 2,18,19
 422 389 422 389 447 420 c 128,-1,20
 472 451 472 451 472 506 c 0,21,22
 472 559 472 559 443 587 c 128,-1,23
 414 615 414 615 359 615 c 2,24,-1
 179 615 l 1,25,-1
 179 389 l 1,26,-1
 370 389 l 2,18,19
EndSplineSet
Validated: 1048577
Substitution2: "'ss07' Style Set 7 in Latin lookup 36 subtable" R.ss01
Substitution2: "'ss01' Style Set 1 in Latin lookup 27 subtable" R.ss01
Substitution2: "'ordn' Ordinals in Latin lookup 20 subtable" r.superior
AlternateSubs2: "'aalt' Access All Alternates in Latin lookup 1 subtable" r.superior R.ss01
Position2: "'cpsp' Capital Spacing in Latin lookup 0 subtable" dx=5 dy=0 dh=10 dv=0
EndChar

StartChar: S
Encoding: 83 83 95
Width: 619
GlyphClass: 2
Flags: W
AnchorPoint: "Anchor-4" 302 732 basechar 0
AnchorPoint: "Anchor-3" 315 0 basechar 0
LayerCount: 2
Fore
SplineSet
174.5 19 m 128,-1,1
 111 48 111 48 74 102.5 c 128,-1,2
 37 157 37 157 36 230 c 1,3,-1
 148 230 l 1,4,5
 150 163 150 163 197 124 c 128,-1,6
 244 85 244 85 315 85 c 0,7,8
 388 85 388 85 429 114 c 128,-1,9
 470 143 470 143 470 198 c 0,10,11
 470 235 470 235 446.5 258 c 128,-1,12
 423 281 423 281 388.5 293.5 c 128,-1,13
 354 306 354 306 292 323 c 0,14,15
 214 344 214 344 167 363 c 128,-1,16
 120 382 120 382 86.5 421 c 128,-1,17
 53 460 53 460 53 526 c 0,18,19
 53 618 53 618 122.5 669 c 128,-1,20
 192 720 192 720 302 720 c 0,21,22
 377 720 377 720 436 692.5 c 128,-1,23
 495 665 495 665 529.5 613.5 c 128,-1,24
 564 562 564 562 566 491 c 1,25,-1
 455 491 l 1,26,27
 453 555 453 555 409 591 c 128,-1,28
 365 627 365 627 299 627 c 0,29,30
 240 627 240 627 201 602.5 c 128,-1,31
 162 578 162 578 162 530 c 0,32,33
 162 497 162 497 184.5 476 c 128,-1,34
 207 455 207 455 240.5 442.5 c 128,-1,35
 274 430 274 430 333 414 c 0,36,37
 414 392 414 392 463 371.5 c 128,-1,38
 512 351 512 351 547 309.5 c 128,-1,39
 582 268 582 268 582 200 c 0,40,41
 582 135 582 135 545.5 87 c 128,-1,42
 509 39 509 39 448 14.5 c 128,-1,43
 387 -10 387 -10 315 -10 c 0,44,0
 238 -10 238 -10 174.5 19 c 128,-1,1
EndSplineSet
Validated: 1048577
Substitution2: "'ordn' Ordinals in Latin lookup 20 subtable" S.aalt
Substitution2: "'aalt' Access All Alternates in Latin lookup 0 subtable" S.aalt
Position2: "'cpsp' Capital Spacing in Latin lookup 0 subtable" dx=5 dy=0 dh=10 dv=0
EndChar

StartChar: uniA78B
Encoding: 42891 42891 97
Width: 200
GlyphClass: 1
Flags: W
LayerCount: 2
Fore
SplineSet
43 710 m 1,0,-1
 157 710 l 1,1,-1
 139 342 l 1,2,-1
 60 342 l 1,3,-1
 43 710 l 1,0,-1
EndSplineSet
Validated: 1
Position2: "'cpsp' Capital Spacing in Latin lookup 0 subtable" dx=5 dy=0 dh=10 dv=0
EndChar

StartChar: Scedilla
Encoding: 350 350 99
Width: 619
GlyphClass: 2
Flags: W
AnchorPoint: "Anchor-3" 343 -230 basechar 0
LayerCount: 2
Fore
SplineSet
240 -179 m 1,0,-1
 325 -179 l 2,1,2
 345 -179 345 -179 356 -170.5 c 128,-1,3
 367 -162 367 -162 367 -146 c 2,4,-1
 367 -144 l 2,5,6
 367 -130 367 -130 356 -121.5 c 128,-1,7
 345 -113 345 -113 325 -113 c 2,8,-1
 253 -113 l 1,9,-1
 246 -106 l 1,10,-1
 273 -8 l 1,11,12
 170 4 170 4 103.5 67.5 c 128,-1,13
 37 131 37 131 36 230 c 1,14,-1
 148 230 l 1,15,16
 150 163 150 163 197 124 c 128,-1,17
 244 85 244 85 315 85 c 0,18,19
 388 85 388 85 429 114 c 128,-1,20
 470 143 470 143 470 198 c 0,21,22
 470 235 470 235 446.5 258 c 128,-1,23
 423 281 423 281 388.5 293.5 c 128,-1,24
 354 306 354 306 292 323 c 0,25,26
 214 344 214 344 167 363 c 128,-1,27
 120 382 120 382 86.5 421 c 128,-1,28
 53 460 53 460 53 526 c 0,29,30
 53 618 53 618 122.5 669 c 128,-1,31
 192 720 192 720 302 720 c 0,32,33
 377 720 377 720 436 692.5 c 128,-1,34
 495 665 495 665 529.5 613.5 c 128,-1,35
 564 562 564 562 566 491 c 1,36,-1
 455 491 l 1,37,38
 453 555 453 555 409 591 c 128,-1,39
 365 627 365 627 299 627 c 0,40,41
 240 627 240 627 201 602.5 c 128,-1,42
 162 578 162 578 162 530 c 0,43,44
 162 497 162 497 184.5 476 c 128,-1,45
 207 455 207 455 240.5 442.5 c 128,-1,46
 274 430 274 430 333 414 c 0,47,48
 414 392 414 392 463 371.5 c 128,-1,49
 512 351 512 351 547 309.5 c 128,-1,50
 582 268 582 268 582 200 c 0,51,52
 582 140 582 140 551 95 c 128,-1,53
 520 50 520 50 467 24 c 128,-1,54
 414 -2 414 -2 350 -8 c 1,55,-1
 325 -54 l 1,56,-1
 325 -62 l 1,57,-1
 350 -62 l 2,58,59
 388 -62 388 -62 416.5 -83.5 c 128,-1,60
 445 -105 445 -105 445 -144 c 2,61,-1
 445 -146 l 2,62,63
 445 -187 445 -187 416.5 -208.5 c 128,-1,64
 388 -230 388 -230 350 -230 c 2,65,-1
 240 -230 l 1,66,-1
 240 -179 l 1,0,-1
EndSplineSet
Validated: 1048577
Substitution2: "'locl' Localized Forms in Latin lookup 6 subtable" uni0218
Substitution2: "'aalt' Access All Alternates in Latin lookup 0 subtable" uni0218
Position2: "'cpsp' Capital Spacing in Latin lookup 0 subtable" dx=5 dy=0 dh=10 dv=0
EndChar

StartChar: uni1E9E
Encoding: 7838 7838 102
Width: 619
GlyphClass: 2
Flags: W
AnchorPoint: "Anchor-4" 309 710 basechar 0
AnchorPoint: "Anchor-3" 309 0 basechar 0
LayerCount: 2
Fore
SplineSet
87 691 m 128,-1,1
 106 710 106 710 135 710 c 2,2,-1
 545 710 l 1,3,-1
 545 616 l 1,4,-1
 386 405 l 1,5,6
 477 395 477 395 529 341.5 c 128,-1,7
 581 288 581 288 581 204 c 0,8,9
 581 145 581 145 553.5 98.5 c 128,-1,10
 526 52 526 52 476.5 26 c 128,-1,11
 427 0 427 0 363 0 c 2,12,-1
 271 0 l 1,13,-1
 271 95 l 1,14,-1
 351 95 l 2,15,16
 409 95 409 95 439 125.5 c 128,-1,17
 469 156 469 156 469 204 c 128,-1,18
 469 252 469 252 439 282 c 128,-1,19
 409 312 409 312 351 312 c 2,20,-1
 271 312 l 1,21,-1
 271 406 l 1,22,-1
 424 611 l 1,23,-1
 424 616 l 1,24,-1
 177 616 l 1,25,-1
 177 0 l 1,26,-1
 68 0 l 1,27,-1
 68 643 l 2,28,0
 68 672 68 672 87 691 c 128,-1,1
EndSplineSet
Validated: 1048577
Substitution2: "'ss01' Style Set 1 in Latin lookup 27 subtable" uni1E9E.aalt
Substitution2: "'aalt' Access All Alternates in Latin lookup 0 subtable" uni1E9E.aalt
Position2: "'cpsp' Capital Spacing in Latin lookup 0 subtable" dx=5 dy=0 dh=10 dv=0
EndChar

StartChar: uni018F
Encoding: 399 399 103
Width: 785
GlyphClass: 1
Flags: W
LayerCount: 2
Fore
SplineSet
210.5 34.5 m 128,-1,1
 128 79 128 79 80 166 c 128,-1,2
 32 253 32 253 36 375 c 1,3,-1
 632 375 l 1,4,5
 628 455 628 455 594.5 511.5 c 128,-1,6
 561 568 561 568 507.5 596 c 128,-1,7
 454 624 454 624 391 624 c 0,8,9
 305 624 305 624 248.5 580.5 c 128,-1,10
 192 537 192 537 171 476 c 1,11,-1
 53 476 l 1,12,13
 69 544 69 544 116 599.5 c 128,-1,14
 163 655 163 655 234.5 687.5 c 128,-1,15
 306 720 306 720 391 720 c 0,16,17
 487 720 487 720 568 677 c 128,-1,18
 649 634 649 634 697 551.5 c 128,-1,19
 745 469 745 469 745 356 c 0,20,21
 745 242 745 242 697 159 c 128,-1,22
 649 76 649 76 568 33 c 128,-1,23
 487 -10 487 -10 391 -10 c 0,24,0
 293 -10 293 -10 210.5 34.5 c 128,-1,1
238.5 138 m 128,-1,26
 303 86 303 86 391 86 c 0,27,28
 478 86 478 86 542.5 137 c 128,-1,29
 607 188 607 188 626 285 c 1,30,-1
 155 285 l 1,31,25
 174 190 174 190 238.5 138 c 128,-1,26
EndSplineSet
Validated: 33
Position2: "'cpsp' Capital Spacing in Latin lookup 0 subtable" dx=5 dy=0 dh=10 dv=0
EndChar

StartChar: T
Encoding: 84 84 104
Width: 600
GlyphClass: 2
Flags: W
AnchorPoint: "Anchor-5" 301 355 basechar 0
AnchorPoint: "Anchor-4" 301 732 basechar 0
AnchorPoint: "Anchor-3" 301 0 basechar 0
LayerCount: 2
Fore
SplineSet
245 613 m 1,0,-1
 32 613 l 1,1,-1
 32 710 l 1,2,-1
 569 710 l 1,3,-1
 569 613 l 1,4,-1
 355 613 l 1,5,-1
 355 0 l 1,6,-1
 245 0 l 1,7,-1
 245 613 l 1,0,-1
EndSplineSet
Validated: 1048577
Substitution2: "'ordn' Ordinals in Latin lookup 20 subtable" T.aalt
Substitution2: "'aalt' Access All Alternates in Latin lookup 0 subtable" T.aalt
Position2: "'cpsp' Capital Spacing in Latin lookup 0 subtable" dx=5 dy=0 dh=10 dv=0
EndChar

StartChar: Tbar
Encoding: 358 358 105
Width: 600
GlyphClass: 2
Flags: W
AnchorPoint: "Anchor-5" 301 355 basechar 0
AnchorPoint: "Anchor-4" 301 732 basechar 0
AnchorPoint: "Anchor-3" 301 0 basechar 0
LayerCount: 2
Fore
SplineSet
245 306 m 1,0,-1
 121 306 l 1,1,-1
 121 404 l 1,2,-1
 245 404 l 1,3,-1
 245 613 l 1,4,-1
 32 613 l 1,5,-1
 32 710 l 1,6,-1
 569 710 l 1,7,-1
 569 613 l 1,8,-1
 355 613 l 1,9,-1
 355 404 l 1,10,-1
 479 404 l 1,11,-1
 479 306 l 1,12,-1
 355 306 l 1,13,-1
 355 0 l 1,14,-1
 245 0 l 1,15,-1
 245 306 l 1,0,-1
EndSplineSet
Validated: 1048577
Position2: "'cpsp' Capital Spacing in Latin lookup 0 subtable" dx=5 dy=0 dh=10 dv=0
EndChar

StartChar: uni0162
Encoding: 354 354 107
Width: 600
GlyphClass: 2
Flags: W
AnchorPoint: "Anchor-5" 301 355 basechar 0
AnchorPoint: "Anchor-3" 328 -230 basechar 0
LayerCount: 2
Fore
SplineSet
245 613 m 1,0,-1
 32 613 l 1,1,-1
 32 710 l 1,2,-1
 569 710 l 1,3,-1
 569 613 l 1,4,-1
 355 613 l 1,5,-1
 355 0 l 1,6,-1
 341 0 l 1,7,-1
 311 -54 l 1,8,-1
 311 -62 l 1,9,-1
 336 -62 l 2,10,11
 374 -62 374 -62 402.5 -83.5 c 128,-1,12
 431 -105 431 -105 431 -144 c 2,13,-1
 431 -146 l 2,14,15
 431 -187 431 -187 402.5 -208.5 c 128,-1,16
 374 -230 374 -230 336 -230 c 2,17,-1
 226 -230 l 1,18,-1
 226 -179 l 1,19,-1
 311 -179 l 2,20,21
 331 -179 331 -179 342 -170.5 c 128,-1,22
 353 -162 353 -162 353 -146 c 2,23,-1
 353 -144 l 2,24,25
 353 -130 353 -130 342 -121.5 c 128,-1,26
 331 -113 331 -113 311 -113 c 2,27,-1
 239 -113 l 1,28,-1
 232 -106 l 1,29,-1
 261 0 l 1,30,-1
 245 0 l 1,31,-1
 245 613 l 1,0,-1
EndSplineSet
Validated: 1048577
Substitution2: "'locl' Localized Forms in Latin lookup 6 subtable" uni021A
Substitution2: "'aalt' Access All Alternates in Latin lookup 0 subtable" uni021A
Position2: "'cpsp' Capital Spacing in Latin lookup 0 subtable" dx=5 dy=0 dh=10 dv=0
EndChar

StartChar: U
Encoding: 85 85 109
Width: 683
GlyphClass: 2
Flags: W
AnchorPoint: "Anchor-6" 678 710 basechar 0
AnchorPoint: "Anchor-4" 342 732 basechar 0
AnchorPoint: "Anchor-3" 370 0 basechar 0
LayerCount: 2
Fore
SplineSet
182.5 33 m 128,-1,1
 121 76 121 76 94 138 c 128,-1,2
 67 200 67 200 67 258 c 2,3,-1
 67 710 l 1,4,-1
 178 710 l 1,5,-1
 178 262 l 2,6,7
 178 210 178 210 200 170.5 c 128,-1,8
 222 131 222 131 259.5 109.5 c 128,-1,9
 297 88 297 88 342 88 c 0,10,11
 386 88 386 88 423.5 109.5 c 128,-1,12
 461 131 461 131 483.5 170.5 c 128,-1,13
 506 210 506 210 506 262 c 2,14,-1
 506 710 l 1,15,-1
 616 710 l 1,16,-1
 616 258 l 2,17,18
 616 200 616 200 589 138 c 128,-1,19
 562 76 562 76 500.5 33 c 128,-1,20
 439 -10 439 -10 342 -10 c 0,21,0
 244 -10 244 -10 182.5 33 c 128,-1,1
EndSplineSet
Validated: 1048577
Substitution2: "'ordn' Ordinals in Latin lookup 20 subtable" U.aalt
Substitution2: "'aalt' Access All Alternates in Latin lookup 0 subtable" U.aalt
Position2: "'cpsp' Capital Spacing in Latin lookup 0 subtable" dx=5 dy=0 dh=10 dv=0
EndChar

StartChar: Uogonek
Encoding: 370 370 117
Width: 683
GlyphClass: 2
Flags: W
AnchorPoint: "Anchor-6" 678 710 basechar 0
AnchorPoint: "Anchor-3" 370 0 basechar 0
LayerCount: 2
Fore
SplineSet
265 -155.5 m 128,-1,1
 234 -131 234 -131 234 -94 c 0,2,3
 234 -40 234 -40 281 -5 c 1,4,5
 205 9 205 9 157 52.5 c 128,-1,6
 109 96 109 96 88 151 c 128,-1,7
 67 206 67 206 67 258 c 2,8,-1
 67 710 l 1,9,-1
 178 710 l 1,10,-1
 178 262 l 2,11,12
 178 210 178 210 200 170.5 c 128,-1,13
 222 131 222 131 259.5 109.5 c 128,-1,14
 297 88 297 88 342 88 c 0,15,16
 386 88 386 88 423.5 109.5 c 128,-1,17
 461 131 461 131 483.5 170.5 c 128,-1,18
 506 210 506 210 506 262 c 2,19,-1
 506 710 l 1,20,-1
 616 710 l 1,21,-1
 616 258 l 2,22,23
 616 204 616 204 593.5 147 c 128,-1,24
 571 90 571 90 519 46 c 128,-1,25
 467 2 467 2 385 -8 c 1,26,27
 327 -31 327 -31 327 -60 c 0,28,29
 327 -73 327 -73 339.5 -81 c 128,-1,30
 352 -89 352 -89 374 -89 c 2,31,-1
 405 -89 l 1,32,-1
 405 -180 l 1,33,-1
 356 -180 l 2,34,0
 296 -180 296 -180 265 -155.5 c 128,-1,1
EndSplineSet
Validated: 1048577
Position2: "'cpsp' Capital Spacing in Latin lookup 0 subtable" dx=5 dy=0 dh=10 dv=0
EndChar

StartChar: V
Encoding: 86 86 120
Width: 703
GlyphClass: 2
Flags: W
AnchorPoint: "Anchor-4" 352 710 basechar 0
AnchorPoint: "Anchor-3" 352 0 basechar 0
LayerCount: 2
Fore
SplineSet
145 710 m 1,0,-1
 300 235 l 1,1,-1
 339 100 l 1,2,-1
 366 100 l 1,3,-1
 406 235 l 1,4,-1
 561 710 l 1,5,-1
 674 710 l 1,6,-1
 435 0 l 1,7,-1
 268 0 l 1,8,-1
 29 710 l 1,9,-1
 145 710 l 1,0,-1
EndSplineSet
Validated: 1048577
Substitution2: "'ordn' Ordinals in Latin lookup 20 subtable" V.aalt
Substitution2: "'aalt' Access All Alternates in Latin lookup 0 subtable" V.aalt
Position2: "'cpsp' Capital Spacing in Latin lookup 0 subtable" dx=5 dy=0 dh=10 dv=0
EndChar

StartChar: W
Encoding: 87 87 121
Width: 1002
GlyphClass: 2
Flags: W
AnchorPoint: "Anchor-4" 502 732 basechar 0
AnchorPoint: "Anchor-3" 502 0 basechar 0
LayerCount: 2
Fore
SplineSet
493 610 m 1,0,-1
 460 454 l 1,1,-1
 360 0 l 1,2,-1
 193 0 l 1,3,-1
 31 710 l 1,4,-1
 141 710 l 1,5,-1
 236 249 l 1,6,-1
 267 100 l 1,7,-1
 285 100 l 1,8,-1
 315 249 l 1,9,-1
 419 710 l 1,10,-1
 584 710 l 1,11,-1
 688 249 l 1,12,-1
 718 100 l 1,13,-1
 736 100 l 1,14,-1
 767 249 l 1,15,-1
 862 710 l 1,16,-1
 972 710 l 1,17,-1
 810 0 l 1,18,-1
 643 0 l 1,19,-1
 543 454 l 1,20,-1
 510 610 l 1,21,-1
 493 610 l 1,0,-1
EndSplineSet
Validated: 1048577
Substitution2: "'ordn' Ordinals in Latin lookup 20 subtable" W.aalt
Substitution2: "'aalt' Access All Alternates in Latin lookup 0 subtable" W.aalt
Position2: "'cpsp' Capital Spacing in Latin lookup 0 subtable" dx=5 dy=0 dh=10 dv=0
EndChar

StartChar: X
Encoding: 88 88 126
Width: 676
GlyphClass: 2
Flags: W
AnchorPoint: "Anchor-4" 339 710 basechar 0
AnchorPoint: "Anchor-3" 339 0 basechar 0
LayerCount: 2
Fore
SplineSet
226 362 m 1,0,-1
 39 710 l 1,1,-1
 160 710 l 1,2,-1
 313 411 l 1,3,-1
 362 411 l 1,4,-1
 516 710 l 1,5,-1
 637 710 l 1,6,-1
 449 363 l 1,7,-1
 647 0 l 1,8,-1
 526 0 l 1,9,-1
 362 309 l 1,10,-1
 313 309 l 1,11,-1
 150 0 l 1,12,-1
 30 0 l 1,13,-1
 226 362 l 1,0,-1
EndSplineSet
Validated: 1048577
Substitution2: "'ordn' Ordinals in Latin lookup 20 subtable" X.aalt
Substitution2: "'aalt' Access All Alternates in Latin lookup 0 subtable" X.aalt
Position2: "'cpsp' Capital Spacing in Latin lookup 0 subtable" dx=5 dy=0 dh=10 dv=0
EndChar

StartChar: Y
Encoding: 89 89 127
Width: 623
GlyphClass: 2
Flags: W
AnchorPoint: "Anchor-4" 312 732 basechar 0
AnchorPoint: "Anchor-3" 312 0 basechar 0
LayerCount: 2
Fore
SplineSet
28 706 m 1,0,-1
 28 710 l 1,1,-1
 147 710 l 1,2,-1
 252 507 l 1,3,-1
 309 391 l 1,4,-1
 313 391 l 1,5,-1
 370 507 l 1,6,-1
 476 710 l 1,7,-1
 595 710 l 1,8,-1
 595 706 l 1,9,-1
 366 290 l 1,10,-1
 366 0 l 1,11,-1
 255 0 l 1,12,-1
 255 289 l 1,13,-1
 28 706 l 1,0,-1
EndSplineSet
Validated: 1048577
Substitution2: "'ordn' Ordinals in Latin lookup 20 subtable" Y.aalt
Substitution2: "'aalt' Access All Alternates in Latin lookup 0 subtable" Y.aalt
Position2: "'cpsp' Capital Spacing in Latin lookup 0 subtable" dx=5 dy=0 dh=10 dv=0
EndChar

StartChar: Z
Encoding: 90 90 133
Width: 586
GlyphClass: 2
Flags: W
AnchorPoint: "Anchor-5" 293 355 basechar 0
AnchorPoint: "Anchor-4" 293 732 basechar 0
AnchorPoint: "Anchor-3" 293 0 basechar 0
LayerCount: 2
Fore
SplineSet
37 94 m 1,0,-1
 408 609 l 1,1,-1
 408 613 l 1,2,-1
 46 613 l 1,3,-1
 46 710 l 1,4,-1
 539 710 l 1,5,-1
 539 616 l 1,6,-1
 167 101 l 1,7,-1
 167 97 l 1,8,-1
 549 97 l 1,9,-1
 549 0 l 1,10,-1
 37 0 l 1,11,-1
 37 94 l 1,0,-1
EndSplineSet
Validated: 1048577
Substitution2: "'ordn' Ordinals in Latin lookup 20 subtable" Z.aalt
Substitution2: "'aalt' Access All Alternates in Latin lookup 0 subtable" Z.aalt
Position2: "'cpsp' Capital Spacing in Latin lookup 0 subtable" dx=5 dy=0 dh=10 dv=0
EndChar

StartChar: B.ss01
Encoding: 65538 -1 137
Width: 619
GlyphClass: 2
Flags: W
AnchorPoint: "Anchor-5" 309 355 basechar 0
AnchorPoint: "Anchor-4" 309 710 basechar 0
AnchorPoint: "Anchor-3" 309 0 basechar 0
LayerCount: 2
Fore
SplineSet
68 710 m 1,0,-1
 344 710 l 2,1,2
 406 710 406 710 454.5 686.5 c 128,-1,3
 503 663 503 663 530.5 620.5 c 128,-1,4
 558 578 558 578 558 521 c 0,5,6
 558 471 558 471 534 427.5 c 128,-1,7
 510 384 510 384 463 365 c 1,8,9
 519 348 519 348 550.5 302 c 128,-1,10
 582 256 582 256 582 202 c 0,11,12
 582 145 582 145 554 98.5 c 128,-1,13
 526 52 526 52 476 26 c 128,-1,14
 426 0 426 0 363 0 c 2,15,-1
 68 0 l 1,16,-1
 68 710 l 1,0,-1
351 95 m 2,17,18
 408 95 408 95 438.5 126 c 128,-1,19
 469 157 469 157 469 204 c 0,20,21
 469 249 469 249 439 280.5 c 128,-1,22
 409 312 409 312 351 312 c 2,23,-1
 178 312 l 1,24,-1
 178 95 l 1,25,-1
 351 95 l 2,17,18
331 403 m 2,26,27
 386 403 386 403 416.5 437.5 c 128,-1,28
 447 472 447 472 447 518 c 0,29,30
 447 563 447 563 417.5 590 c 128,-1,31
 388 617 388 617 331 617 c 2,32,-1
 178 617 l 1,33,-1
 178 403 l 1,34,-1
 331 403 l 2,26,27
EndSplineSet
Validated: 1048577
Position2: "'cpsp' Capital Spacing in Latin lookup 0 subtable" dx=5 dy=0 dh=10 dv=0
EndChar

StartChar: D.ss01
Encoding: 65539 -1 138
Width: 708
GlyphClass: 2
Flags: W
AnchorPoint: "Anchor-5" 166 355 basechar 0
AnchorPoint: "Anchor-4" 311 732 basechar 0
AnchorPoint: "Anchor-3" 350 0 basechar 0
LayerCount: 2
Fore
SplineSet
68 710 m 1,0,-1
 330 710 l 2,1,2
 431 710 431 710 507.5 665 c 128,-1,3
 584 620 584 620 626 540 c 128,-1,4
 668 460 668 460 668 358 c 0,5,6
 668 251 668 251 625.5 170 c 128,-1,7
 583 89 583 89 506.5 44.5 c 128,-1,8
 430 0 430 0 330 0 c 2,9,-1
 68 0 l 1,10,-1
 68 710 l 1,0,-1
321 95 m 2,11,12
 430 95 430 95 492.5 166.5 c 128,-1,13
 555 238 555 238 555 358 c 0,14,15
 555 476 555 476 492 545.5 c 128,-1,16
 429 615 429 615 321 615 c 2,17,-1
 179 615 l 1,18,-1
 179 95 l 1,19,-1
 321 95 l 2,11,12
EndSplineSet
Validated: 1048577
Position2: "'cpsp' Capital Spacing in Latin lookup 0 subtable" dx=5 dy=0 dh=10 dv=0
EndChar

StartChar: Eth.aalt
Encoding: 65540 -1 139
Width: 718
GlyphClass: 2
Flags: W
AnchorPoint: "Anchor-5" 176 355 basechar 0
AnchorPoint: "Anchor-4" 321 732 basechar 0
AnchorPoint: "Anchor-3" 360 0 basechar 0
LayerCount: 2
Fore
SplineSet
78 308 m 1,0,-1
 0 308 l 1,1,-1
 0 402 l 1,2,-1
 78 402 l 1,3,-1
 78 710 l 1,4,-1
 340 710 l 2,5,6
 441 710 441 710 517.5 665 c 128,-1,7
 594 620 594 620 636 540 c 128,-1,8
 678 460 678 460 678 358 c 0,9,10
 678 251 678 251 635.5 170 c 128,-1,11
 593 89 593 89 516.5 44.5 c 128,-1,12
 440 0 440 0 340 0 c 2,13,-1
 78 0 l 1,14,-1
 78 308 l 1,0,-1
331 95 m 2,15,16
 440 95 440 95 502.5 166.5 c 128,-1,17
 565 238 565 238 565 358 c 0,18,19
 565 476 565 476 502 545.5 c 128,-1,20
 439 615 439 615 331 615 c 2,21,-1
 189 615 l 1,22,-1
 189 402 l 1,23,-1
 354 402 l 1,24,-1
 354 308 l 1,25,-1
 189 308 l 1,26,-1
 189 95 l 1,27,-1
 331 95 l 2,15,16
EndSplineSet
Validated: 1048577
Position2: "'cpsp' Capital Spacing in Latin lookup 0 subtable" dx=5 dy=0 dh=10 dv=0
EndChar

StartChar: E.ss01
Encoding: 65543 -1 142
Width: 546
GlyphClass: 2
Flags: W
AnchorPoint: "Anchor-4" 288 732 basechar 0
AnchorPoint: "Anchor-3" 474 0 basechar 0
LayerCount: 2
Fore
SplineSet
68 710 m 1,0,-1
 504 710 l 1,1,-1
 504 614 l 1,2,-1
 179 614 l 1,3,-1
 179 403 l 1,4,-1
 468 403 l 1,5,-1
 468 308 l 1,6,-1
 179 308 l 1,7,-1
 179 96 l 1,8,-1
 509 96 l 1,9,-1
 509 0 l 1,10,-1
 68 0 l 1,11,-1
 68 710 l 1,0,-1
EndSplineSet
Validated: 1048577
Position2: "'cpsp' Capital Spacing in Latin lookup 0 subtable" dx=5 dy=0 dh=10 dv=0
EndChar

StartChar: Eogonek.aalt
Encoding: 65552 -1 151
Width: 546
GlyphClass: 2
Flags: W
AnchorPoint: "Anchor-3" 474 0 basechar 0
LayerCount: 2
Fore
SplineSet
369 -155.5 m 128,-1,1
 338 -131 338 -131 338 -94 c 0,2,3
 338 -36 338 -36 392 0 c 1,4,-1
 68 0 l 1,5,-1
 68 710 l 1,6,-1
 504 710 l 1,7,-1
 504 614 l 1,8,-1
 179 614 l 1,9,-1
 179 403 l 1,10,-1
 468 403 l 1,11,-1
 468 308 l 1,12,-1
 179 308 l 1,13,-1
 179 96 l 1,14,-1
 509 96 l 1,15,-1
 509 0 l 1,16,17
 431 -27 431 -27 431 -60 c 0,18,19
 431 -73 431 -73 443.5 -81 c 128,-1,20
 456 -89 456 -89 478 -89 c 2,21,-1
 509 -89 l 1,22,-1
 509 -180 l 1,23,-1
 460 -180 l 2,24,0
 400 -180 400 -180 369 -155.5 c 128,-1,1
EndSplineSet
Validated: 1048577
Position2: "'cpsp' Capital Spacing in Latin lookup 0 subtable" dx=5 dy=0 dh=10 dv=0
EndChar

StartChar: F.ss01
Encoding: 65554 -1 153
Width: 554
GlyphClass: 2
Flags: W
AnchorPoint: "Anchor-4" 270 710 basechar 0
AnchorPoint: "Anchor-3" 270 0 basechar 0
LayerCount: 2
Fore
SplineSet
68 0 m 1,0,-1
 68 710 l 1,1,-1
 503 710 l 1,2,-1
 503 613 l 1,3,-1
 179 613 l 1,4,-1
 179 401 l 1,5,-1
 468 401 l 1,6,-1
 468 306 l 1,7,-1
 179 306 l 1,8,-1
 179 0 l 1,9,-1
 68 0 l 1,0,-1
EndSplineSet
Validated: 1048577
Position2: "'cpsp' Capital Spacing in Latin lookup 0 subtable" dx=5 dy=0 dh=10 dv=0
EndChar

StartChar: G.ss01
Encoding: 65555 -1 154
Width: 795
GlyphClass: 2
Flags: W
AnchorPoint: "Anchor-4" 394 732 basechar 0
AnchorPoint: "Anchor-3" 388 0 basechar 0
LayerCount: 2
Fore
SplineSet
208.5 33 m 128,-1,1
 132 76 132 76 86.5 159 c 128,-1,2
 41 242 41 242 41 356 c 0,3,4
 41 469 41 469 89 551.5 c 128,-1,5
 137 634 137 634 217.5 677 c 128,-1,6
 298 720 298 720 394 720 c 0,7,8
 485 720 485 720 555.5 688 c 128,-1,9
 626 656 626 656 669.5 600.5 c 128,-1,10
 713 545 713 545 727 476 c 1,11,-1
 608 476 l 1,12,13
 593 537 593 537 539 580.5 c 128,-1,14
 485 624 485 624 395 624 c 0,15,16
 329 624 329 624 274 594 c 128,-1,17
 219 564 219 564 186.5 503.5 c 128,-1,18
 154 443 154 443 154 356 c 0,19,20
 154 268 154 268 186.5 207.5 c 128,-1,21
 219 147 219 147 274 116.5 c 128,-1,22
 329 86 329 86 395 86 c 0,23,24
 455 86 455 86 507.5 111.5 c 128,-1,25
 560 137 560 137 592 182 c 128,-1,26
 624 227 624 227 625 283 c 1,27,-1
 369 283 l 1,28,-1
 369 375 l 1,29,-1
 728 375 l 1,30,-1
 728 0 l 1,31,-1
 648 0 l 1,32,-1
 639 122 l 1,33,34
 596 60 596 60 529.5 25 c 128,-1,35
 463 -10 463 -10 379 -10 c 0,36,0
 285 -10 285 -10 208.5 33 c 128,-1,1
EndSplineSet
Validated: 1048577
Position2: "'cpsp' Capital Spacing in Latin lookup 0 subtable" dx=5 dy=0 dh=10 dv=0
EndChar

StartChar: M.ss01
Encoding: 65560 -1 159
Width: 897
GlyphClass: 2
Flags: W
AnchorPoint: "Anchor-4" 448 710 basechar 0
AnchorPoint: "Anchor-3" 448 0 basechar 0
LayerCount: 2
Fore
SplineSet
68 0 m 1,0,-1
 68 710 l 1,1,-1
 269 710 l 1,2,-1
 398 246 l 1,3,-1
 437 102 l 1,4,-1
 460 102 l 1,5,-1
 498 246 l 1,6,-1
 628 710 l 1,7,-1
 829 710 l 1,8,-1
 829 0 l 1,9,-1
 725 0 l 1,10,-1
 725 607 l 1,11,-1
 702 607 l 1,12,-1
 661 451 l 1,13,-1
 531 0 l 1,14,-1
 366 0 l 1,15,-1
 236 451 l 1,16,-1
 195 607 l 1,17,-1
 171 607 l 1,18,-1
 171 0 l 1,19,-1
 68 0 l 1,0,-1
EndSplineSet
Validated: 1048577
Position2: "'cpsp' Capital Spacing in Latin lookup 0 subtable" dx=5 dy=0 dh=10 dv=0
EndChar

StartChar: N.ss01
Encoding: 65561 -1 160
Width: 713
GlyphClass: 2
Flags: W
AnchorPoint: "Anchor-4" 356 732 basechar 0
AnchorPoint: "Anchor-3" 356 0 basechar 0
LayerCount: 2
Fore
SplineSet
68 710 m 1,0,-1
 258 710 l 1,1,-1
 451 261 l 1,2,-1
 513 108 l 1,3,-1
 540 108 l 1,4,-1
 540 710 l 1,5,-1
 645 710 l 1,6,-1
 645 0 l 1,7,-1
 455 0 l 1,8,-1
 262 449 l 1,9,-1
 200 602 l 1,10,-1
 173 602 l 1,11,-1
 173 0 l 1,12,-1
 68 0 l 1,13,-1
 68 710 l 1,0,-1
EndSplineSet
Validated: 1048577
Position2: "'cpsp' Capital Spacing in Latin lookup 0 subtable" dx=5 dy=0 dh=10 dv=0
EndChar

StartChar: Eng.aalt
Encoding: 65565 -1 164
Width: 713
GlyphClass: 2
Flags: W
AnchorPoint: "Anchor-4" 356 710 basechar 0
AnchorPoint: "Anchor-3" 356 0 basechar 0
LayerCount: 2
Fore
SplineSet
402 -89 m 1,0,-1
 540 -89 l 1,1,-1
 540 0 l 1,2,-1
 455 0 l 1,3,-1
 263 449 l 1,4,-1
 201 602 l 1,5,-1
 173 602 l 1,6,-1
 173 0 l 1,7,-1
 68 0 l 1,8,-1
 68 710 l 1,9,-1
 258 710 l 1,10,-1
 451 261 l 1,11,-1
 512 108 l 1,12,-1
 540 108 l 1,13,-1
 540 710 l 1,14,-1
 645 710 l 1,15,-1
 645 -110 l 2,16,17
 645 -141 645 -141 625.5 -160.5 c 128,-1,18
 606 -180 606 -180 575 -180 c 2,19,-1
 402 -180 l 1,20,-1
 402 -89 l 1,0,-1
EndSplineSet
Validated: 1048577
Position2: "'cpsp' Capital Spacing in Latin lookup 0 subtable" dx=5 dy=0 dh=10 dv=0
EndChar

StartChar: P.ss01
Encoding: 65567 -1 166
Width: 602
GlyphClass: 2
Flags: W
AnchorPoint: "Anchor-4" 290 710 basechar 0
AnchorPoint: "Anchor-3" 290 0 basechar 0
LayerCount: 2
Fore
SplineSet
68 710 m 1,0,-1
 346 710 l 2,1,2
 445 710 445 710 505.5 654.5 c 128,-1,3
 566 599 566 599 566 505 c 0,4,5
 566 404 566 404 507 349.5 c 128,-1,6
 448 295 448 295 350 295 c 2,7,-1
 179 295 l 1,8,-1
 179 0 l 1,9,-1
 68 0 l 1,10,-1
 68 710 l 1,0,-1
351 389 m 2,11,12
 403 389 403 389 428 420 c 128,-1,13
 453 451 453 451 453 505 c 0,14,15
 453 558 453 558 424.5 586.5 c 128,-1,16
 396 615 396 615 341 615 c 2,17,-1
 179 615 l 1,18,-1
 179 389 l 1,19,-1
 351 389 l 2,11,12
EndSplineSet
Validated: 1048577
Position2: "'cpsp' Capital Spacing in Latin lookup 0 subtable" dx=5 dy=0 dh=10 dv=0
EndChar

StartChar: Q.ss01
Encoding: 65568 -1 167
Width: 788
GlyphClass: 2
Flags: W
AnchorPoint: "Anchor-6" 774 710 basechar 0
AnchorPoint: "Anchor-5" 394 355 basechar 0
AnchorPoint: "Anchor-3" 394 0 basechar 0
LayerCount: 2
Fore
SplineSet
217 33.5 m 128,-1,1
 136 77 136 77 88 159.5 c 128,-1,2
 40 242 40 242 40 355 c 128,-1,3
 40 468 40 468 88 550.5 c 128,-1,4
 136 633 136 633 217 676.5 c 128,-1,5
 298 720 298 720 394 720 c 128,-1,6
 490 720 490 720 571 676.5 c 128,-1,7
 652 633 652 633 700 550.5 c 128,-1,8
 748 468 748 468 748 356 c 0,9,10
 748 274 748 274 722.5 207.5 c 128,-1,11
 697 141 697 141 650 93 c 1,12,-1
 777 -37 l 1,13,-1
 641 -37 l 1,14,-1
 572 34 l 1,15,16
 492 -10 492 -10 394 -10 c 0,17,0
 298 -10 298 -10 217 33.5 c 128,-1,1
185 208.5 m 128,-1,19
 217 148 217 148 272 117 c 128,-1,20
 327 86 327 86 394 86 c 0,21,22
 450 86 450 86 499 109 c 1,23,-1
 390 221 l 1,24,-1
 526 221 l 1,25,-1
 577 169 l 1,26,27
 635 242 635 242 635 356 c 0,28,29
 635 441 635 441 603 501.5 c 128,-1,30
 571 562 571 562 516 593 c 128,-1,31
 461 624 461 624 394 624 c 128,-1,32
 327 624 327 624 272.5 593 c 128,-1,33
 218 562 218 562 185.5 501 c 128,-1,34
 153 440 153 440 153 355 c 0,35,18
 153 269 153 269 185 208.5 c 128,-1,19
EndSplineSet
Validated: 1048577
Position2: "'cpsp' Capital Spacing in Latin lookup 0 subtable" dx=5 dy=0 dh=10 dv=0
EndChar

StartChar: R.ss01
Encoding: 65569 -1 168
Width: 651
GlyphClass: 2
Flags: W
AnchorPoint: "Anchor-4" 303 732 basechar 0
AnchorPoint: "Anchor-3" 313 0 basechar 0
LayerCount: 2
Fore
SplineSet
68 710 m 1,0,-1
 364 710 l 2,1,2
 463 710 463 710 524 655 c 128,-1,3
 585 600 585 600 585 505 c 0,4,5
 585 428 585 428 546 375 c 128,-1,6
 507 322 507 322 437 304 c 1,7,-1
 484 228 l 1,8,-1
 622 0 l 1,9,-1
 493 0 l 1,10,-1
 322 296 l 1,11,-1
 179 296 l 1,12,-1
 179 0 l 1,13,-1
 68 0 l 1,14,-1
 68 710 l 1,0,-1
370 389 m 2,15,16
 422 389 422 389 447 420 c 128,-1,17
 472 451 472 451 472 506 c 0,18,19
 472 559 472 559 443 587 c 128,-1,20
 414 615 414 615 359 615 c 2,21,-1
 179 615 l 1,22,-1
 179 389 l 1,23,-1
 370 389 l 2,15,16
EndSplineSet
Validated: 1048577
Position2: "'cpsp' Capital Spacing in Latin lookup 0 subtable" dx=5 dy=0 dh=10 dv=0
EndChar

StartChar: uni1E9E.aalt
Encoding: 65573 -1 172
Width: 617
GlyphClass: 2
Flags: W
AnchorPoint: "Anchor-4" 309 710 basechar 0
AnchorPoint: "Anchor-3" 309 0 basechar 0
LayerCount: 2
Fore
SplineSet
68 710 m 1,0,-1
 545 710 l 1,1,-1
 545 616 l 1,2,-1
 386 405 l 1,3,4
 477 395 477 395 529 341.5 c 128,-1,5
 581 288 581 288 581 204 c 0,6,7
 581 145 581 145 553.5 98.5 c 128,-1,8
 526 52 526 52 476.5 26 c 128,-1,9
 427 0 427 0 363 0 c 2,10,-1
 271 0 l 1,11,-1
 271 95 l 1,12,-1
 351 95 l 2,13,14
 409 95 409 95 439 125.5 c 128,-1,15
 469 156 469 156 469 204 c 128,-1,16
 469 252 469 252 439 282 c 128,-1,17
 409 312 409 312 351 312 c 2,18,-1
 271 312 l 1,19,-1
 271 406 l 1,20,-1
 424 611 l 1,21,-1
 424 616 l 1,22,-1
 177 616 l 1,23,-1
 177 0 l 1,24,-1
 68 0 l 1,25,-1
 68 710 l 1,0,-1
EndSplineSet
Validated: 1048577
Position2: "'cpsp' Capital Spacing in Latin lookup 0 subtable" dx=5 dy=0 dh=10 dv=0
EndChar

StartChar: G.ss10
Encoding: 65574 -1 173
Width: 773
GlyphClass: 2
Flags: W
AnchorPoint: "Anchor-4" 384 732 basechar 0
AnchorPoint: "Anchor-3" 402 0 basechar 0
LayerCount: 2
Fore
SplineSet
199 45.5 m 128,-1,1
 122 91 122 91 81 171.5 c 128,-1,2
 40 252 40 252 40 356 c 0,3,4
 40 469 40 469 86 551.5 c 128,-1,5
 132 634 132 634 210.5 677 c 128,-1,6
 289 720 289 720 384 720 c 0,7,8
 474 720 474 720 542 687.5 c 128,-1,9
 610 655 610 655 651 599.5 c 128,-1,10
 692 544 692 544 705 476 c 1,11,-1
 586 476 l 1,12,13
 571 539 571 539 521.5 581.5 c 128,-1,14
 472 624 472 624 384 624 c 0,15,16
 318 624 318 624 265.5 593 c 128,-1,17
 213 562 213 562 183 501.5 c 128,-1,18
 153 441 153 441 153 356 c 0,19,20
 153 235 153 235 213.5 165 c 128,-1,21
 274 95 274 95 384 95 c 2,22,-1
 599 95 l 1,23,-1
 599 282 l 1,24,-1
 361 282 l 1,25,-1
 361 375 l 1,26,-1
 706 375 l 1,27,-1
 706 67 l 2,28,29
 706 38 706 38 687 19 c 128,-1,30
 668 0 668 0 639 0 c 2,31,-1
 381 0 l 2,32,0
 276 0 276 0 199 45.5 c 128,-1,1
EndSplineSet
Validated: 1048577
Position2: "'cpsp' Capital Spacing in Latin lookup 0 subtable" dx=5 dy=0 dh=10 dv=0
EndChar

StartChar: glyph178
Encoding: 65579 -1 178
Width: 776
GlyphClass: 2
Flags: W
AnchorPoint: "Anchor-4" 394 732 basechar 0
AnchorPoint: "Anchor-3" 395 0 basechar 0
LayerCount: 2
Fore
SplineSet
216.5 33 m 128,-1,1
 136 76 136 76 88.5 159 c 128,-1,2
 41 242 41 242 41 356 c 0,3,4
 41 469 41 469 89 551.5 c 128,-1,5
 137 634 137 634 217.5 677 c 128,-1,6
 298 720 298 720 394 720 c 0,7,8
 485 720 485 720 555.5 688 c 128,-1,9
 626 656 626 656 669.5 600.5 c 128,-1,10
 713 545 713 545 727 476 c 1,11,-1
 608 476 l 1,12,13
 593 537 593 537 539 580.5 c 128,-1,14
 485 624 485 624 395 624 c 0,15,16
 329 624 329 624 274 594 c 128,-1,17
 219 564 219 564 186.5 503.5 c 128,-1,18
 154 443 154 443 154 356 c 0,19,20
 154 268 154 268 186.5 207.5 c 128,-1,21
 219 147 219 147 274 116.5 c 128,-1,22
 329 86 329 86 395 86 c 0,23,24
 503 86 503 86 560 132.5 c 128,-1,25
 617 179 617 179 617 270 c 2,26,-1
 617 283 l 1,27,-1
 369 283 l 1,28,-1
 369 375 l 1,29,-1
 728 375 l 1,30,-1
 728 279 l 2,31,32
 728 195 728 195 687 129.5 c 128,-1,33
 646 64 646 64 570.5 27 c 128,-1,34
 495 -10 495 -10 395 -10 c 0,35,0
 297 -10 297 -10 216.5 33 c 128,-1,1
EndSplineSet
Validated: 1048577
Position2: "'cpsp' Capital Spacing in Latin lookup 0 subtable" dx=5 dy=0 dh=10 dv=0
EndChar

StartChar: a.dnom
Encoding: 65584 -1 183
Width: 335
GlyphClass: 2
Flags: W
AnchorPoint: "Anchor-4" 164 530 basechar 0
AnchorPoint: "Anchor-3" 164 0 basechar 0
LayerCount: 2
Fore
SplineSet
48 22 m 128,-1,1
 19 44 19 44 19 85 c 0,2,3
 19 130 19 130 48.5 148.5 c 128,-1,4
 78 167 78 167 139 172 c 2,5,-1
 223 179 l 1,6,-1
 223 197 l 2,7,8
 223 243 223 243 168 243 c 0,9,10
 142 243 142 243 128 232.5 c 128,-1,11
 114 222 114 222 112 200 c 1,12,-1
 33 200 l 1,13,14
 34 250 34 250 72 274.5 c 128,-1,15
 110 299 110 299 170 299 c 0,16,17
 231 299 231 299 266.5 272.5 c 128,-1,18
 302 246 302 246 302 192 c 2,19,-1
 302 42 l 2,20,21
 302 24 302 24 289.5 12 c 128,-1,22
 277 0 277 0 258 0 c 2,23,-1
 125 0 l 2,24,0
 77 0 77 0 48 22 c 128,-1,1
112.5 60.5 m 128,-1,26
 124 53 124 53 146 53 c 2,27,-1
 223 53 l 1,28,-1
 223 129 l 1,29,-1
 157 122 l 2,30,31
 130 119 130 119 115.5 111.5 c 128,-1,32
 101 104 101 104 101 87 c 0,33,25
 101 68 101 68 112.5 60.5 c 128,-1,26
EndSplineSet
Validated: 1048577
Substitution2: "'ss01' Style Set 1 in Latin lookup 27 subtable" a.dnom.ss01
Substitution2: "'aalt' Access All Alternates in Latin lookup 0 subtable" a.dnom.ss01
EndChar

StartChar: b.dnom
Encoding: 65585 -1 184
Width: 361
GlyphClass: 2
Flags: W
AnchorPoint: "Anchor-5" 185 265 basechar 0
AnchorPoint: "Anchor-4" 185 530 basechar 0
AnchorPoint: "Anchor-3" 185 0 basechar 0
LayerCount: 2
Fore
SplineSet
51.5 12 m 128,-1,1
 39 24 39 24 39 42 c 2,2,-1
 39 392 l 1,3,-1
 121 392 l 1,4,-1
 121 293 l 1,5,-1
 196 293 l 2,6,7
 259 293 259 293 299.5 253 c 128,-1,8
 340 213 340 213 340 146 c 0,9,10
 340 80 340 80 299.5 40 c 128,-1,11
 259 0 259 0 196 0 c 2,12,-1
 83 0 l 2,13,0
 64 0 64 0 51.5 12 c 128,-1,1
178 63 m 2,14,15
 216 63 216 63 235.5 84.5 c 128,-1,16
 255 106 255 106 255 146 c 0,17,18
 255 187 255 187 235 208.5 c 128,-1,19
 215 230 215 230 178 230 c 2,20,-1
 121 230 l 1,21,-1
 121 63 l 1,22,-1
 178 63 l 2,14,15
EndSplineSet
Validated: 1048577
Substitution2: "'ss04' Style Set 4 in Latin lookup 31 subtable" b.dnom.ss01
Substitution2: "'ss01' Style Set 1 in Latin lookup 27 subtable" b.dnom.ss01
Substitution2: "'aalt' Access All Alternates in Latin lookup 0 subtable" b.dnom.ss01
EndChar

StartChar: c.dnom
Encoding: 65586 -1 185
Width: 351
GlyphClass: 2
Flags: W
AnchorPoint: "Anchor-4" 176 530 basechar 0
AnchorPoint: "Anchor-3" 176 0 basechar 0
LayerCount: 2
Fore
SplineSet
67 35 m 128,-1,1
 21 76 21 76 21 146 c 0,2,3
 21 217 21 217 66.5 258 c 128,-1,4
 112 299 112 299 181 299 c 0,5,6
 244 299 244 299 284 267.5 c 128,-1,7
 324 236 324 236 334 187 c 1,8,-1
 249 187 l 1,9,10
 243 208 243 208 226.5 222.5 c 128,-1,11
 210 237 210 237 181 237 c 0,12,13
 147 237 147 237 125.5 214 c 128,-1,14
 104 191 104 191 104 146 c 0,15,16
 104 102 104 102 125.5 78.5 c 128,-1,17
 147 55 147 55 181 55 c 0,18,19
 210 55 210 55 226.5 69.5 c 128,-1,20
 243 84 243 84 249 105 c 1,21,-1
 334 105 l 1,22,23
 324 57 324 57 283.5 25.5 c 128,-1,24
 243 -6 243 -6 181 -6 c 0,25,0
 113 -6 113 -6 67 35 c 128,-1,1
EndSplineSet
Validated: 1048577
EndChar

StartChar: d.dnom
Encoding: 65587 -1 186
Width: 361
GlyphClass: 2
Flags: W
AnchorPoint: "Anchor-6" 333 710 basechar 0
AnchorPoint: "Anchor-5" 176 265 basechar 0
AnchorPoint: "Anchor-4" 176 710 basechar 0
AnchorPoint: "Anchor-3" 176 0 basechar 0
LayerCount: 2
Fore
SplineSet
61 40 m 128,-1,1
 20 80 20 80 20 146 c 0,2,3
 20 213 20 213 60.5 253 c 128,-1,4
 101 293 101 293 165 293 c 2,5,-1
 239 293 l 1,6,-1
 239 392 l 1,7,-1
 322 392 l 1,8,-1
 322 42 l 2,9,10
 322 24 322 24 309 12 c 128,-1,11
 296 0 296 0 278 0 c 2,12,-1
 165 0 l 2,13,0
 102 0 102 0 61 40 c 128,-1,1
124.5 84 m 128,-1,15
 144 63 144 63 182 63 c 2,16,-1
 239 63 l 1,17,-1
 239 230 l 1,18,-1
 182 230 l 2,19,20
 145 230 145 230 125 208 c 128,-1,21
 105 186 105 186 105 146 c 0,22,14
 105 105 105 105 124.5 84 c 128,-1,15
EndSplineSet
Validated: 1
Substitution2: "'ss04' Style Set 4 in Latin lookup 31 subtable" d.dnom.ss01
Substitution2: "'ss01' Style Set 1 in Latin lookup 27 subtable" d.dnom.ss01
Substitution2: "'aalt' Access All Alternates in Latin lookup 0 subtable" d.dnom.ss01
EndChar

StartChar: e.dnom
Encoding: 65588 -1 187
Width: 359
GlyphClass: 2
Flags: W
AnchorPoint: "Anchor-4" 180 530 basechar 0
AnchorPoint: "Anchor-3" 180 0 basechar 0
LayerCount: 2
Fore
SplineSet
65 36 m 128,-1,1
 21 78 21 78 21 146 c 0,2,3
 21 213 21 213 65.5 256 c 128,-1,4
 110 299 110 299 179 299 c 0,5,6
 227 299 227 299 264.5 278.5 c 128,-1,7
 302 258 302 258 322 219 c 128,-1,8
 342 180 342 180 338 127 c 1,9,-1
 104 127 l 1,10,11
 109 92 109 92 129 72.5 c 128,-1,12
 149 53 149 53 180 53 c 0,13,14
 228 53 228 53 244 95 c 1,15,-1
 330 95 l 1,16,17
 317 49 317 49 276.5 21.5 c 128,-1,18
 236 -6 236 -6 179 -6 c 0,19,0
 109 -6 109 -6 65 36 c 128,-1,1
254 179 m 1,20,21
 248 209 248 209 228.5 226.5 c 128,-1,22
 209 244 209 244 179 244 c 0,23,24
 151 244 151 244 132 226 c 128,-1,25
 113 208 113 208 106 179 c 1,26,-1
 254 179 l 1,20,21
EndSplineSet
Validated: 1048609
EndChar

StartChar: f.dnom
Encoding: 65589 -1 188
Width: 215
GlyphClass: 2
Flags: W
AnchorPoint: "Anchor-4" 108 710 basechar 0
AnchorPoint: "Anchor-3" 108 0 basechar 0
LayerCount: 2
Fore
SplineSet
66.5 380.5 m 128,-1,1
 79 392 79 392 98 392 c 2,2,-1
 204 392 l 1,3,-1
 204 331 l 1,4,-1
 136 331 l 1,5,-1
 136 293 l 1,6,-1
 204 293 l 1,7,-1
 204 229 l 1,8,-1
 136 229 l 1,9,-1
 136 0 l 1,10,-1
 54 0 l 1,11,-1
 54 229 l 1,12,-1
 11 229 l 1,13,-1
 11 293 l 1,14,-1
 54 293 l 1,15,-1
 54 350 l 2,16,0
 54 369 54 369 66.5 380.5 c 128,-1,1
EndSplineSet
Validated: 1048577
EndChar

StartChar: g.dnom
Encoding: 65590 -1 189
Width: 361
GlyphClass: 2
Flags: W
AnchorPoint: "Anchor-4" 175 530 basechar 0
AnchorPoint: "Anchor-3" 175 -180 basechar 0
LayerCount: 2
Fore
SplineSet
60 -38 m 1,0,-1
 238 -38 l 1,1,-1
 238 6 l 1,2,-1
 164 6 l 2,3,4
 101 6 101 6 60.5 45.5 c 128,-1,5
 20 85 20 85 20 148 c 0,6,7
 20 213 20 213 60.5 253 c 128,-1,8
 101 293 101 293 164 293 c 2,9,-1
 278 293 l 2,10,11
 296 293 296 293 309 280.5 c 128,-1,12
 322 268 322 268 322 250 c 2,13,-1
 322 -56 l 2,14,15
 322 -75 322 -75 308.5 -87 c 128,-1,16
 295 -99 295 -99 275 -99 c 2,17,-1
 60 -99 l 1,18,-1
 60 -38 l 1,0,-1
124.5 89.5 m 128,-1,20
 144 68 144 68 181 68 c 2,21,-1
 238 68 l 1,22,-1
 238 230 l 1,23,-1
 181 230 l 2,24,25
 145 230 145 230 125 208.5 c 128,-1,26
 105 187 105 187 105 148 c 0,27,19
 105 111 105 111 124.5 89.5 c 128,-1,20
EndSplineSet
Validated: 1048577
Substitution2: "'ss04' Style Set 4 in Latin lookup 31 subtable" g.dnom.ss01
Substitution2: "'ss01' Style Set 1 in Latin lookup 27 subtable" g.dnom.ss01
Substitution2: "'aalt' Access All Alternates in Latin lookup 0 subtable" g.dnom.ss01
EndChar

StartChar: h.dnom
Encoding: 65591 -1 190
Width: 352
GlyphClass: 2
Flags: W
AnchorPoint: "Anchor-5" 177 355 basechar 0
AnchorPoint: "Anchor-4" 177 710 basechar 0
AnchorPoint: "Anchor-3" 177 0 basechar 0
LayerCount: 2
Fore
SplineSet
175 230 m 2,0,-1
 122 230 l 1,1,-1
 122 0 l 1,2,-1
 40 0 l 1,3,-1
 40 392 l 1,4,-1
 122 392 l 1,5,-1
 122 293 l 1,6,-1
 205 293 l 2,7,8
 254 293 254 293 286 263 c 128,-1,9
 318 233 318 233 318 180 c 2,10,-1
 318 0 l 1,11,-1
 236 0 l 1,12,-1
 236 173 l 2,13,14
 236 230 236 230 175 230 c 2,0,-1
EndSplineSet
Validated: 1048577
Substitution2: "'ss05' Style Set 5 in Latin lookup 32 subtable" h.dnom.ss01
Substitution2: "'ss01' Style Set 1 in Latin lookup 27 subtable" h.dnom.ss01
Substitution2: "'aalt' Access All Alternates in Latin lookup 0 subtable" h.dnom.ss01
EndChar

StartChar: i.dnom
Encoding: 65592 -1 191
Width: 162
GlyphClass: 2
Flags: W
AnchorPoint: "Anchor-3" 81 0 basechar 0
LayerCount: 2
Fore
SplineSet
40 293 m 1,0,-1
 122 293 l 1,1,-1
 122 0 l 1,2,-1
 40 0 l 1,3,-1
 40 293 l 1,0,-1
40 392 m 1,4,-1
 122 392 l 1,5,-1
 122 329 l 1,6,-1
 40 329 l 1,7,-1
 40 392 l 1,4,-1
EndSplineSet
Validated: 1048577
EndChar

StartChar: j.dnom
Encoding: 65593 -1 192
Width: 162
GlyphClass: 1
Flags: W
LayerCount: 2
Fore
SplineSet
-28 -38 m 1,0,-1
 40 -38 l 1,1,-1
 40 293 l 1,2,-1
 122 293 l 1,3,-1
 122 -56 l 2,4,5
 122 -75 122 -75 109.5 -87 c 128,-1,6
 97 -99 97 -99 77 -99 c 2,7,-1
 -28 -99 l 1,8,-1
 -28 -38 l 1,0,-1
40 392 m 1,9,-1
 122 392 l 1,10,-1
 122 329 l 1,11,-1
 40 329 l 1,12,-1
 40 392 l 1,9,-1
EndSplineSet
Validated: 1
EndChar

StartChar: k.dnom
Encoding: 65594 -1 193
Width: 337
GlyphClass: 2
Flags: W
AnchorPoint: "Anchor-4" 173 710 basechar 0
AnchorPoint: "Anchor-3" 173 0 basechar 0
LayerCount: 2
Fore
SplineSet
328 4 m 1,0,-1
 328 0 l 1,1,-1
 237 0 l 1,2,-1
 169 125 l 1,3,-1
 122 125 l 1,4,-1
 122 0 l 1,5,-1
 40 0 l 1,6,-1
 40 392 l 1,7,-1
 122 392 l 1,8,-1
 122 190 l 1,9,-1
 169 190 l 1,10,-1
 237 293 l 1,11,-1
 328 293 l 1,12,-1
 328 289 l 1,13,-1
 238 161 l 1,14,-1
 238 153 l 1,15,-1
 328 4 l 1,0,-1
EndSplineSet
Validated: 1048577
EndChar

StartChar: l.dnom
Encoding: 65595 -1 194
Width: 162
GlyphClass: 2
Flags: W
AnchorPoint: "Anchor-6" 135 710 basechar 0
AnchorPoint: "Anchor-5" 81 355 basechar 0
AnchorPoint: "Anchor-4" 81 710 basechar 0
AnchorPoint: "Anchor-3" 81 0 basechar 0
LayerCount: 2
Fore
SplineSet
40 0 m 1,0,-1
 40 392 l 1,1,-1
 122 392 l 1,2,-1
 122 0 l 1,3,-1
 40 0 l 1,0,-1
EndSplineSet
Validated: 1
EndChar

StartChar: m.dnom
Encoding: 65596 -1 195
Width: 520
GlyphClass: 2
Flags: W
AnchorPoint: "Anchor-4" 261 530 basechar 0
AnchorPoint: "Anchor-3" 261 0 basechar 0
LayerCount: 2
Fore
SplineSet
51.5 280.5 m 128,-1,1
 64 293 64 293 83 293 c 2,2,-1
 371 293 l 2,3,4
 421 293 421 293 453.5 262 c 128,-1,5
 486 231 486 231 486 178 c 2,6,-1
 486 0 l 1,7,-1
 404 0 l 1,8,-1
 404 173 l 2,9,10
 404 230 404 230 344 230 c 2,11,-1
 304 230 l 1,12,-1
 304 0 l 1,13,-1
 221 0 l 1,14,-1
 221 230 l 1,15,-1
 121 230 l 1,16,-1
 121 0 l 1,17,-1
 39 0 l 1,18,-1
 39 250 l 2,19,0
 39 268 39 268 51.5 280.5 c 128,-1,1
EndSplineSet
Validated: 1048577
Substitution2: "'ss05' Style Set 5 in Latin lookup 32 subtable" m.dnom.ss01
Substitution2: "'ss01' Style Set 1 in Latin lookup 27 subtable" m.dnom.ss01
Substitution2: "'aalt' Access All Alternates in Latin lookup 0 subtable" m.dnom.ss01
EndChar

StartChar: n.dnom
Encoding: 65597 -1 196
Width: 351
GlyphClass: 2
Flags: W
AnchorPoint: "Anchor-4" 176 530 basechar 0
AnchorPoint: "Anchor-3" 176 0 basechar 0
LayerCount: 2
Fore
SplineSet
51.5 280.5 m 128,-1,1
 64 293 64 293 83 293 c 2,2,-1
 201 293 l 2,3,4
 252 293 252 293 284.5 262 c 128,-1,5
 317 231 317 231 317 178 c 2,6,-1
 317 0 l 1,7,-1
 235 0 l 1,8,-1
 235 173 l 2,9,10
 235 230 235 230 175 230 c 2,11,-1
 121 230 l 1,12,-1
 121 0 l 1,13,-1
 39 0 l 1,14,-1
 39 250 l 2,15,0
 39 268 39 268 51.5 280.5 c 128,-1,1
EndSplineSet
Validated: 1048577
Substitution2: "'ss05' Style Set 5 in Latin lookup 32 subtable" n.dnom.ss01
Substitution2: "'ss01' Style Set 1 in Latin lookup 27 subtable" n.dnom.ss01
Substitution2: "'aalt' Access All Alternates in Latin lookup 0 subtable" n.dnom.ss01
EndChar

StartChar: o.dnom
Encoding: 65598 -1 197
Width: 362
GlyphClass: 2
Flags: W
AnchorPoint: "Anchor-6" 343 530 basechar 0
AnchorPoint: "Anchor-5" 181 265 basechar 0
AnchorPoint: "Anchor-4" 181 530 basechar 0
AnchorPoint: "Anchor-3" 181 0 basechar 0
LayerCount: 2
Fore
SplineSet
66.5 35 m 128,-1,1
 21 76 21 76 21 146 c 0,2,3
 21 217 21 217 66.5 258 c 128,-1,4
 112 299 112 299 181 299 c 256,5,6
 250 299 250 299 295.5 258 c 128,-1,7
 341 217 341 217 341 146 c 256,8,9
 341 75 341 75 295.5 34.5 c 128,-1,10
 250 -6 250 -6 181 -6 c 256,11,0
 112 -6 112 -6 66.5 35 c 128,-1,1
125.5 78.5 m 128,-1,13
 147 55 147 55 181 55 c 256,14,15
 215 55 215 55 237 78.5 c 128,-1,16
 259 102 259 102 259 146 c 256,17,18
 259 190 259 190 237 213.5 c 128,-1,19
 215 237 215 237 181 237 c 256,20,21
 147 237 147 237 125.5 214 c 128,-1,22
 104 191 104 191 104 146 c 0,23,12
 104 102 104 102 125.5 78.5 c 128,-1,13
EndSplineSet
Validated: 1
EndChar

StartChar: p.dnom
Encoding: 65599 -1 198
Width: 361
GlyphClass: 2
Flags: W
AnchorPoint: "Anchor-4" 185 530 basechar 0
AnchorPoint: "Anchor-3" 185 0 basechar 0
LayerCount: 2
Fore
SplineSet
51.5 280.5 m 128,-1,1
 64 293 64 293 83 293 c 2,2,-1
 196 293 l 2,3,4
 259 293 259 293 299.5 253 c 128,-1,5
 340 213 340 213 340 146 c 0,6,7
 340 80 340 80 299.5 40 c 128,-1,8
 259 0 259 0 196 0 c 2,9,-1
 121 0 l 1,10,-1
 121 -99 l 1,11,-1
 39 -99 l 1,12,-1
 39 250 l 2,13,0
 39 268 39 268 51.5 280.5 c 128,-1,1
178 63 m 2,14,15
 215 63 215 63 235 84.5 c 128,-1,16
 255 106 255 106 255 146 c 0,17,18
 255 187 255 187 235.5 208.5 c 128,-1,19
 216 230 216 230 178 230 c 2,20,-1
 121 230 l 1,21,-1
 121 63 l 1,22,-1
 178 63 l 2,14,15
EndSplineSet
Validated: 1048577
Substitution2: "'ss04' Style Set 4 in Latin lookup 31 subtable" p.dnom.ss01
Substitution2: "'ss01' Style Set 1 in Latin lookup 27 subtable" p.dnom.ss01
Substitution2: "'aalt' Access All Alternates in Latin lookup 0 subtable" p.dnom.ss01
EndChar

StartChar: q.dnom
Encoding: 65600 -1 199
Width: 361
GlyphClass: 2
Flags: W
AnchorPoint: "Anchor-4" 175 530 basechar 0
AnchorPoint: "Anchor-3" 175 0 basechar 0
LayerCount: 2
Fore
SplineSet
239 0 m 1,0,-1
 165 0 l 2,1,2
 102 0 102 0 61 40 c 128,-1,3
 20 80 20 80 20 146 c 0,4,5
 20 213 20 213 60.5 253 c 128,-1,6
 101 293 101 293 165 293 c 2,7,-1
 278 293 l 2,8,9
 296 293 296 293 309 280.5 c 128,-1,10
 322 268 322 268 322 250 c 2,11,-1
 322 -99 l 1,12,-1
 239 -99 l 1,13,-1
 239 0 l 1,0,-1
125 84.5 m 128,-1,15
 145 63 145 63 182 63 c 2,16,-1
 239 63 l 1,17,-1
 239 230 l 1,18,-1
 182 230 l 2,19,20
 144 230 144 230 124.5 208.5 c 128,-1,21
 105 187 105 187 105 146 c 0,22,14
 105 106 105 106 125 84.5 c 128,-1,15
EndSplineSet
Validated: 1048577
Substitution2: "'ss04' Style Set 4 in Latin lookup 31 subtable" q.dnom.ss01
Substitution2: "'ss01' Style Set 1 in Latin lookup 27 subtable" q.dnom.ss01
Substitution2: "'aalt' Access All Alternates in Latin lookup 0 subtable" q.dnom.ss01
EndChar

StartChar: r.dnom
Encoding: 65601 -1 200
Width: 212
GlyphClass: 2
Flags: W
AnchorPoint: "Anchor-4" 109 530 basechar 0
AnchorPoint: "Anchor-3" 109 0 basechar 0
LayerCount: 2
Fore
SplineSet
51.5 281.5 m 128,-1,1
 64 293 64 293 83 293 c 2,2,-1
 201 293 l 1,3,-1
 201 229 l 1,4,-1
 122 229 l 1,5,-1
 122 0 l 1,6,-1
 39 0 l 1,7,-1
 39 250 l 2,8,0
 39 270 39 270 51.5 281.5 c 128,-1,1
EndSplineSet
Validated: 1048577
Substitution2: "'ss05' Style Set 5 in Latin lookup 32 subtable" r.dnom.ss01
Substitution2: "'ss01' Style Set 1 in Latin lookup 27 subtable" r.dnom.ss01
Substitution2: "'aalt' Access All Alternates in Latin lookup 0 subtable" r.dnom.ss01
EndChar

StartChar: s.dnom
Encoding: 65602 -1 201
Width: 320
GlyphClass: 2
Flags: W
AnchorPoint: "Anchor-4" 160 530 basechar 0
AnchorPoint: "Anchor-3" 160 0 basechar 0
LayerCount: 2
Fore
SplineSet
60 19.5 m 128,-1,1
 23 45 23 45 20 95 c 1,2,-1
 103 95 l 1,3,4
 106 69 106 69 121.5 59 c 128,-1,5
 137 49 137 49 162 49 c 0,6,7
 216 49 216 49 216 81 c 0,8,9
 216 98 216 98 198 106 c 128,-1,10
 180 114 180 114 143 122 c 0,11,12
 107 130 107 130 84 137.5 c 128,-1,13
 61 145 61 145 44.5 162.5 c 128,-1,14
 28 180 28 180 28 209 c 0,15,16
 28 252 28 252 63.5 275.5 c 128,-1,17
 99 299 99 299 159 299 c 0,18,19
 221 299 221 299 255.5 273.5 c 128,-1,20
 290 248 290 248 293 200 c 1,21,-1
 212 200 l 1,22,23
 208 245 208 245 157 245 c 0,24,25
 136 245 136 245 122.5 237.5 c 128,-1,26
 109 230 109 230 109 216 c 0,27,28
 109 201 109 201 126 193.5 c 128,-1,29
 143 186 143 186 180 177 c 0,30,31
 236 163 236 163 267.5 145 c 128,-1,32
 299 127 299 127 299 87 c 0,33,34
 299 43 299 43 261 18.5 c 128,-1,35
 223 -6 223 -6 160 -6 c 128,-1,0
 97 -6 97 -6 60 19.5 c 128,-1,1
EndSplineSet
Validated: 1048577
EndChar

StartChar: t.dnom
Encoding: 65603 -1 202
Width: 218
GlyphClass: 2
Flags: W
AnchorPoint: "Anchor-6" 195 710 basechar 0
AnchorPoint: "Anchor-5" 105 265 basechar 0
AnchorPoint: "Anchor-4" 105 530 basechar 0
AnchorPoint: "Anchor-3" 105 0 basechar 0
LayerCount: 2
Fore
SplineSet
197 229 m 1,0,-1
 136 229 l 1,1,-1
 136 61 l 1,2,-1
 197 61 l 1,3,-1
 197 0 l 1,4,-1
 98 0 l 2,5,6
 79 0 79 0 66.5 12 c 128,-1,7
 54 24 54 24 54 42 c 2,8,-1
 54 229 l 1,9,-1
 11 229 l 1,10,-1
 11 293 l 1,11,-1
 54 293 l 1,12,-1
 54 367 l 1,13,-1
 136 367 l 1,14,-1
 136 293 l 1,15,-1
 197 293 l 1,16,-1
 197 229 l 1,0,-1
EndSplineSet
Validated: 1
EndChar

StartChar: u.dnom
Encoding: 65604 -1 203
Width: 340
GlyphClass: 2
Flags: W
AnchorPoint: "Anchor-6" 319 530 basechar 0
AnchorPoint: "Anchor-4" 170 530 basechar 0
AnchorPoint: "Anchor-3" 172 0 basechar 0
LayerCount: 2
Fore
SplineSet
293.5 12.5 m 128,-1,1
 281 0 281 0 262 0 c 2,2,-1
 149 0 l 2,3,4
 98 0 98 0 66 31 c 128,-1,5
 34 62 34 62 34 115 c 2,6,-1
 34 293 l 1,7,-1
 116 293 l 1,8,-1
 116 120 l 2,9,10
 116 63 116 63 175 63 c 2,11,-1
 224 63 l 1,12,-1
 224 293 l 1,13,-1
 306 293 l 1,14,-1
 306 43 l 2,15,0
 306 25 306 25 293.5 12.5 c 128,-1,1
EndSplineSet
Validated: 1048577
Substitution2: "'ss05' Style Set 5 in Latin lookup 32 subtable" u.dnom.ss01
Substitution2: "'ss01' Style Set 1 in Latin lookup 27 subtable" u.dnom.ss01
Substitution2: "'aalt' Access All Alternates in Latin lookup 0 subtable" u.dnom.ss01
EndChar

StartChar: v.dnom
Encoding: 65605 -1 204
Width: 333
GlyphClass: 2
Flags: W
AnchorPoint: "Anchor-4" 167 530 basechar 0
AnchorPoint: "Anchor-3" 167 0 basechar 0
LayerCount: 2
Fore
SplineSet
8 287 m 1,0,-1
 8 293 l 1,1,-1
 95 293 l 1,2,-1
 143 129 l 1,3,-1
 161 65 l 1,4,-1
 173 65 l 1,5,-1
 192 129 l 1,6,-1
 239 293 l 1,7,-1
 324 293 l 1,8,-1
 324 287 l 1,9,-1
 226 0 l 1,10,-1
 108 0 l 1,11,-1
 8 287 l 1,0,-1
EndSplineSet
Validated: 1048577
EndChar

StartChar: w.dnom
Encoding: 65606 -1 205
Width: 541
GlyphClass: 2
Flags: W
AnchorPoint: "Anchor-4" 271 530 basechar 0
AnchorPoint: "Anchor-3" 271 0 basechar 0
LayerCount: 2
Fore
SplineSet
10 287 m 1,0,-1
 10 293 l 1,1,-1
 92 293 l 1,2,-1
 133 129 l 1,3,-1
 148 65 l 1,4,-1
 160 65 l 1,5,-1
 173 129 l 1,6,-1
 213 293 l 1,7,-1
 329 293 l 1,8,-1
 368 129 l 1,9,-1
 382 65 l 1,10,-1
 394 65 l 1,11,-1
 408 129 l 1,12,-1
 450 293 l 1,13,-1
 532 293 l 1,14,-1
 532 287 l 1,15,-1
 444 0 l 1,16,-1
 328 0 l 1,17,-1
 291 164 l 1,18,-1
 277 228 l 1,19,-1
 265 228 l 1,20,-1
 250 164 l 1,21,-1
 213 0 l 1,22,-1
 97 0 l 1,23,-1
 10 287 l 1,0,-1
EndSplineSet
Validated: 1048577
EndChar

StartChar: x.dnom
Encoding: 65607 -1 206
Width: 342
GlyphClass: 2
Flags: W
AnchorPoint: "Anchor-4" 172 530 basechar 0
AnchorPoint: "Anchor-3" 172 0 basechar 0
LayerCount: 2
Fore
SplineSet
333 4 m 1,0,-1
 333 0 l 1,1,-1
 244 0 l 1,2,-1
 181 115 l 1,3,-1
 161 115 l 1,4,-1
 98 0 l 1,5,-1
 10 0 l 1,6,-1
 10 4 l 1,7,-1
 93 144 l 1,8,-1
 93 155 l 1,9,-1
 10 289 l 1,10,-1
 10 293 l 1,11,-1
 98 293 l 1,12,-1
 161 179 l 1,13,-1
 181 179 l 1,14,-1
 244 293 l 1,15,-1
 333 293 l 1,16,-1
 333 289 l 1,17,-1
 249 155 l 1,18,-1
 249 144 l 1,19,-1
 333 4 l 1,0,-1
EndSplineSet
Validated: 1048577
EndChar

StartChar: y.dnom
Encoding: 65608 -1 207
Width: 333
GlyphClass: 2
Flags: W
AnchorPoint: "Anchor-4" 167 530 basechar 0
AnchorPoint: "Anchor-3" 167 0 basechar 0
LayerCount: 2
Fore
SplineSet
52 -38 m 1,0,-1
 146 -38 l 1,1,-1
 155 5 l 1,2,-1
 106 5 l 1,3,-1
 8 288 l 1,4,-1
 8 293 l 1,5,-1
 95 293 l 1,6,-1
 143 129 l 1,7,-1
 161 65 l 1,8,-1
 173 65 l 1,9,-1
 191 129 l 1,10,-1
 239 293 l 1,11,-1
 324 293 l 1,12,-1
 324 288 l 1,13,-1
 207 -60 l 2,14,15
 194 -99 194 -99 151 -99 c 2,16,-1
 52 -99 l 1,17,-1
 52 -38 l 1,0,-1
EndSplineSet
Validated: 1048577
EndChar

StartChar: z.dnom
Encoding: 65609 -1 208
Width: 299
GlyphClass: 2
Flags: W
AnchorPoint: "Anchor-5" 149 265 basechar 0
AnchorPoint: "Anchor-4" 149 530 basechar 0
AnchorPoint: "Anchor-3" 149 0 basechar 0
LayerCount: 2
Fore
SplineSet
20 57 m 1,0,-1
 178 229 l 1,1,-1
 25 229 l 1,2,-1
 25 293 l 1,3,-1
 276 293 l 1,4,-1
 276 235 l 1,5,-1
 119 64 l 1,6,-1
 278 64 l 1,7,-1
 278 0 l 1,8,-1
 20 0 l 1,9,-1
 20 57 l 1,0,-1
EndSplineSet
Validated: 1048577
EndChar

StartChar: a.dnom.ss01
Encoding: 65636 -1 235
Width: 337
GlyphClass: 2
Flags: W
AnchorPoint: "Anchor-4" 165 530 basechar 0
AnchorPoint: "Anchor-3" 165 0 basechar 0
LayerCount: 2
Fore
SplineSet
49.5 18.5 m 128,-1,1
 20 43 20 43 20 85 c 0,2,3
 20 130 20 130 49.5 148.5 c 128,-1,4
 79 167 79 167 140 172 c 2,5,-1
 224 179 l 1,6,-1
 224 197 l 2,7,8
 224 243 224 243 169 243 c 0,9,10
 143 243 143 243 129 232.5 c 128,-1,11
 115 222 115 222 113 200 c 1,12,-1
 34 200 l 1,13,14
 35 249 35 249 73 274 c 128,-1,15
 111 299 111 299 171 299 c 0,16,17
 232 299 232 299 267.5 272.5 c 128,-1,18
 303 246 303 246 303 192 c 2,19,-1
 303 0 l 1,20,-1
 230 0 l 1,21,-1
 224 34 l 1,22,23
 206 13 206 13 180.5 3.5 c 128,-1,24
 155 -6 155 -6 127 -6 c 0,25,0
 79 -6 79 -6 49.5 18.5 c 128,-1,1
152 49 m 0,26,27
 183 49 183 49 203.5 64.5 c 128,-1,28
 224 80 224 80 224 104 c 2,29,-1
 224 129 l 1,30,-1
 157 122 l 2,31,32
 128 119 128 119 115 110.5 c 128,-1,33
 102 102 102 102 102 86 c 0,34,35
 102 49 102 49 152 49 c 0,26,27
EndSplineSet
Validated: 1048577
Substitution2: "'ss02' Style Set 2 in Latin lookup 29 subtable" a.dnom.ss01.ss02
Substitution2: "'aalt' Access All Alternates in Latin lookup 0 subtable" a.dnom.ss01.ss02
EndChar

StartChar: b.dnom.ss01
Encoding: 65637 -1 236
Width: 379
GlyphClass: 2
Flags: W
AnchorPoint: "Anchor-5" 194 265 basechar 0
AnchorPoint: "Anchor-4" 194 530 basechar 0
AnchorPoint: "Anchor-3" 194 0 basechar 0
LayerCount: 2
Fore
SplineSet
163 5 m 128,-1,1
 137 16 137 16 120 37 c 1,2,-1
 120 0 l 1,3,-1
 40 0 l 1,4,-1
 40 392 l 1,5,-1
 122 392 l 1,6,-1
 122 258 l 1,7,8
 139 278 139 278 164.5 288.5 c 128,-1,9
 190 299 190 299 219 299 c 0,10,11
 257 299 257 299 289 280 c 128,-1,12
 321 261 321 261 339.5 226 c 128,-1,13
 358 191 358 191 358 146 c 128,-1,14
 358 101 358 101 339 66.5 c 128,-1,15
 320 32 320 32 288.5 13 c 128,-1,16
 257 -6 257 -6 219 -6 c 0,17,0
 189 -6 189 -6 163 5 c 128,-1,1
140.5 78.5 m 128,-1,19
 162 55 162 55 196 55 c 128,-1,20
 230 55 230 55 251.5 78.5 c 128,-1,21
 273 102 273 102 273 146 c 0,22,23
 273 191 273 191 251.5 214 c 128,-1,24
 230 237 230 237 196 237 c 128,-1,25
 162 237 162 237 140.5 214 c 128,-1,26
 119 191 119 191 119 146 c 0,27,18
 119 102 119 102 140.5 78.5 c 128,-1,19
EndSplineSet
Validated: 1048577
EndChar

StartChar: d.dnom.ss01
Encoding: 65638 -1 237
Width: 379
GlyphClass: 2
Flags: W
AnchorPoint: "Anchor-6" 348 710 basechar 0
AnchorPoint: "Anchor-5" 184 265 basechar 0
AnchorPoint: "Anchor-4" 184 710 basechar 0
AnchorPoint: "Anchor-3" 184 0 basechar 0
LayerCount: 2
Fore
SplineSet
90 13 m 128,-1,1
 58 32 58 32 39.5 66.5 c 128,-1,2
 21 101 21 101 21 146 c 256,3,4
 21 191 21 191 39.5 226 c 128,-1,5
 58 261 58 261 90.5 280 c 128,-1,6
 123 299 123 299 161 299 c 0,7,8
 190 299 190 299 214.5 289 c 128,-1,9
 239 279 239 279 256 259 c 1,10,-1
 256 392 l 1,11,-1
 339 392 l 1,12,-1
 339 0 l 1,13,-1
 259 0 l 1,14,-1
 259 37 l 1,15,16
 242 16 242 16 216 5 c 128,-1,17
 190 -6 190 -6 161 -6 c 0,18,0
 122 -6 122 -6 90 13 c 128,-1,1
128 78.5 m 128,-1,20
 150 55 150 55 183 55 c 0,21,22
 217 55 217 55 239 78.5 c 128,-1,23
 261 102 261 102 261 146 c 256,24,25
 261 190 261 190 239 213.5 c 128,-1,26
 217 237 217 237 183 237 c 256,27,28
 149 237 149 237 127.5 214 c 128,-1,29
 106 191 106 191 106 146 c 0,30,19
 106 102 106 102 128 78.5 c 128,-1,20
EndSplineSet
Validated: 1
EndChar

StartChar: g.dnom.ss01
Encoding: 65639 -1 238
Width: 378
GlyphClass: 2
Flags: W
AnchorPoint: "Anchor-4" 183 530 basechar 0
AnchorPoint: "Anchor-3" 183 -180 basechar 0
LayerCount: 2
Fore
SplineSet
63 -38 m 1,0,-1
 255 -38 l 1,1,-1
 255 49 l 1,2,3
 238 28 238 28 212.5 18.5 c 128,-1,4
 187 9 187 9 160 9 c 0,5,6
 99 9 99 9 59.5 50.5 c 128,-1,7
 20 92 20 92 20 154 c 128,-1,8
 20 216 20 216 60 257.5 c 128,-1,9
 100 299 100 299 160 299 c 0,10,11
 189 299 189 299 215 288 c 128,-1,12
 241 277 241 277 258 254 c 1,13,-1
 258 293 l 1,14,-1
 339 293 l 1,15,-1
 339 -56 l 2,16,17
 339 -75 339 -75 326 -87 c 128,-1,18
 313 -99 313 -99 293 -99 c 2,19,-1
 63 -99 l 1,20,-1
 63 -38 l 1,0,-1
126.5 93 m 128,-1,22
 148 70 148 70 183 70 c 0,23,24
 219 70 219 70 239.5 93 c 128,-1,25
 260 116 260 116 260 154 c 128,-1,26
 260 192 260 192 239.5 214.5 c 128,-1,27
 219 237 219 237 183 237 c 128,-1,28
 147 237 147 237 126 214 c 128,-1,29
 105 191 105 191 105 154 c 0,30,21
 105 116 105 116 126.5 93 c 128,-1,22
EndSplineSet
Validated: 1048577
EndChar

StartChar: h.dnom.ss01
Encoding: 65640 -1 239
Width: 356
GlyphClass: 2
Flags: W
AnchorPoint: "Anchor-5" 180 355 basechar 0
AnchorPoint: "Anchor-4" 180 710 basechar 0
AnchorPoint: "Anchor-3" 180 0 basechar 0
LayerCount: 2
Fore
SplineSet
40 392 m 1,0,-1
 122 392 l 1,1,-1
 122 260 l 1,2,3
 139 280 139 280 160 289.5 c 128,-1,4
 181 299 181 299 211 299 c 0,5,6
 259 299 259 299 291 267.5 c 128,-1,7
 323 236 323 236 323 183 c 2,8,-1
 323 0 l 1,9,-1
 240 0 l 1,10,-1
 240 181 l 2,11,12
 240 237 240 237 181 237 c 0,13,14
 154 237 154 237 138 223 c 128,-1,15
 122 209 122 209 122 181 c 2,16,-1
 122 0 l 1,17,-1
 40 0 l 1,18,-1
 40 392 l 1,0,-1
EndSplineSet
Validated: 1048577
EndChar

StartChar: m.dnom.ss01
Encoding: 65641 -1 240
Width: 552
GlyphClass: 2
Flags: W
AnchorPoint: "Anchor-4" 278 530 basechar 0
AnchorPoint: "Anchor-3" 278 0 basechar 0
LayerCount: 2
Fore
SplineSet
40 293 m 1,0,-1
 116 293 l 1,1,-1
 116 258 l 1,2,-1
 121 258 l 1,3,4
 138 279 138 279 159.5 289 c 128,-1,5
 181 299 181 299 210 299 c 0,6,7
 238 299 238 299 263 286.5 c 128,-1,8
 288 274 288 274 303 250 c 1,9,10
 332 299 332 299 403 299 c 0,11,12
 454 299 454 299 486 268.5 c 128,-1,13
 518 238 518 238 518 183 c 2,14,-1
 518 0 l 1,15,-1
 435 0 l 1,16,-1
 435 182 l 2,17,18
 435 237 435 237 379 237 c 0,19,20
 321 237 321 237 321 181 c 2,21,-1
 321 0 l 1,22,-1
 238 0 l 1,23,-1
 238 181 l 2,24,25
 238 237 238 237 180 237 c 0,26,27
 153 237 153 237 137.5 223 c 128,-1,28
 122 209 122 209 122 181 c 2,29,-1
 122 0 l 1,30,-1
 40 0 l 1,31,-1
 40 293 l 1,0,-1
EndSplineSet
Validated: 1048577
EndChar

StartChar: n.dnom.ss01
Encoding: 65642 -1 241
Width: 357
GlyphClass: 2
Flags: W
AnchorPoint: "Anchor-4" 180 530 basechar 0
AnchorPoint: "Anchor-3" 180 0 basechar 0
LayerCount: 2
Fore
SplineSet
159.5 289 m 128,-1,1
 181 299 181 299 211 299 c 0,2,3
 260 299 260 299 291.5 269.5 c 128,-1,4
 323 240 323 240 323 186 c 2,5,-1
 323 0 l 1,6,-1
 240 0 l 1,7,-1
 240 182 l 2,8,9
 240 237 240 237 181 237 c 0,10,11
 154 237 154 237 138 223 c 128,-1,12
 122 209 122 209 122 181 c 2,13,-1
 122 0 l 1,14,-1
 40 0 l 1,15,-1
 40 293 l 1,16,-1
 118 293 l 1,17,-1
 118 258 l 1,18,-1
 121 258 l 1,19,0
 138 279 138 279 159.5 289 c 128,-1,1
EndSplineSet
Validated: 1048577
EndChar

StartChar: p.dnom.ss01
Encoding: 65643 -1 242
Width: 379
GlyphClass: 2
Flags: W
AnchorPoint: "Anchor-4" 194 530 basechar 0
AnchorPoint: "Anchor-3" 194 0 basechar 0
LayerCount: 2
Fore
SplineSet
40 293 m 1,0,-1
 120 293 l 1,1,-1
 120 256 l 1,2,3
 137 277 137 277 163 288 c 128,-1,4
 189 299 189 299 218 299 c 0,5,6
 257 299 257 299 289 280 c 128,-1,7
 321 261 321 261 339.5 226 c 128,-1,8
 358 191 358 191 358 146 c 128,-1,9
 358 101 358 101 339.5 66.5 c 128,-1,10
 321 32 321 32 289 13 c 128,-1,11
 257 -6 257 -6 218 -6 c 0,12,13
 190 -6 190 -6 164.5 4.5 c 128,-1,14
 139 15 139 15 122 35 c 1,15,-1
 122 -99 l 1,16,-1
 40 -99 l 1,17,-1
 40 293 l 1,0,-1
140.5 78.5 m 128,-1,19
 162 55 162 55 196 55 c 128,-1,20
 230 55 230 55 251.5 78.5 c 128,-1,21
 273 102 273 102 273 146 c 0,22,23
 273 191 273 191 251.5 214 c 128,-1,24
 230 237 230 237 196 237 c 128,-1,25
 162 237 162 237 140.5 214 c 128,-1,26
 119 191 119 191 119 146 c 0,27,18
 119 102 119 102 140.5 78.5 c 128,-1,19
EndSplineSet
Validated: 1048577
EndChar

StartChar: q.dnom.ss01
Encoding: 65644 -1 243
Width: 379
GlyphClass: 2
Flags: W
AnchorPoint: "Anchor-4" 184 530 basechar 0
AnchorPoint: "Anchor-3" 184 0 basechar 0
LayerCount: 2
Fore
SplineSet
256 34 m 1,0,1
 239 14 239 14 214.5 4 c 128,-1,2
 190 -6 190 -6 161 -6 c 0,3,4
 122 -6 122 -6 90 13 c 128,-1,5
 58 32 58 32 39.5 66.5 c 128,-1,6
 21 101 21 101 21 146 c 128,-1,7
 21 191 21 191 39.5 226 c 128,-1,8
 58 261 58 261 90.5 280 c 128,-1,9
 123 299 123 299 161 299 c 0,10,11
 190 299 190 299 216 288 c 128,-1,12
 242 277 242 277 259 256 c 1,13,-1
 259 293 l 1,14,-1
 339 293 l 1,15,-1
 339 -99 l 1,16,-1
 256 -99 l 1,17,-1
 256 34 l 1,0,1
128 78.5 m 128,-1,19
 150 55 150 55 183 55 c 0,20,21
 217 55 217 55 239 78.5 c 128,-1,22
 261 102 261 102 261 146 c 0,23,24
 261 191 261 191 239 214 c 128,-1,25
 217 237 217 237 183 237 c 128,-1,26
 149 237 149 237 127.5 214 c 128,-1,27
 106 191 106 191 106 146 c 0,28,18
 106 102 106 102 128 78.5 c 128,-1,19
EndSplineSet
Validated: 1048577
EndChar

StartChar: r.dnom.ss01
Encoding: 65645 -1 244
Width: 220
GlyphClass: 2
Flags: W
AnchorPoint: "Anchor-4" 114 530 basechar 0
AnchorPoint: "Anchor-3" 114 0 basechar 0
LayerCount: 2
Fore
SplineSet
149.5 285.5 m 128,-1,1
 165 293 165 293 194 293 c 2,2,-1
 209 293 l 1,3,-1
 209 224 l 1,4,-1
 177 224 l 2,5,6
 149 224 149 224 135.5 212.5 c 128,-1,7
 122 201 122 201 122 174 c 2,8,-1
 122 0 l 1,9,-1
 40 0 l 1,10,-1
 40 293 l 1,11,-1
 118 293 l 1,12,-1
 118 258 l 1,13,-1
 121 258 l 1,14,0
 134 278 134 278 149.5 285.5 c 128,-1,1
EndSplineSet
Validated: 1048577
EndChar

StartChar: u.dnom.ss01
Encoding: 65646 -1 245
Width: 355
GlyphClass: 2
Flags: W
AnchorPoint: "Anchor-6" 325 530 basechar 0
AnchorPoint: "Anchor-4" 175 530 basechar 0
AnchorPoint: "Anchor-3" 175 0 basechar 0
LayerCount: 2
Fore
SplineSet
198 4 m 128,-1,1
 177 -6 177 -6 146 -6 c 0,2,3
 97 -6 97 -6 66 23.5 c 128,-1,4
 35 53 35 53 35 107 c 2,5,-1
 35 293 l 1,6,-1
 118 293 l 1,7,-1
 118 111 l 2,8,9
 118 55 118 55 175 55 c 0,10,11
 203 55 203 55 218 69 c 128,-1,12
 233 83 233 83 233 111 c 2,13,-1
 233 293 l 1,14,-1
 316 293 l 1,15,-1
 316 0 l 1,16,-1
 238 0 l 1,17,-1
 238 34 l 1,18,-1
 235 34 l 1,19,0
 219 14 219 14 198 4 c 128,-1,1
EndSplineSet
Validated: 1048577
EndChar

StartChar: a.dnom.ss01.ss02
Encoding: 65658 -1 257
Width: 346
GlyphClass: 2
Flags: W
AnchorPoint: "Anchor-4" 172 530 basechar 0
AnchorPoint: "Anchor-3" 172 0 basechar 0
LayerCount: 2
Fore
SplineSet
49 18.5 m 128,-1,1
 20 43 20 43 20 85 c 0,2,3
 20 129 20 129 48 148 c 128,-1,4
 76 167 76 167 138 172 c 2,5,-1
 220 178 l 1,6,-1
 220 197 l 2,7,8
 220 243 220 243 166 243 c 0,9,10
 117 243 117 243 113 200 c 1,11,-1
 34 200 l 1,12,13
 34 247 34 247 71.5 273 c 128,-1,14
 109 299 109 299 168 299 c 0,15,16
 228 299 228 299 263 272.5 c 128,-1,17
 298 246 298 246 298 192 c 2,18,-1
 298 64 l 1,19,-1
 332 64 l 1,20,-1
 332 0 l 1,21,-1
 255 0 l 2,22,23
 241 0 241 0 233 7.5 c 128,-1,24
 225 15 225 15 225 28 c 2,25,-1
 225 39 l 1,26,-1
 222 39 l 1,27,28
 189 -6 189 -6 124 -6 c 0,29,0
 78 -6 78 -6 49 18.5 c 128,-1,1
150 49 m 0,30,31
 180 49 180 49 200 64.5 c 128,-1,32
 220 80 220 80 220 104 c 2,33,-1
 220 129 l 1,34,-1
 156 122 l 2,35,36
 127 119 127 119 114.5 110.5 c 128,-1,37
 102 102 102 102 102 86 c 0,38,39
 102 49 102 49 150 49 c 0,30,31
EndSplineSet
Validated: 1048577
EndChar

StartChar: a
Encoding: 97 97 259
Width: 561
GlyphClass: 2
Flags: W
AnchorPoint: "Anchor-4" 288 562 basechar 0
AnchorPoint: "Anchor-3" 435 0 basechar 0
LayerCount: 2
Fore
SplineSet
90 38 m 128,-1,1
 40 76 40 76 40 152 c 0,2,3
 40 208 40 208 63 240 c 128,-1,4
 86 272 86 272 129.5 287.5 c 128,-1,5
 173 303 173 303 244 310 c 2,6,-1
 398 325 l 1,7,-1
 398 361 l 2,8,9
 398 410 398 410 369 432.5 c 128,-1,10
 340 455 340 455 285 455 c 0,11,12
 231 455 231 455 204 434 c 128,-1,13
 177 413 177 413 171 368 c 1,14,-1
 62 368 l 1,15,16
 65 450 65 450 127 495 c 128,-1,17
 189 540 189 540 289 540 c 0,18,19
 387 540 387 540 445 494.5 c 128,-1,20
 503 449 503 449 503 358 c 2,21,-1
 503 67 l 2,22,23
 503 38 503 38 484 19 c 128,-1,24
 465 0 465 0 435 0 c 2,25,-1
 223 0 l 2,26,0
 140 0 140 0 90 38 c 128,-1,1
170.5 103 m 128,-1,28
 192 88 192 88 237 88 c 2,29,-1
 398 88 l 1,30,-1
 398 245 l 1,31,-1
 265 230 l 2,32,33
 200 223 200 223 174.5 207 c 128,-1,34
 149 191 149 191 149 157 c 0,35,27
 149 118 149 118 170.5 103 c 128,-1,28
EndSplineSet
Validated: 1048577
Substitution2: "Single Substitution lookup 53 subtable" ordfeminine
Substitution2: "'sups' Superscript in Latin lookup 48 subtable" a.superior
Substitution2: "'ss01' Style Set 1 in Latin lookup 27 subtable" a.ss01
Substitution2: "'ordn' Ordinals in Latin lookup 20 subtable" a.superior
Substitution2: "'dnom' Denominators in Latin lookup 14 subtable" a.dnom
Substitution2: "'numr' Numerators in Latin lookup 13 subtable" a.numr
Substitution2: "'sups' Superscript in Latin lookup 12 subtable" a.superior
Substitution2: "'sinf' Scientific Inferiors in Latin lookup 11 subtable" a.inferior
Substitution2: "'subs' Subscript in Latin lookup 10 subtable" a.inferior
AlternateSubs2: "'aalt' Access All Alternates in Latin lookup 1 subtable" a.inferior a.superior a.numr a.dnom ordfeminine a.ss01
EndChar

StartChar: aogonek
Encoding: 261 261 266
Width: 561
GlyphClass: 1
Flags: W
LayerCount: 2
Fore
SplineSet
361 -155.5 m 128,-1,1
 330 -131 330 -131 330 -94 c 0,2,3
 330 -36 330 -36 384 0 c 1,4,-1
 223 0 l 2,5,6
 140 0 140 0 90 38 c 128,-1,7
 40 76 40 76 40 152 c 0,8,9
 40 208 40 208 63 240 c 128,-1,10
 86 272 86 272 129.5 287.5 c 128,-1,11
 173 303 173 303 244 310 c 2,12,-1
 398 325 l 1,13,-1
 398 361 l 2,14,15
 398 410 398 410 369 432.5 c 128,-1,16
 340 455 340 455 285 455 c 0,17,18
 231 455 231 455 204 434 c 128,-1,19
 177 413 177 413 171 368 c 1,20,-1
 62 368 l 1,21,22
 65 450 65 450 127 495 c 128,-1,23
 189 540 189 540 289 540 c 0,24,25
 387 540 387 540 445 494.5 c 128,-1,26
 503 449 503 449 503 358 c 2,27,-1
 503 67 l 2,28,29
 503 44 503 44 492.5 30.5 c 128,-1,30
 482 17 482 17 462 2 c 0,31,32
 442 -12 442 -12 432.5 -24.5 c 128,-1,33
 423 -37 423 -37 423 -59 c 0,34,35
 423 -73 423 -73 435.5 -81 c 128,-1,36
 448 -89 448 -89 470 -89 c 2,37,-1
 501 -89 l 1,38,-1
 501 -180 l 1,39,-1
 452 -180 l 2,40,0
 392 -180 392 -180 361 -155.5 c 128,-1,1
170.5 103 m 128,-1,42
 192 88 192 88 237 88 c 2,43,-1
 398 88 l 1,44,-1
 398 245 l 1,45,-1
 265 230 l 2,46,47
 200 223 200 223 174.5 207 c 128,-1,48
 149 191 149 191 149 157 c 0,49,41
 149 118 149 118 170.5 103 c 128,-1,42
EndSplineSet
Validated: 1
Substitution2: "'ss01' Style Set 1 in Latin lookup 27 subtable" aogonek.ss01
AlternateSubs2: "'aalt' Access All Alternates in Latin lookup 1 subtable" aogonek.ss01
EndChar

StartChar: ae
Encoding: 230 230 270
Width: 961
GlyphClass: 2
Flags: W
AnchorPoint: "Anchor-4" 480 562 basechar 0
AnchorPoint: "Anchor-3" 659 0 basechar 0
LayerCount: 2
Fore
SplineSet
90 38 m 128,-1,1
 40 76 40 76 40 152 c 0,2,3
 40 208 40 208 63 240 c 128,-1,4
 86 272 86 272 129.5 287.5 c 128,-1,5
 173 303 173 303 244 310 c 2,6,-1
 398 325 l 1,7,-1
 398 361 l 2,8,9
 398 410 398 410 369 432.5 c 128,-1,10
 340 455 340 455 285 455 c 0,11,12
 231 455 231 455 204 434 c 128,-1,13
 177 413 177 413 171 368 c 1,14,-1
 62 368 l 1,15,16
 65 450 65 450 127 495 c 128,-1,17
 189 540 189 540 289 540 c 0,18,19
 351 540 351 540 399 521 c 128,-1,20
 447 502 447 502 473 465 c 1,21,22
 508 501 508 501 555.5 520.5 c 128,-1,23
 603 540 603 540 659 540 c 0,24,25
 738 540 738 540 799.5 503 c 128,-1,26
 861 466 861 466 893.5 396.5 c 128,-1,27
 926 327 926 327 920 234 c 1,28,-1
 506 234 l 1,29,30
 514 164 514 164 555.5 120 c 128,-1,31
 597 76 597 76 659 76 c 0,32,33
 705 76 705 76 739.5 100 c 128,-1,34
 774 124 774 124 790 165 c 1,35,-1
 905 165 l 1,36,37
 882 84 882 84 815.5 37 c 128,-1,38
 749 -10 749 -10 659 -10 c 0,39,40
 566 -10 566 -10 499 41 c 1,41,42
 491 22 491 22 474.5 11 c 128,-1,43
 458 0 458 0 435 0 c 2,44,-1
 223 0 l 2,45,0
 140 0 140 0 90 38 c 128,-1,1
170.5 103 m 128,-1,47
 192 88 192 88 237 88 c 2,48,-1
 398 88 l 1,49,-1
 398 245 l 1,50,-1
 265 230 l 2,51,52
 200 223 200 223 174.5 207 c 128,-1,53
 149 191 149 191 149 157 c 0,54,46
 149 118 149 118 170.5 103 c 128,-1,47
811 317 m 1,55,56
 800 379 800 379 759 417 c 128,-1,57
 718 455 718 455 659 455 c 0,58,59
 601 455 601 455 561 417 c 128,-1,60
 521 379 521 379 509 317 c 1,61,-1
 811 317 l 1,55,56
EndSplineSet
Validated: 1048609
Substitution2: "'ss01' Style Set 1 in Latin lookup 27 subtable" ae.aalt
Substitution2: "'aalt' Access All Alternates in Latin lookup 0 subtable" ae.aalt
EndChar

StartChar: b
Encoding: 98 98 272
Width: 603
GlyphClass: 2
Flags: W
AnchorPoint: "Anchor-5" 304 265 basechar 0
AnchorPoint: "Anchor-4" 304 530 basechar 0
AnchorPoint: "Anchor-3" 304 0 basechar 0
LayerCount: 2
Fore
SplineSet
84 19 m 128,-1,1
 65 38 65 38 65 67 c 2,2,-1
 65 710 l 1,3,-1
 173 710 l 1,4,-1
 173 530 l 1,5,-1
 307 530 l 2,6,7
 380 530 380 530 437.5 497.5 c 128,-1,8
 495 465 495 465 528 404.5 c 128,-1,9
 561 344 561 344 561 265 c 0,10,11
 561 185 561 185 528 125 c 128,-1,12
 495 65 495 65 437.5 32.5 c 128,-1,13
 380 0 380 0 307 0 c 2,14,-1
 132 0 l 2,15,0
 103 0 103 0 84 19 c 128,-1,1
294 92 m 2,16,17
 370 92 370 92 410.5 137 c 128,-1,18
 451 182 451 182 451 265 c 0,19,20
 451 347 451 347 410.5 392.5 c 128,-1,21
 370 438 370 438 294 438 c 2,22,-1
 173 438 l 1,23,-1
 173 92 l 1,24,-1
 294 92 l 2,16,17
EndSplineSet
Validated: 1048577
Substitution2: "'sups' Superscript in Latin lookup 48 subtable" b.superior
Substitution2: "'ss04' Style Set 4 in Latin lookup 31 subtable" b.ss01
Substitution2: "'ss01' Style Set 1 in Latin lookup 27 subtable" b.ss01
Substitution2: "'ordn' Ordinals in Latin lookup 20 subtable" b.superior
Substitution2: "'dnom' Denominators in Latin lookup 14 subtable" b.dnom
Substitution2: "'numr' Numerators in Latin lookup 13 subtable" b.numr
Substitution2: "'sups' Superscript in Latin lookup 12 subtable" b.superior
Substitution2: "'sinf' Scientific Inferiors in Latin lookup 11 subtable" b.inferior
Substitution2: "'subs' Subscript in Latin lookup 10 subtable" b.inferior
AlternateSubs2: "'aalt' Access All Alternates in Latin lookup 1 subtable" b.inferior b.superior b.numr b.dnom b.ss01
EndChar

StartChar: c
Encoding: 99 99 273
Width: 589
GlyphClass: 2
Flags: W
AnchorPoint: "Anchor-4" 307 562 basechar 0
AnchorPoint: "Anchor-3" 307 0 basechar 0
LayerCount: 2
Fore
SplineSet
175 22.5 m 128,-1,1
 115 55 115 55 79 117.5 c 128,-1,2
 43 180 43 180 43 265 c 128,-1,3
 43 350 43 350 79 412.5 c 128,-1,4
 115 475 115 475 175 507.5 c 128,-1,5
 235 540 235 540 307 540 c 0,6,7
 375 540 375 540 426 515 c 128,-1,8
 477 490 477 490 509 449.5 c 128,-1,9
 541 409 541 409 553 362 c 1,10,-1
 439 362 l 1,11,12
 427 396 427 396 393.5 424 c 128,-1,13
 360 452 360 452 307 452 c 0,14,15
 266 452 266 452 231 431 c 128,-1,16
 196 410 196 410 174 368 c 128,-1,17
 152 326 152 326 152 265 c 128,-1,18
 152 204 152 204 174 162 c 128,-1,19
 196 120 196 120 231 99 c 128,-1,20
 266 78 266 78 307 78 c 0,21,22
 360 78 360 78 393.5 106 c 128,-1,23
 427 134 427 134 439 168 c 1,24,-1
 553 168 l 1,25,26
 541 121 541 121 509 80.5 c 128,-1,27
 477 40 477 40 426 15 c 128,-1,28
 375 -10 375 -10 307 -10 c 0,29,0
 235 -10 235 -10 175 22.5 c 128,-1,1
EndSplineSet
Validated: 1048577
Substitution2: "'sups' Superscript in Latin lookup 48 subtable" C.aalt
Substitution2: "'ordn' Ordinals in Latin lookup 20 subtable" C.aalt
Substitution2: "'dnom' Denominators in Latin lookup 14 subtable" c.dnom
Substitution2: "'numr' Numerators in Latin lookup 13 subtable" c.numr
Substitution2: "'sups' Superscript in Latin lookup 12 subtable" C.aalt
Substitution2: "'sinf' Scientific Inferiors in Latin lookup 11 subtable" c.inferior
Substitution2: "'subs' Subscript in Latin lookup 10 subtable" c.inferior
AlternateSubs2: "'aalt' Access All Alternates in Latin lookup 1 subtable" c.inferior C.aalt c.numr c.dnom
EndChar

StartChar: ccedilla
Encoding: 231 231 276
Width: 589
GlyphClass: 2
Flags: W
AnchorPoint: "Anchor-3" 335 -230 basechar 0
LayerCount: 2
Fore
SplineSet
233 -179 m 1,0,-1
 318 -179 l 2,1,2
 338 -179 338 -179 349 -170.5 c 128,-1,3
 360 -162 360 -162 360 -146 c 2,4,-1
 360 -144 l 2,5,6
 360 -130 360 -130 349 -121.5 c 128,-1,7
 338 -113 338 -113 318 -113 c 2,8,-1
 246 -113 l 1,9,-1
 239 -106 l 1,10,-1
 266 -7 l 1,11,12
 203 2 203 2 152.5 36.5 c 128,-1,13
 102 71 102 71 72.5 129.5 c 128,-1,14
 43 188 43 188 43 265 c 0,15,16
 43 350 43 350 79 412.5 c 128,-1,17
 115 475 115 475 175 507.5 c 128,-1,18
 235 540 235 540 307 540 c 0,19,20
 375 540 375 540 426 515 c 128,-1,21
 477 490 477 490 509 449.5 c 128,-1,22
 541 409 541 409 553 362 c 1,23,-1
 439 362 l 1,24,25
 427 396 427 396 393.5 424 c 128,-1,26
 360 452 360 452 307 452 c 0,27,28
 266 452 266 452 231 431 c 128,-1,29
 196 410 196 410 174 368 c 128,-1,30
 152 326 152 326 152 265 c 128,-1,31
 152 204 152 204 174 162 c 128,-1,32
 196 120 196 120 231 99 c 128,-1,33
 266 78 266 78 307 78 c 0,34,35
 360 78 360 78 393.5 106 c 128,-1,36
 427 134 427 134 439 168 c 1,37,-1
 553 168 l 1,38,39
 536 102 536 102 482 52 c 128,-1,40
 428 2 428 2 344 -8 c 1,41,-1
 318 -54 l 1,42,-1
 318 -62 l 1,43,-1
 343 -62 l 2,44,45
 381 -62 381 -62 409.5 -83.5 c 128,-1,46
 438 -105 438 -105 438 -144 c 2,47,-1
 438 -146 l 2,48,49
 438 -187 438 -187 409.5 -208.5 c 128,-1,50
 381 -230 381 -230 343 -230 c 2,51,-1
 233 -230 l 1,52,-1
 233 -179 l 1,0,-1
EndSplineSet
Validated: 1048577
EndChar

StartChar: d
Encoding: 100 100 279
Width: 603
GlyphClass: 2
Flags: W
AnchorPoint: "Anchor-6" 591 710 basechar 0
AnchorPoint: "Anchor-5" 297 265 basechar 0
AnchorPoint: "Anchor-4" 297 710 basechar 0
AnchorPoint: "Anchor-3" 297 0 basechar 0
LayerCount: 2
Fore
SplineSet
165.5 32.5 m 128,-1,1
 108 65 108 65 75 125 c 128,-1,2
 42 185 42 185 42 265 c 0,3,4
 42 344 42 344 75 404.5 c 128,-1,5
 108 465 108 465 165.5 497.5 c 128,-1,6
 223 530 223 530 296 530 c 2,7,-1
 430 530 l 1,8,-1
 430 710 l 1,9,-1
 538 710 l 1,10,-1
 538 67 l 2,11,12
 538 38 538 38 519 19 c 128,-1,13
 500 0 500 0 471 0 c 2,14,-1
 296 0 l 2,15,0
 223 0 223 0 165.5 32.5 c 128,-1,1
192.5 137 m 128,-1,17
 233 92 233 92 309 92 c 2,18,-1
 430 92 l 1,19,-1
 430 438 l 1,20,-1
 309 438 l 2,21,22
 233 438 233 438 192.5 392.5 c 128,-1,23
 152 347 152 347 152 265 c 0,24,16
 152 182 152 182 192.5 137 c 128,-1,17
EndSplineSet
Validated: 1
Substitution2: "'sups' Superscript in Latin lookup 48 subtable" d.superior
Substitution2: "'ss04' Style Set 4 in Latin lookup 31 subtable" d.ss01
Substitution2: "'ss01' Style Set 1 in Latin lookup 27 subtable" d.ss01
Substitution2: "'ordn' Ordinals in Latin lookup 20 subtable" d.superior
Substitution2: "'dnom' Denominators in Latin lookup 14 subtable" d.dnom
Substitution2: "'numr' Numerators in Latin lookup 13 subtable" d.numr
Substitution2: "'sups' Superscript in Latin lookup 12 subtable" d.superior
Substitution2: "'sinf' Scientific Inferiors in Latin lookup 11 subtable" d.inferior
Substitution2: "'subs' Subscript in Latin lookup 10 subtable" d.inferior
AlternateSubs2: "'aalt' Access All Alternates in Latin lookup 1 subtable" d.inferior d.superior d.numr d.dnom d.ss01
EndChar

StartChar: eth
Encoding: 240 240 280
Width: 617
GlyphClass: 2
Flags: W
AnchorPoint: "Anchor-4" 307 710 basechar 0
AnchorPoint: "Anchor-3" 307 0 basechar 0
LayerCount: 2
Fore
SplineSet
171 25 m 128,-1,1
 111 60 111 60 77.5 122.5 c 128,-1,2
 44 185 44 185 44 265 c 0,3,4
 44 344 44 344 77 407 c 128,-1,5
 110 470 110 470 168 505 c 128,-1,6
 226 540 226 540 299 540 c 0,7,8
 362 540 362 540 415 503 c 1,9,10
 385 550 385 550 352 586 c 1,11,-1
 129 556 l 1,12,-1
 129 622 l 1,13,-1
 291 644 l 1,14,15
 245 682 245 682 195 708 c 1,16,-1
 195 710 l 1,17,-1
 333 710 l 1,18,19
 368 684 368 684 395 659 c 1,20,-1
 499 673 l 1,21,-1
 499 606 l 1,22,-1
 451 600 l 1,23,24
 508 531 508 531 539.5 449 c 128,-1,25
 571 367 571 367 571 276 c 0,26,27
 571 194 571 194 538 129 c 128,-1,28
 505 64 505 64 445 27 c 128,-1,29
 385 -10 385 -10 307 -10 c 0,30,0
 231 -10 231 -10 171 25 c 128,-1,1
173.5 168.5 m 128,-1,32
 193 126 193 126 228.5 102 c 128,-1,33
 264 78 264 78 310 78 c 128,-1,34
 356 78 356 78 391.5 102 c 128,-1,35
 427 126 427 126 446.5 168.5 c 128,-1,36
 466 211 466 211 466 265 c 0,37,38
 466 347 466 347 423 399.5 c 128,-1,39
 380 452 380 452 310 452 c 0,40,41
 264 452 264 452 228.5 428 c 128,-1,42
 193 404 193 404 173.5 361.5 c 128,-1,43
 154 319 154 319 154 265 c 128,-1,31
 154 211 154 211 173.5 168.5 c 128,-1,32
EndSplineSet
Validated: 1048577
EndChar

StartChar: dcroat
Encoding: 273 273 282
Width: 603
GlyphClass: 2
Flags: W
AnchorPoint: "Anchor-6" 591 710 basechar 0
AnchorPoint: "Anchor-5" 297 265 basechar 0
AnchorPoint: "Anchor-4" 297 710 basechar 0
AnchorPoint: "Anchor-3" 297 0 basechar 0
LayerCount: 2
Fore
SplineSet
165.5 32.5 m 128,-1,1
 108 65 108 65 75 125 c 128,-1,2
 42 185 42 185 42 265 c 0,3,4
 42 344 42 344 75 404.5 c 128,-1,5
 108 465 108 465 165.5 497.5 c 128,-1,6
 223 530 223 530 296 530 c 2,7,-1
 430 530 l 1,8,-1
 430 572 l 1,9,-1
 313 572 l 1,10,-1
 313 648 l 1,11,-1
 430 648 l 1,12,-1
 430 710 l 1,13,-1
 538 710 l 1,14,-1
 538 648 l 1,15,-1
 618 648 l 1,16,-1
 618 572 l 1,17,-1
 538 572 l 1,18,-1
 538 67 l 2,19,20
 538 38 538 38 519 19 c 128,-1,21
 500 0 500 0 471 0 c 2,22,-1
 296 0 l 2,23,0
 223 0 223 0 165.5 32.5 c 128,-1,1
192.5 137 m 128,-1,25
 233 92 233 92 309 92 c 2,26,-1
 430 92 l 1,27,-1
 430 438 l 1,28,-1
 309 438 l 2,29,30
 233 438 233 438 192.5 392.5 c 128,-1,31
 152 347 152 347 152 265 c 0,32,24
 152 182 152 182 192.5 137 c 128,-1,25
EndSplineSet
Validated: 1
Substitution2: "'ss04' Style Set 4 in Latin lookup 31 subtable" dcroat.aalt
Substitution2: "'ss01' Style Set 1 in Latin lookup 27 subtable" dcroat.aalt
Substitution2: "'aalt' Access All Alternates in Latin lookup 0 subtable" dcroat.aalt
EndChar

StartChar: e
Encoding: 101 101 283
Width: 606
GlyphClass: 2
Flags: W
AnchorPoint: "Anchor-4" 304 562 basechar 0
AnchorPoint: "Anchor-3" 304 0 basechar 0
LayerCount: 2
Fore
SplineSet
168 25 m 128,-1,1
 109 60 109 60 76 122.5 c 128,-1,2
 43 185 43 185 43 265 c 128,-1,3
 43 345 43 345 76.5 407.5 c 128,-1,4
 110 470 110 470 169 505 c 128,-1,5
 228 540 228 540 304 540 c 0,6,7
 383 540 383 540 444.5 503 c 128,-1,8
 506 466 506 466 538.5 396.5 c 128,-1,9
 571 327 571 327 565 234 c 1,10,-1
 151 234 l 1,11,12
 159 164 159 164 200.5 120 c 128,-1,13
 242 76 242 76 304 76 c 0,14,15
 350 76 350 76 384.5 100 c 128,-1,16
 419 124 419 124 435 165 c 1,17,-1
 550 165 l 1,18,19
 527 84 527 84 460.5 37 c 128,-1,20
 394 -10 394 -10 304 -10 c 0,21,0
 227 -10 227 -10 168 25 c 128,-1,1
456 317 m 1,22,23
 445 379 445 379 404 417 c 128,-1,24
 363 455 363 455 304 455 c 0,25,26
 246 455 246 455 206 417 c 128,-1,27
 166 379 166 379 154 317 c 1,28,-1
 456 317 l 1,22,23
EndSplineSet
Validated: 1048609
Substitution2: "'sups' Superscript in Latin lookup 48 subtable" e.superior
Substitution2: "'ordn' Ordinals in Latin lookup 20 subtable" e.superior
Substitution2: "'dnom' Denominators in Latin lookup 14 subtable" e.dnom
Substitution2: "'numr' Numerators in Latin lookup 13 subtable" e.numr
Substitution2: "'sups' Superscript in Latin lookup 12 subtable" e.superior
Substitution2: "'sinf' Scientific Inferiors in Latin lookup 11 subtable" e.inferior
Substitution2: "'subs' Subscript in Latin lookup 10 subtable" e.inferior
AlternateSubs2: "'aalt' Access All Alternates in Latin lookup 1 subtable" e.inferior e.superior e.numr e.dnom
EndChar

StartChar: eogonek
Encoding: 281 281 292
Width: 605
GlyphClass: 1
Flags: W
LayerCount: 2
Fore
SplineSet
345.5 -155.5 m 128,-1,1
 314 -131 314 -131 314 -94 c 0,2,3
 314 -36 314 -36 367 -1 c 1,4,5
 340 -10 340 -10 304 -10 c 0,6,7
 227 -10 227 -10 168 25 c 128,-1,8
 109 60 109 60 76 122.5 c 128,-1,9
 43 185 43 185 43 265 c 128,-1,10
 43 345 43 345 76.5 407.5 c 128,-1,11
 110 470 110 470 169 505 c 128,-1,12
 228 540 228 540 304 540 c 0,13,14
 383 540 383 540 444.5 503 c 128,-1,15
 506 466 506 466 538.5 396.5 c 128,-1,16
 571 327 571 327 565 234 c 1,17,-1
 151 234 l 1,18,19
 159 164 159 164 200.5 120 c 128,-1,20
 242 76 242 76 304 76 c 0,21,22
 350 76 350 76 384.5 100 c 128,-1,23
 419 124 419 124 435 165 c 1,24,-1
 550 165 l 1,25,26
 528 89 528 89 457 23 c 0,27,28
 429 -3 429 -3 417 -21 c 128,-1,29
 405 -39 405 -39 405 -59 c 0,30,31
 405 -73 405 -73 418 -81 c 128,-1,32
 431 -89 431 -89 454 -89 c 2,33,-1
 485 -89 l 1,34,-1
 485 -180 l 1,35,-1
 438 -180 l 2,36,0
 377 -180 377 -180 345.5 -155.5 c 128,-1,1
456 317 m 1,37,38
 445 379 445 379 404 417 c 128,-1,39
 363 455 363 455 304 455 c 0,40,41
 246 455 246 455 206 417 c 128,-1,42
 166 379 166 379 154 317 c 1,43,-1
 456 317 l 1,37,38
EndSplineSet
Validated: 33
EndChar

StartChar: uni0259
Encoding: 601 601 294
Width: 606
GlyphClass: 2
Flags: W
AnchorPoint: "Anchor-4" 302 530 basechar 0
AnchorPoint: "Anchor-3" 302 -32 basechar 0
LayerCount: 2
Fore
SplineSet
438 505 m 128,-1,1
 497 470 497 470 530 407.5 c 128,-1,2
 563 345 563 345 563 265 c 128,-1,3
 563 185 563 185 529.5 122.5 c 128,-1,4
 496 60 496 60 437 25 c 128,-1,5
 378 -10 378 -10 302 -10 c 0,6,7
 223 -10 223 -10 161.5 27 c 128,-1,8
 100 64 100 64 67.5 133.5 c 128,-1,9
 35 203 35 203 41 296 c 1,10,-1
 455 296 l 1,11,12
 447 366 447 366 405.5 410 c 128,-1,13
 364 454 364 454 302 454 c 0,14,15
 256 454 256 454 221.5 430 c 128,-1,16
 187 406 187 406 171 365 c 1,17,-1
 56 365 l 1,18,19
 79 446 79 446 145.5 493 c 128,-1,20
 212 540 212 540 302 540 c 0,21,0
 379 540 379 540 438 505 c 128,-1,1
202 113 m 128,-1,23
 243 75 243 75 302 75 c 0,24,25
 360 75 360 75 400 113 c 128,-1,26
 440 151 440 151 452 213 c 1,27,-1
 150 213 l 1,28,22
 161 151 161 151 202 113 c 128,-1,23
EndSplineSet
Validated: 1048609
EndChar

StartChar: f
Encoding: 102 102 295
Width: 389
GlyphClass: 2
Flags: W
AnchorPoint: "Anchor-4" 194 710 basechar 0
AnchorPoint: "Anchor-3" 194 0 basechar 0
LayerCount: 2
Fore
SplineSet
131 691.5 m 128,-1,1
 150 710 150 710 179 710 c 2,2,-1
 355 710 l 1,3,-1
 355 619 l 1,4,-1
 220 619 l 1,5,-1
 220 530 l 1,6,-1
 355 530 l 1,7,-1
 355 437 l 1,8,-1
 220 437 l 1,9,-1
 220 0 l 1,10,-1
 112 0 l 1,11,-1
 112 437 l 1,12,-1
 34 437 l 1,13,-1
 34 530 l 1,14,-1
 112 530 l 1,15,-1
 112 643 l 2,16,0
 112 673 112 673 131 691.5 c 128,-1,1
EndSplineSet
Validated: 1048577
Substitution2: "'sups' Superscript in Latin lookup 48 subtable" f.superior
Substitution2: "'ordn' Ordinals in Latin lookup 20 subtable" f.superior
Substitution2: "'dnom' Denominators in Latin lookup 14 subtable" f.dnom
Substitution2: "'numr' Numerators in Latin lookup 13 subtable" f.numr
Substitution2: "'sups' Superscript in Latin lookup 12 subtable" f.superior
Substitution2: "'sinf' Scientific Inferiors in Latin lookup 11 subtable" f.inferior
Substitution2: "'subs' Subscript in Latin lookup 10 subtable" f.inferior
AlternateSubs2: "'aalt' Access All Alternates in Latin lookup 1 subtable" f.inferior f.superior f.numr f.dnom
EndChar

StartChar: g
Encoding: 103 103 296
Width: 603
GlyphClass: 2
Flags: W
AnchorPoint: "Anchor-4" 311 562 basechar 0
AnchorPoint: "Anchor-3" 297 -180 basechar 0
LayerCount: 2
Fore
SplineSet
112 -89 m 1,0,-1
 430 -89 l 1,1,-1
 430 3 l 1,2,-1
 296 3 l 2,3,4
 223 3 223 3 165.5 35.5 c 128,-1,5
 108 68 108 68 75 128 c 128,-1,6
 42 188 42 188 42 266 c 0,7,8
 42 346 42 346 75 406 c 128,-1,9
 108 466 108 466 165.5 498 c 128,-1,10
 223 530 223 530 296 530 c 2,11,-1
 471 530 l 2,12,13
 500 530 500 530 519 511 c 128,-1,14
 538 492 538 492 538 463 c 2,15,-1
 538 -110 l 2,16,17
 538 -142 538 -142 518.5 -161 c 128,-1,18
 499 -180 499 -180 465 -180 c 2,19,-1
 112 -180 l 1,20,-1
 112 -89 l 1,0,-1
192 140 m 128,-1,22
 232 95 232 95 308 95 c 2,23,-1
 430 95 l 1,24,-1
 430 438 l 1,25,-1
 308 438 l 2,26,27
 233 438 233 438 192.5 393 c 128,-1,28
 152 348 152 348 152 266 c 0,29,21
 152 185 152 185 192 140 c 128,-1,22
EndSplineSet
Validated: 1048577
Substitution2: "'sups' Superscript in Latin lookup 48 subtable" g.superior
Substitution2: "'ss04' Style Set 4 in Latin lookup 31 subtable" g.ss01
Substitution2: "'ss01' Style Set 1 in Latin lookup 27 subtable" g.ss01
Substitution2: "'ordn' Ordinals in Latin lookup 20 subtable" g.superior
Substitution2: "'dnom' Denominators in Latin lookup 14 subtable" g.dnom
Substitution2: "'numr' Numerators in Latin lookup 13 subtable" g.numr
Substitution2: "'sups' Superscript in Latin lookup 12 subtable" g.superior
Substitution2: "'sinf' Scientific Inferiors in Latin lookup 11 subtable" g.inferior
Substitution2: "'subs' Subscript in Latin lookup 10 subtable" g.inferior
AlternateSubs2: "'aalt' Access All Alternates in Latin lookup 1 subtable" g.inferior g.superior g.numr g.dnom g.ss01
EndChar

StartChar: h
Encoding: 104 104 301
Width: 582
GlyphClass: 2
Flags: W
AnchorPoint: "Anchor-5" 293 355 basechar 0
AnchorPoint: "Anchor-4" 120 732 basechar 0
AnchorPoint: "Anchor-3" 293 0 basechar 0
LayerCount: 2
Fore
SplineSet
303 438 m 2,0,-1
 174 438 l 1,1,-1
 174 0 l 1,2,-1
 66 0 l 1,3,-1
 66 710 l 1,4,-1
 174 710 l 1,5,-1
 174 530 l 1,6,-1
 329 530 l 2,7,8
 415 530 415 530 469.5 475 c 128,-1,9
 524 420 524 420 524 321 c 2,10,-1
 524 0 l 1,11,-1
 416 0 l 1,12,-1
 416 312 l 2,13,14
 416 438 416 438 303 438 c 2,0,-1
EndSplineSet
Validated: 1048577
Substitution2: "'sups' Superscript in Latin lookup 48 subtable" H.aalt
Substitution2: "'ss05' Style Set 5 in Latin lookup 32 subtable" h.ss01
Substitution2: "'ss01' Style Set 1 in Latin lookup 27 subtable" h.ss01
Substitution2: "'ordn' Ordinals in Latin lookup 20 subtable" H.aalt
Substitution2: "'dnom' Denominators in Latin lookup 14 subtable" h.dnom
Substitution2: "'numr' Numerators in Latin lookup 13 subtable" h.numr
Substitution2: "'sups' Superscript in Latin lookup 12 subtable" H.aalt
Substitution2: "'sinf' Scientific Inferiors in Latin lookup 11 subtable" h.inferior
Substitution2: "'subs' Subscript in Latin lookup 10 subtable" h.inferior
AlternateSubs2: "'aalt' Access All Alternates in Latin lookup 1 subtable" h.inferior H.aalt h.numr h.dnom h.ss01
EndChar

StartChar: hbar
Encoding: 295 295 302
Width: 582
GlyphClass: 2
Flags: W
AnchorPoint: "Anchor-5" 293 355 basechar 0
AnchorPoint: "Anchor-4" 120 732 basechar 0
AnchorPoint: "Anchor-3" 293 0 basechar 0
LayerCount: 2
Fore
SplineSet
303 438 m 2,0,-1
 174 438 l 1,1,-1
 174 0 l 1,2,-1
 66 0 l 1,3,-1
 66 572 l 1,4,-1
 -13 572 l 1,5,-1
 -13 648 l 1,6,-1
 66 648 l 1,7,-1
 66 710 l 1,8,-1
 174 710 l 1,9,-1
 174 648 l 1,10,-1
 292 648 l 1,11,-1
 292 572 l 1,12,-1
 174 572 l 1,13,-1
 174 530 l 1,14,-1
 329 530 l 2,15,16
 415 530 415 530 469.5 475 c 128,-1,17
 524 420 524 420 524 321 c 2,18,-1
 524 0 l 1,19,-1
 416 0 l 1,20,-1
 416 312 l 2,21,22
 416 438 416 438 303 438 c 2,0,-1
EndSplineSet
Validated: 1048577
Substitution2: "'ss05' Style Set 5 in Latin lookup 32 subtable" hbar.aalt
Substitution2: "'ss01' Style Set 1 in Latin lookup 27 subtable" hbar.aalt
Substitution2: "'aalt' Access All Alternates in Latin lookup 0 subtable" hbar.aalt
EndChar

StartChar: dotlessi
Encoding: 305 305 305
Width: 240
GlyphClass: 2
Flags: W
AnchorPoint: "Anchor-4" 120 562 basechar 0
AnchorPoint: "Anchor-3" 140 0 basechar 0
LayerCount: 2
Fore
SplineSet
66 530 m 1,0,-1
 174 530 l 1,1,-1
 174 0 l 1,2,-1
 66 0 l 1,3,-1
 66 530 l 1,0,-1
EndSplineSet
Validated: 1048577
EndChar

StartChar: iogonek
Encoding: 303 303 314
Width: 240
GlyphClass: 2
Flags: W
AnchorPoint: "Anchor-3" 140 0 basechar 0
LayerCount: 2
Fore
SplineSet
66 710 m 1,0,-1
 174 710 l 1,1,-1
 174 600 l 1,2,-1
 66 600 l 1,3,-1
 66 710 l 1,0,-1
66 6 m 1,4,-1
 66 530 l 1,5,-1
 174 530 l 1,6,-1
 174 0 l 1,7,8
 96 -25 96 -25 96 -60 c 0,9,10
 96 -73 96 -73 108.5 -81 c 128,-1,11
 121 -89 121 -89 143 -89 c 2,12,-1
 174 -89 l 1,13,-1
 174 -180 l 1,14,-1
 125 -180 l 2,15,16
 65 -180 65 -180 34 -155.5 c 128,-1,17
 3 -131 3 -131 3 -94 c 0,18,19
 3 -32 3 -32 66 6 c 1,4,-1
EndSplineSet
Validated: 1048577
EndChar

StartChar: uni0237
Encoding: 567 567 317
Width: 240
GlyphClass: 2
Flags: W
AnchorPoint: "Anchor-4" 120 562 basechar 0
AnchorPoint: "Anchor-3" 119 -180 basechar 0
LayerCount: 2
Fore
SplineSet
-54 -89 m 1,0,-1
 66 -89 l 1,1,-1
 66 530 l 1,2,-1
 174 530 l 1,3,-1
 174 -110 l 2,4,5
 174 -142 174 -142 155 -161 c 128,-1,6
 136 -180 136 -180 102 -180 c 2,7,-1
 -54 -180 l 1,8,-1
 -54 -89 l 1,0,-1
EndSplineSet
Validated: 1048577
EndChar

StartChar: k
Encoding: 107 107 320
Width: 558
GlyphClass: 2
Flags: W
AnchorPoint: "Anchor-4" 275 710 basechar 0
AnchorPoint: "Anchor-3" 268 0 basechar 0
LayerCount: 2
Fore
SplineSet
527 7 m 1,0,-1
 527 0 l 1,1,-1
 407 0 l 1,2,-1
 272 241 l 1,3,-1
 174 241 l 1,4,-1
 174 0 l 1,5,-1
 66 0 l 1,6,-1
 66 710 l 1,7,-1
 174 710 l 1,8,-1
 174 334 l 1,9,-1
 272 334 l 1,10,-1
 407 530 l 1,11,-1
 527 530 l 1,12,-1
 527 523 l 1,13,-1
 363 294 l 1,14,-1
 363 282 l 1,15,-1
 527 7 l 1,0,-1
EndSplineSet
Validated: 1048577
Substitution2: "'sups' Superscript in Latin lookup 48 subtable" K.aalt
Substitution2: "'ordn' Ordinals in Latin lookup 20 subtable" K.aalt
Substitution2: "'dnom' Denominators in Latin lookup 14 subtable" k.dnom
Substitution2: "'numr' Numerators in Latin lookup 13 subtable" k.numr
Substitution2: "'sups' Superscript in Latin lookup 12 subtable" K.aalt
Substitution2: "'sinf' Scientific Inferiors in Latin lookup 11 subtable" k.inferior
Substitution2: "'subs' Subscript in Latin lookup 10 subtable" k.inferior
AlternateSubs2: "'aalt' Access All Alternates in Latin lookup 1 subtable" k.inferior K.aalt k.numr k.dnom
EndChar

StartChar: l
Encoding: 108 108 322
Width: 240
GlyphClass: 2
Flags: W
AnchorPoint: "Anchor-6" 227 710 basechar 0
AnchorPoint: "Anchor-5" 120 419 basechar 0
AnchorPoint: "Anchor-4" 120 732 basechar 0
AnchorPoint: "Anchor-3" 120 0 basechar 0
LayerCount: 2
Fore
SplineSet
66 0 m 1,0,-1
 66 710 l 1,1,-1
 174 710 l 1,2,-1
 174 0 l 1,3,-1
 66 0 l 1,0,-1
EndSplineSet
Validated: 1
Substitution2: "'sups' Superscript in Latin lookup 48 subtable" L.aalt
Substitution2: "'ordn' Ordinals in Latin lookup 20 subtable" L.aalt
Substitution2: "'dnom' Denominators in Latin lookup 14 subtable" l.dnom
Substitution2: "'numr' Numerators in Latin lookup 13 subtable" l.numr
Substitution2: "'sups' Superscript in Latin lookup 12 subtable" L.aalt
Substitution2: "'sinf' Scientific Inferiors in Latin lookup 11 subtable" l.inferior
Substitution2: "'subs' Subscript in Latin lookup 10 subtable" l.inferior
AlternateSubs2: "'aalt' Access All Alternates in Latin lookup 1 subtable" l.inferior L.aalt l.numr l.dnom
EndChar

StartChar: lslash
Encoding: 322 322 327
Width: 358
GlyphClass: 2
Flags: W
AnchorPoint: "Anchor-6" 286 710 basechar 0
AnchorPoint: "Anchor-5" 179 419 basechar 0
AnchorPoint: "Anchor-4" 180 732 basechar 0
AnchorPoint: "Anchor-3" 180 0 basechar 0
LayerCount: 2
Fore
SplineSet
125 0 m 1,0,-1
 125 294 l 1,1,-1
 37 245 l 1,2,-1
 37 350 l 1,3,-1
 125 399 l 1,4,-1
 125 710 l 1,5,-1
 233 710 l 1,6,-1
 233 460 l 1,7,-1
 322 510 l 1,8,-1
 322 405 l 1,9,-1
 233 355 l 1,10,-1
 233 0 l 1,11,-1
 125 0 l 1,0,-1
EndSplineSet
Validated: 1
EndChar

StartChar: m
Encoding: 109 109 328
Width: 860
GlyphClass: 2
Flags: W
AnchorPoint: "Anchor-4" 431 530 basechar 0
AnchorPoint: "Anchor-3" 431 0 basechar 0
LayerCount: 2
Fore
SplineSet
84 511 m 128,-1,1
 103 530 103 530 132 530 c 2,2,-1
 607 530 l 2,3,4
 693 530 693 530 747.5 475 c 128,-1,5
 802 420 802 420 802 321 c 2,6,-1
 802 0 l 1,7,-1
 694 0 l 1,8,-1
 694 312 l 2,9,10
 694 438 694 438 581 438 c 2,11,-1
 487 438 l 1,12,-1
 487 0 l 1,13,-1
 379 0 l 1,14,-1
 379 438 l 1,15,-1
 173 438 l 1,16,-1
 173 0 l 1,17,-1
 65 0 l 1,18,-1
 65 463 l 2,19,0
 65 492 65 492 84 511 c 128,-1,1
EndSplineSet
Validated: 1048577
Substitution2: "'sups' Superscript in Latin lookup 48 subtable" m.superior
Substitution2: "'ss05' Style Set 5 in Latin lookup 32 subtable" m.ss01
Substitution2: "'ss01' Style Set 1 in Latin lookup 27 subtable" m.ss01
Substitution2: "'ordn' Ordinals in Latin lookup 20 subtable" m.superior
Substitution2: "'dnom' Denominators in Latin lookup 14 subtable" m.dnom
Substitution2: "'numr' Numerators in Latin lookup 13 subtable" m.numr
Substitution2: "'sups' Superscript in Latin lookup 12 subtable" m.superior
Substitution2: "'sinf' Scientific Inferiors in Latin lookup 11 subtable" m.inferior
Substitution2: "'subs' Subscript in Latin lookup 10 subtable" m.inferior
AlternateSubs2: "'aalt' Access All Alternates in Latin lookup 1 subtable" m.inferior m.superior m.numr m.dnom m.ss01
EndChar

StartChar: n
Encoding: 110 110 329
Width: 581
GlyphClass: 2
Flags: W
AnchorPoint: "Anchor-4" 283 562 basechar 0
AnchorPoint: "Anchor-3" 295 0 basechar 0
LayerCount: 2
Fore
SplineSet
84 511 m 128,-1,1
 103 530 103 530 132 530 c 2,2,-1
 328 530 l 2,3,4
 414 530 414 530 468.5 475 c 128,-1,5
 523 420 523 420 523 321 c 2,6,-1
 523 0 l 1,7,-1
 415 0 l 1,8,-1
 415 312 l 2,9,10
 415 438 415 438 302 438 c 2,11,-1
 173 438 l 1,12,-1
 173 0 l 1,13,-1
 65 0 l 1,14,-1
 65 463 l 2,15,0
 65 492 65 492 84 511 c 128,-1,1
EndSplineSet
Validated: 1048577
Substitution2: "'sups' Superscript in Latin lookup 48 subtable" n.superior
Substitution2: "'ss05' Style Set 5 in Latin lookup 32 subtable" n.ss01
Substitution2: "'ss01' Style Set 1 in Latin lookup 27 subtable" n.ss01
Substitution2: "'ordn' Ordinals in Latin lookup 20 subtable" n.superior
Substitution2: "'dnom' Denominators in Latin lookup 14 subtable" n.dnom
Substitution2: "'numr' Numerators in Latin lookup 13 subtable" n.numr
Substitution2: "'sups' Superscript in Latin lookup 12 subtable" n.superior
Substitution2: "'sinf' Scientific Inferiors in Latin lookup 11 subtable" n.inferior
Substitution2: "'subs' Subscript in Latin lookup 10 subtable" n.inferior
AlternateSubs2: "'aalt' Access All Alternates in Latin lookup 1 subtable" n.inferior n.superior n.numr n.dnom n.ss01
EndChar

StartChar: eng
Encoding: 331 331 333
Width: 581
GlyphClass: 2
Flags: W
AnchorPoint: "Anchor-4" 292 530 basechar 0
AnchorPoint: "Anchor-3" 292 0 basechar 0
LayerCount: 2
Fore
SplineSet
468.5 475 m 128,-1,1
 523 420 523 420 523 321 c 2,2,-1
 523 -110 l 2,3,4
 523 -142 523 -142 504 -161 c 128,-1,5
 485 -180 485 -180 451 -180 c 2,6,-1
 295 -180 l 1,7,-1
 295 -89 l 1,8,-1
 415 -89 l 1,9,-1
 415 312 l 2,10,11
 415 438 415 438 302 438 c 2,12,-1
 173 438 l 1,13,-1
 173 0 l 1,14,-1
 65 0 l 1,15,-1
 65 463 l 2,16,17
 65 492 65 492 84 511 c 128,-1,18
 103 530 103 530 132 530 c 2,19,-1
 328 530 l 2,20,0
 414 530 414 530 468.5 475 c 128,-1,1
EndSplineSet
Validated: 1048577
Substitution2: "'ss05' Style Set 5 in Latin lookup 32 subtable" eng.aalt
Substitution2: "'ss01' Style Set 1 in Latin lookup 27 subtable" eng.aalt
Substitution2: "'aalt' Access All Alternates in Latin lookup 0 subtable" eng.aalt
EndChar

StartChar: o
Encoding: 111 111 335
Width: 615
GlyphClass: 2
Flags: W
AnchorPoint: "Anchor-6" 597 530 basechar 0
AnchorPoint: "Anchor-5" 307 265 basechar 0
AnchorPoint: "Anchor-4" 307 562 basechar 0
AnchorPoint: "Anchor-3" 307 0 basechar 0
LayerCount: 2
Fore
SplineSet
175 22.5 m 128,-1,1
 115 55 115 55 79 117.5 c 128,-1,2
 43 180 43 180 43 265 c 256,3,4
 43 350 43 350 79 412.5 c 128,-1,5
 115 475 115 475 175 507.5 c 128,-1,6
 235 540 235 540 307 540 c 256,7,8
 379 540 379 540 439.5 507.5 c 128,-1,9
 500 475 500 475 536 413 c 128,-1,10
 572 351 572 351 572 265 c 256,11,12
 572 179 572 179 536 117 c 128,-1,13
 500 55 500 55 439.5 22.5 c 128,-1,14
 379 -10 379 -10 307 -10 c 256,15,0
 235 -10 235 -10 175 22.5 c 128,-1,1
174 162 m 128,-1,17
 196 120 196 120 231 99 c 128,-1,18
 266 78 266 78 307 78 c 256,19,20
 348 78 348 78 383.5 99 c 128,-1,21
 419 120 419 120 441 162 c 128,-1,22
 463 204 463 204 463 265 c 256,23,24
 463 326 463 326 441 368 c 128,-1,25
 419 410 419 410 383.5 431 c 128,-1,26
 348 452 348 452 307 452 c 256,27,28
 266 452 266 452 231 431 c 128,-1,29
 196 410 196 410 174 368 c 128,-1,30
 152 326 152 326 152 265 c 256,31,16
 152 204 152 204 174 162 c 128,-1,17
EndSplineSet
Validated: 1
Substitution2: "Single Substitution lookup 53 subtable" ordmasculine
Substitution2: "'sups' Superscript in Latin lookup 48 subtable" o.superior
Substitution2: "'ordn' Ordinals in Latin lookup 20 subtable" o.superior
Substitution2: "'dnom' Denominators in Latin lookup 14 subtable" o.dnom
Substitution2: "'numr' Numerators in Latin lookup 13 subtable" o.numr
Substitution2: "'sups' Superscript in Latin lookup 12 subtable" o.superior
Substitution2: "'sinf' Scientific Inferiors in Latin lookup 11 subtable" o.inferior
Substitution2: "'subs' Subscript in Latin lookup 10 subtable" o.inferior
AlternateSubs2: "'aalt' Access All Alternates in Latin lookup 1 subtable" o.inferior o.superior o.numr o.dnom ordmasculine
EndChar

StartChar: oslash
Encoding: 248 248 343
Width: 615
GlyphClass: 2
Flags: W
AnchorPoint: "Anchor-6" 597 530 basechar 0
AnchorPoint: "Anchor-5" 307 265 basechar 0
AnchorPoint: "Anchor-4" 307 562 basechar 0
AnchorPoint: "Anchor-3" 307 0 basechar 0
LayerCount: 2
Fore
SplineSet
184 18 m 1,1,-1
 143 -40 l 1,2,-1
 41 -40 l 1,3,-1
 117 67 l 1,4,5
 82 102 82 102 62.5 152.5 c 128,-1,6
 43 203 43 203 43 265 c 0,7,8
 43 350 43 350 79 412.5 c 128,-1,9
 115 475 115 475 175 507.5 c 128,-1,10
 235 540 235 540 307 540 c 0,11,12
 376 540 376 540 431 512 c 1,13,-1
 472 570 l 1,14,-1
 574 570 l 1,15,-1
 499 463 l 1,16,17
 534 427 534 427 553 377 c 128,-1,18
 572 327 572 327 572 265 c 0,19,20
 572 179 572 179 536 117 c 128,-1,21
 500 55 500 55 439.5 22.5 c 128,-1,22
 379 -10 379 -10 307 -10 c 0,23,0
 239 -10 239 -10 184 18 c 1,1,-1
178 153 m 1,25,-1
 378 435 l 1,26,27
 344 452 344 452 307 452 c 0,28,29
 266 452 266 452 231 431 c 128,-1,30
 196 410 196 410 174 368 c 128,-1,31
 152 326 152 326 152 265 c 0,32,24
 152 200 152 200 178 153 c 1,25,-1
307 78 m 0,34,35
 348 78 348 78 383.5 99 c 128,-1,36
 419 120 419 120 441 162 c 128,-1,37
 463 204 463 204 463 265 c 0,38,39
 463 331 463 331 436 377 c 1,40,-1
 238 95 l 1,41,33
 272 78 272 78 307 78 c 0,34,35
EndSplineSet
Validated: 1
EndChar

StartChar: oe
Encoding: 339 339 346
Width: 1026
GlyphClass: 2
Flags: W
AnchorPoint: "Anchor-6" 597 530 basechar 0
AnchorPoint: "Anchor-5" 307 265 basechar 0
AnchorPoint: "Anchor-4" 517 562 basechar 0
AnchorPoint: "Anchor-3" 725 0 basechar 0
LayerCount: 2
Fore
SplineSet
175 22.5 m 128,-1,1
 115 55 115 55 79 117.5 c 128,-1,2
 43 180 43 180 43 265 c 128,-1,3
 43 350 43 350 79 412.5 c 128,-1,4
 115 475 115 475 175 507.5 c 128,-1,5
 235 540 235 540 307 540 c 0,6,7
 371 540 371 540 426.5 514.5 c 128,-1,8
 482 489 482 489 518 441 c 1,9,10
 553 488 553 488 606 514 c 128,-1,11
 659 540 659 540 724 540 c 0,12,13
 803 540 803 540 864.5 503 c 128,-1,14
 926 466 926 466 958.5 396.5 c 128,-1,15
 991 327 991 327 985 234 c 1,16,-1
 571 234 l 1,17,18
 579 164 579 164 620.5 120 c 128,-1,19
 662 76 662 76 724 76 c 0,20,21
 770 76 770 76 804.5 100 c 128,-1,22
 839 124 839 124 855 165 c 1,23,-1
 970 165 l 1,24,25
 947 84 947 84 880.5 37 c 128,-1,26
 814 -10 814 -10 724 -10 c 0,27,28
 659 -10 659 -10 605.5 16 c 128,-1,29
 552 42 552 42 517 88 c 1,30,31
 481 41 481 41 426 15.5 c 128,-1,32
 371 -10 371 -10 307 -10 c 0,33,0
 235 -10 235 -10 175 22.5 c 128,-1,1
174 162 m 128,-1,35
 196 120 196 120 231 99 c 128,-1,36
 266 78 266 78 307 78 c 128,-1,37
 348 78 348 78 383.5 99 c 128,-1,38
 419 120 419 120 441 162 c 128,-1,39
 463 204 463 204 463 265 c 128,-1,40
 463 326 463 326 441 368 c 128,-1,41
 419 410 419 410 383.5 431 c 128,-1,42
 348 452 348 452 307 452 c 128,-1,43
 266 452 266 452 231 431 c 128,-1,44
 196 410 196 410 174 368 c 128,-1,45
 152 326 152 326 152 265 c 128,-1,34
 152 204 152 204 174 162 c 128,-1,35
876 317 m 1,46,47
 865 379 865 379 824 417 c 128,-1,48
 783 455 783 455 724 455 c 0,49,50
 666 455 666 455 626 417 c 128,-1,51
 586 379 586 379 574 317 c 1,52,-1
 876 317 l 1,46,47
EndSplineSet
Validated: 33
EndChar

StartChar: p
Encoding: 112 112 347
Width: 603
GlyphClass: 2
Flags: W
AnchorPoint: "Anchor-4" 304 530 basechar 0
AnchorPoint: "Anchor-3" 304 0 basechar 0
LayerCount: 2
Fore
SplineSet
84 511 m 128,-1,1
 103 530 103 530 132 530 c 2,2,-1
 307 530 l 2,3,4
 380 530 380 530 437.5 497.5 c 128,-1,5
 495 465 495 465 528 404.5 c 128,-1,6
 561 344 561 344 561 265 c 0,7,8
 561 185 561 185 528 125 c 128,-1,9
 495 65 495 65 437.5 32.5 c 128,-1,10
 380 0 380 0 307 0 c 2,11,-1
 173 0 l 1,12,-1
 173 -180 l 1,13,-1
 65 -180 l 1,14,-1
 65 463 l 2,15,0
 65 492 65 492 84 511 c 128,-1,1
294 92 m 2,16,17
 370 92 370 92 410.5 137 c 128,-1,18
 451 182 451 182 451 265 c 0,19,20
 451 347 451 347 410.5 392.5 c 128,-1,21
 370 438 370 438 294 438 c 2,22,-1
 173 438 l 1,23,-1
 173 92 l 1,24,-1
 294 92 l 2,16,17
EndSplineSet
Validated: 1048577
Substitution2: "'sups' Superscript in Latin lookup 48 subtable" p.superior
Substitution2: "'ss04' Style Set 4 in Latin lookup 31 subtable" p.ss01
Substitution2: "'ss01' Style Set 1 in Latin lookup 27 subtable" p.ss01
Substitution2: "'ordn' Ordinals in Latin lookup 20 subtable" p.superior
Substitution2: "'dnom' Denominators in Latin lookup 14 subtable" p.dnom
Substitution2: "'numr' Numerators in Latin lookup 13 subtable" p.numr
Substitution2: "'sups' Superscript in Latin lookup 12 subtable" p.superior
Substitution2: "'sinf' Scientific Inferiors in Latin lookup 11 subtable" p.inferior
Substitution2: "'subs' Subscript in Latin lookup 10 subtable" p.inferior
AlternateSubs2: "'aalt' Access All Alternates in Latin lookup 1 subtable" p.inferior p.superior p.numr p.dnom p.ss01
EndChar

StartChar: thorn
Encoding: 254 254 348
Width: 603
GlyphClass: 2
Flags: W
AnchorPoint: "Anchor-4" 304 530 basechar 0
AnchorPoint: "Anchor-3" 304 0 basechar 0
LayerCount: 2
Fore
SplineSet
65 710 m 1,0,-1
 173 710 l 1,1,-1
 173 530 l 1,2,-1
 315 530 l 2,3,4
 384 530 384 530 440 497.5 c 128,-1,5
 496 465 496 465 528.5 404.5 c 128,-1,6
 561 344 561 344 561 265 c 0,7,8
 561 185 561 185 528.5 125 c 128,-1,9
 496 65 496 65 440 32.5 c 128,-1,10
 384 0 384 0 315 0 c 2,11,-1
 173 0 l 1,12,-1
 173 -180 l 1,13,-1
 65 -180 l 1,14,-1
 65 710 l 1,0,-1
294 92 m 2,15,16
 370 92 370 92 410.5 137 c 128,-1,17
 451 182 451 182 451 265 c 0,18,19
 451 347 451 347 410.5 392.5 c 128,-1,20
 370 438 370 438 294 438 c 2,21,-1
 173 438 l 1,22,-1
 173 92 l 1,23,-1
 294 92 l 2,15,16
EndSplineSet
Validated: 1048577
Substitution2: "'ss04' Style Set 4 in Latin lookup 31 subtable" thorn.aalt
Substitution2: "'ss01' Style Set 1 in Latin lookup 27 subtable" thorn.aalt
Substitution2: "'aalt' Access All Alternates in Latin lookup 0 subtable" thorn.aalt
EndChar

StartChar: q
Encoding: 113 113 349
Width: 603
GlyphClass: 2
Flags: W
AnchorPoint: "Anchor-4" 297 530 basechar 0
AnchorPoint: "Anchor-3" 297 0 basechar 0
LayerCount: 2
Fore
SplineSet
430 0 m 1,0,-1
 296 0 l 2,1,2
 223 0 223 0 165.5 32.5 c 128,-1,3
 108 65 108 65 75 125 c 128,-1,4
 42 185 42 185 42 265 c 0,5,6
 42 344 42 344 75 404.5 c 128,-1,7
 108 465 108 465 165.5 497.5 c 128,-1,8
 223 530 223 530 296 530 c 2,9,-1
 471 530 l 2,10,11
 500 530 500 530 519 511 c 128,-1,12
 538 492 538 492 538 463 c 2,13,-1
 538 -180 l 1,14,-1
 430 -180 l 1,15,-1
 430 0 l 1,0,-1
192.5 137 m 128,-1,17
 233 92 233 92 309 92 c 2,18,-1
 430 92 l 1,19,-1
 430 438 l 1,20,-1
 309 438 l 2,21,22
 233 438 233 438 192.5 392.5 c 128,-1,23
 152 347 152 347 152 265 c 0,24,16
 152 182 152 182 192.5 137 c 128,-1,17
EndSplineSet
Validated: 1048577
Substitution2: "'sups' Superscript in Latin lookup 48 subtable" q.superior
Substitution2: "'ss04' Style Set 4 in Latin lookup 31 subtable" q.ss01
Substitution2: "'ss01' Style Set 1 in Latin lookup 27 subtable" q.ss01
Substitution2: "'ordn' Ordinals in Latin lookup 20 subtable" q.superior
Substitution2: "'dnom' Denominators in Latin lookup 14 subtable" q.dnom
Substitution2: "'numr' Numerators in Latin lookup 13 subtable" q.numr
Substitution2: "'sups' Superscript in Latin lookup 12 subtable" q.superior
Substitution2: "'sinf' Scientific Inferiors in Latin lookup 11 subtable" q.inferior
Substitution2: "'subs' Subscript in Latin lookup 10 subtable" q.inferior
AlternateSubs2: "'aalt' Access All Alternates in Latin lookup 1 subtable" q.inferior q.superior q.numr q.dnom q.ss01
EndChar

StartChar: r
Encoding: 114 114 350
Width: 356
GlyphClass: 2
Flags: W
AnchorPoint: "Anchor-4" 193 562 basechar 0
AnchorPoint: "Anchor-3" 119 0 basechar 0
LayerCount: 2
Fore
SplineSet
84 511.5 m 128,-1,1
 103 530 103 530 132 530 c 2,2,-1
 322 530 l 1,3,-1
 322 437 l 1,4,-1
 173 437 l 1,5,-1
 173 0 l 1,6,-1
 65 0 l 1,7,-1
 65 463 l 2,8,0
 65 493 65 493 84 511.5 c 128,-1,1
EndSplineSet
Validated: 1048577
Substitution2: "'sups' Superscript in Latin lookup 48 subtable" r.superior
Substitution2: "'ss05' Style Set 5 in Latin lookup 32 subtable" r.ss01
Substitution2: "'ss01' Style Set 1 in Latin lookup 27 subtable" r.ss01
Substitution2: "'ordn' Ordinals in Latin lookup 20 subtable" r.superior
Substitution2: "'dnom' Denominators in Latin lookup 14 subtable" r.dnom
Substitution2: "'numr' Numerators in Latin lookup 13 subtable" r.numr
Substitution2: "'sups' Superscript in Latin lookup 12 subtable" r.superior
Substitution2: "'sinf' Scientific Inferiors in Latin lookup 11 subtable" r.inferior
Substitution2: "'subs' Subscript in Latin lookup 10 subtable" r.inferior
AlternateSubs2: "'aalt' Access All Alternates in Latin lookup 1 subtable" r.inferior r.superior r.numr r.dnom r.ss01
EndChar

StartChar: s
Encoding: 115 115 354
Width: 528
GlyphClass: 2
Flags: W
AnchorPoint: "Anchor-4" 260 562 basechar 0
AnchorPoint: "Anchor-3" 265 0 basechar 0
LayerCount: 2
Fore
SplineSet
106.5 34 m 128,-1,1
 45 78 45 78 38 165 c 1,2,-1
 149 165 l 1,3,4
 166 74 166 74 267 74 c 0,5,6
 313 74 313 74 346 91 c 128,-1,7
 379 108 379 108 379 146 c 0,8,9
 379 171 379 171 361.5 186.5 c 128,-1,10
 344 202 344 202 318 210.5 c 128,-1,11
 292 219 292 219 245 230 c 0,12,13
 184 244 184 244 145.5 258 c 128,-1,14
 107 272 107 272 80 302 c 128,-1,15
 53 332 53 332 53 383 c 0,16,17
 53 458 53 458 111.5 499 c 128,-1,18
 170 540 170 540 260 540 c 0,19,20
 356 540 356 540 413.5 494 c 128,-1,21
 471 448 471 448 477 368 c 1,22,-1
 367 368 l 1,23,24
 364 411 364 411 336.5 433.5 c 128,-1,25
 309 456 309 456 258 456 c 0,26,27
 218 456 218 456 189 440 c 128,-1,28
 160 424 160 424 160 393 c 128,-1,29
 160 362 160 362 191 347 c 128,-1,30
 222 332 222 332 288 315 c 0,31,32
 351 298 351 298 391 282.5 c 128,-1,33
 431 267 431 267 459.5 235 c 128,-1,34
 488 203 488 203 488 152 c 0,35,36
 488 72 488 72 424.5 31 c 128,-1,37
 361 -10 361 -10 265 -10 c 0,38,0
 168 -10 168 -10 106.5 34 c 128,-1,1
EndSplineSet
Validated: 1048577
Substitution2: "'sups' Superscript in Latin lookup 48 subtable" S.aalt
Substitution2: "'ordn' Ordinals in Latin lookup 20 subtable" S.aalt
Substitution2: "'dnom' Denominators in Latin lookup 14 subtable" s.dnom
Substitution2: "'numr' Numerators in Latin lookup 13 subtable" s.numr
Substitution2: "'sups' Superscript in Latin lookup 12 subtable" S.aalt
Substitution2: "'sinf' Scientific Inferiors in Latin lookup 11 subtable" s.inferior
Substitution2: "'subs' Subscript in Latin lookup 10 subtable" s.inferior
AlternateSubs2: "'aalt' Access All Alternates in Latin lookup 1 subtable" s.inferior S.aalt s.numr s.dnom
EndChar

StartChar: uniA78C
Encoding: 42892 42892 356
Width: 161
GlyphClass: 1
Flags: W
LayerCount: 2
Fore
SplineSet
23 710 m 1,0,-1
 138 710 l 1,1,-1
 120 415 l 1,2,-1
 41 415 l 1,3,-1
 23 710 l 1,0,-1
EndSplineSet
Validated: 1
EndChar

StartChar: scedilla
Encoding: 351 351 358
Width: 528
GlyphClass: 2
Flags: W
AnchorPoint: "Anchor-3" 293 -230 basechar 0
LayerCount: 2
Fore
SplineSet
190 -179 m 1,0,-1
 275 -179 l 2,1,2
 295 -179 295 -179 306 -170.5 c 128,-1,3
 317 -162 317 -162 317 -146 c 2,4,-1
 317 -144 l 2,5,6
 317 -130 317 -130 306 -121.5 c 128,-1,7
 295 -113 295 -113 275 -113 c 2,8,-1
 203 -113 l 1,9,-1
 196 -106 l 1,10,-1
 223 -8 l 1,11,12
 142 1 142 1 93 44.5 c 128,-1,13
 44 88 44 88 38 165 c 1,14,-1
 149 165 l 1,15,16
 166 74 166 74 267 74 c 0,17,18
 313 74 313 74 346 91 c 128,-1,19
 379 108 379 108 379 146 c 0,20,21
 379 171 379 171 361.5 186.5 c 128,-1,22
 344 202 344 202 318 210.5 c 128,-1,23
 292 219 292 219 245 230 c 0,24,25
 184 244 184 244 145.5 258 c 128,-1,26
 107 272 107 272 80 302 c 128,-1,27
 53 332 53 332 53 383 c 0,28,29
 53 458 53 458 111.5 499 c 128,-1,30
 170 540 170 540 260 540 c 0,31,32
 356 540 356 540 413.5 494 c 128,-1,33
 471 448 471 448 477 368 c 1,34,-1
 367 368 l 1,35,36
 364 411 364 411 336.5 433.5 c 128,-1,37
 309 456 309 456 258 456 c 0,38,39
 218 456 218 456 189 440 c 128,-1,40
 160 424 160 424 160 393 c 128,-1,41
 160 362 160 362 191 347 c 128,-1,42
 222 332 222 332 288 315 c 0,43,44
 351 298 351 298 391 282.5 c 128,-1,45
 431 267 431 267 459.5 235 c 128,-1,46
 488 203 488 203 488 152 c 0,47,48
 488 80 488 80 435.5 39.5 c 128,-1,49
 383 -1 383 -1 300 -8 c 1,50,-1
 275 -54 l 1,51,-1
 275 -62 l 1,52,-1
 300 -62 l 2,53,54
 338 -62 338 -62 366.5 -83.5 c 128,-1,55
 395 -105 395 -105 395 -144 c 2,56,-1
 395 -146 l 2,57,58
 395 -187 395 -187 366.5 -208.5 c 128,-1,59
 338 -230 338 -230 300 -230 c 2,60,-1
 190 -230 l 1,61,-1
 190 -179 l 1,0,-1
EndSplineSet
Validated: 1048577
Substitution2: "'locl' Localized Forms in Latin lookup 6 subtable" uni0219
Substitution2: "'aalt' Access All Alternates in Latin lookup 0 subtable" uni0219
EndChar

StartChar: germandbls
Encoding: 223 223 361
Width: 598
GlyphClass: 2
Flags: W
AnchorPoint: "Anchor-4" 302 710 basechar 0
AnchorPoint: "Anchor-3" 302 0 basechar 0
LayerCount: 2
Fore
SplineSet
125.5 657.5 m 128,-1,1
 185 720 185 720 300 720 c 0,2,3
 363 720 363 720 413.5 696.5 c 128,-1,4
 464 673 464 673 492.5 631.5 c 128,-1,5
 521 590 521 590 521 536 c 0,6,7
 521 486 521 486 495.5 445.5 c 128,-1,8
 470 405 470 405 432 390 c 1,9,10
 486 372 486 372 522.5 326 c 128,-1,11
 559 280 559 280 559 209 c 0,12,13
 559 150 559 150 531 102 c 128,-1,14
 503 54 503 54 453 27 c 128,-1,15
 403 0 403 0 339 0 c 2,16,-1
 240 0 l 1,17,-1
 240 93 l 1,18,-1
 325 93 l 2,19,20
 383 93 383 93 416.5 126.5 c 128,-1,21
 450 160 450 160 450 210 c 0,22,23
 450 266 450 266 418 298.5 c 128,-1,24
 386 331 386 331 325 331 c 2,25,-1
 240 331 l 1,26,-1
 240 422 l 1,27,-1
 293 422 l 2,28,29
 349 422 349 422 382.5 453.5 c 128,-1,30
 416 485 416 485 416 533 c 0,31,32
 416 580 416 580 383 605.5 c 128,-1,33
 350 631 350 631 300 631 c 0,34,35
 232 631 232 631 203 595 c 128,-1,36
 174 559 174 559 174 493 c 2,37,-1
 174 0 l 1,38,-1
 66 0 l 1,39,-1
 66 480 l 2,40,0
 66 595 66 595 125.5 657.5 c 128,-1,1
EndSplineSet
Validated: 1048577
Substitution2: "Single Substitution lookup 51 subtable" uni1E9E
Substitution2: "'aalt' Access All Alternates in Latin lookup 0 subtable" uni1E9E
EndChar

StartChar: t
Encoding: 116 116 362
Width: 380
GlyphClass: 2
Flags: W
AnchorPoint: "Anchor-6" 267 760 basechar 0
AnchorPoint: "Anchor-5" 191 265 basechar 0
AnchorPoint: "Anchor-4" 191 530 basechar 0
AnchorPoint: "Anchor-3" 220 0 basechar 0
LayerCount: 2
Fore
SplineSet
338 437 m 1,0,-1
 221 437 l 1,1,-1
 221 91 l 1,2,-1
 338 91 l 1,3,-1
 338 0 l 1,4,-1
 180 0 l 2,5,6
 151 0 151 0 132 19 c 128,-1,7
 113 38 113 38 113 67 c 2,8,-1
 113 437 l 1,9,-1
 34 437 l 1,10,-1
 34 530 l 1,11,-1
 113 530 l 1,12,-1
 113 665 l 1,13,-1
 221 665 l 1,14,-1
 221 530 l 1,15,-1
 338 530 l 1,16,-1
 338 437 l 1,0,-1
EndSplineSet
Validated: 1
Substitution2: "'sups' Superscript in Latin lookup 48 subtable" T.aalt
Substitution2: "'ordn' Ordinals in Latin lookup 20 subtable" T.aalt
Substitution2: "'dnom' Denominators in Latin lookup 14 subtable" t.dnom
Substitution2: "'numr' Numerators in Latin lookup 13 subtable" t.numr
Substitution2: "'sups' Superscript in Latin lookup 12 subtable" T.aalt
Substitution2: "'sinf' Scientific Inferiors in Latin lookup 11 subtable" t.inferior
Substitution2: "'subs' Subscript in Latin lookup 10 subtable" t.inferior
AlternateSubs2: "'aalt' Access All Alternates in Latin lookup 1 subtable" t.inferior T.aalt t.numr t.dnom
EndChar

StartChar: tbar
Encoding: 359 359 363
Width: 380
GlyphClass: 2
Flags: W
AnchorPoint: "Anchor-6" 267 760 basechar 0
AnchorPoint: "Anchor-5" 191 265 basechar 0
AnchorPoint: "Anchor-4" 191 530 basechar 0
AnchorPoint: "Anchor-3" 220 0 basechar 0
LayerCount: 2
Fore
SplineSet
338 437 m 1,0,-1
 221 437 l 1,1,-1
 221 302 l 1,2,-1
 339 302 l 1,3,-1
 339 226 l 1,4,-1
 221 226 l 1,5,-1
 221 91 l 1,6,-1
 338 91 l 1,7,-1
 338 0 l 1,8,-1
 180 0 l 2,9,10
 151 0 151 0 132 19 c 128,-1,11
 113 38 113 38 113 67 c 2,12,-1
 113 226 l 1,13,-1
 34 226 l 1,14,-1
 34 302 l 1,15,-1
 113 302 l 1,16,-1
 113 437 l 1,17,-1
 34 437 l 1,18,-1
 34 530 l 1,19,-1
 113 530 l 1,20,-1
 113 665 l 1,21,-1
 221 665 l 1,22,-1
 221 530 l 1,23,-1
 338 530 l 1,24,-1
 338 437 l 1,0,-1
EndSplineSet
Validated: 1
EndChar

StartChar: uni0163
Encoding: 355 355 365
Width: 380
GlyphClass: 2
Flags: W
AnchorPoint: "Anchor-6" 267 760 basechar 0
AnchorPoint: "Anchor-5" 191 265 basechar 0
AnchorPoint: "Anchor-3" 248 -230 basechar 0
LayerCount: 2
Fore
SplineSet
338 437 m 1,0,-1
 221 437 l 1,1,-1
 221 91 l 1,2,-1
 338 91 l 1,3,-1
 338 0 l 1,4,-1
 260 0 l 1,5,-1
 230 -54 l 1,6,-1
 230 -62 l 1,7,-1
 255 -62 l 2,8,9
 293 -62 293 -62 321.5 -83.5 c 128,-1,10
 350 -105 350 -105 350 -144 c 2,11,-1
 350 -146 l 2,12,13
 350 -187 350 -187 321.5 -208.5 c 128,-1,14
 293 -230 293 -230 255 -230 c 2,15,-1
 145 -230 l 1,16,-1
 145 -179 l 1,17,-1
 230 -179 l 2,18,19
 250 -179 250 -179 261 -170.5 c 128,-1,20
 272 -162 272 -162 272 -146 c 2,21,-1
 272 -144 l 2,22,23
 272 -130 272 -130 261 -121.5 c 128,-1,24
 250 -113 250 -113 230 -113 c 2,25,-1
 158 -113 l 1,26,-1
 151 -106 l 1,27,-1
 180 0 l 1,28,29
 151 0 151 0 132 19 c 128,-1,30
 113 38 113 38 113 67 c 2,31,-1
 113 437 l 1,32,-1
 34 437 l 1,33,-1
 34 530 l 1,34,-1
 113 530 l 1,35,-1
 113 665 l 1,36,-1
 221 665 l 1,37,-1
 221 530 l 1,38,-1
 338 530 l 1,39,-1
 338 437 l 1,0,-1
EndSplineSet
Validated: 1048577
Substitution2: "'locl' Localized Forms in Latin lookup 6 subtable" uni021B
Substitution2: "'aalt' Access All Alternates in Latin lookup 0 subtable" uni021B
EndChar

StartChar: u
Encoding: 117 117 367
Width: 570
GlyphClass: 2
Flags: W
AnchorPoint: "Anchor-4" 282 562 basechar 0
AnchorPoint: "Anchor-3" 336 0 basechar 0
LayerCount: 2
Fore
SplineSet
153.5 24 m 128,-1,1
 109 48 109 48 83.5 95.5 c 128,-1,2
 58 143 58 143 58 209 c 2,3,-1
 58 530 l 1,4,-1
 166 530 l 1,5,-1
 166 218 l 2,6,7
 166 92 166 92 279 92 c 2,8,-1
 397 92 l 1,9,-1
 397 530 l 1,10,-1
 505 530 l 1,11,-1
 505 67 l 2,12,13
 505 38 505 38 486 19 c 128,-1,14
 467 0 467 0 438 0 c 2,15,-1
 253 0 l 2,16,0
 198 0 198 0 153.5 24 c 128,-1,1
EndSplineSet
Validated: 1048577
Substitution2: "'sups' Superscript in Latin lookup 48 subtable" U.aalt
Substitution2: "'ss05' Style Set 5 in Latin lookup 32 subtable" u.ss01
Substitution2: "'ss01' Style Set 1 in Latin lookup 27 subtable" u.ss01
Substitution2: "'ordn' Ordinals in Latin lookup 20 subtable" U.aalt
Substitution2: "'dnom' Denominators in Latin lookup 14 subtable" u.dnom
Substitution2: "'numr' Numerators in Latin lookup 13 subtable" u.numr
Substitution2: "'sups' Superscript in Latin lookup 12 subtable" U.aalt
Substitution2: "'sinf' Scientific Inferiors in Latin lookup 11 subtable" u.inferior
Substitution2: "'subs' Subscript in Latin lookup 10 subtable" u.inferior
AlternateSubs2: "'aalt' Access All Alternates in Latin lookup 1 subtable" u.inferior U.aalt u.numr u.dnom u.ss01
EndChar

StartChar: uogonek
Encoding: 371 371 375
Width: 570
GlyphClass: 2
Flags: W
AnchorPoint: "Anchor-3" 336 0 basechar 0
LayerCount: 2
Fore
SplineSet
153.5 24 m 128,-1,1
 109 48 109 48 83.5 95.5 c 128,-1,2
 58 143 58 143 58 209 c 2,3,-1
 58 530 l 1,4,-1
 166 530 l 1,5,-1
 166 218 l 2,6,7
 166 92 166 92 279 92 c 2,8,-1
 397 92 l 1,9,-1
 397 530 l 1,10,-1
 505 530 l 1,11,-1
 505 67 l 2,12,13
 505 38 505 38 486 19 c 128,-1,14
 467 0 467 0 438 0 c 2,15,-1
 370 0 l 1,16,17
 292 -25 292 -25 292 -60 c 0,18,19
 292 -73 292 -73 304.5 -81 c 128,-1,20
 317 -89 317 -89 339 -89 c 2,21,-1
 370 -89 l 1,22,-1
 370 -180 l 1,23,-1
 321 -180 l 2,24,25
 261 -180 261 -180 230 -155.5 c 128,-1,26
 199 -131 199 -131 199 -94 c 0,27,28
 199 -36 199 -36 253 0 c 1,29,0
 198 0 198 0 153.5 24 c 128,-1,1
EndSplineSet
Validated: 1048577
Substitution2: "'ss05' Style Set 5 in Latin lookup 32 subtable" uogonek.aalt
Substitution2: "'ss01' Style Set 1 in Latin lookup 27 subtable" uogonek.aalt
Substitution2: "'aalt' Access All Alternates in Latin lookup 0 subtable" uogonek.aalt
EndChar

StartChar: v
Encoding: 118 118 378
Width: 578
GlyphClass: 2
Flags: W
AnchorPoint: "Anchor-4" 289 530 basechar 0
AnchorPoint: "Anchor-3" 289 0 basechar 0
LayerCount: 2
Fore
SplineSet
31 521 m 1,0,-1
 31 530 l 1,1,-1
 143 530 l 1,2,-1
 242 216 l 1,3,-1
 280 93 l 1,4,-1
 299 93 l 1,5,-1
 337 216 l 1,6,-1
 436 530 l 1,7,-1
 547 530 l 1,8,-1
 547 521 l 1,9,-1
 368 0 l 1,10,-1
 210 0 l 1,11,-1
 31 521 l 1,0,-1
EndSplineSet
Validated: 1048577
Substitution2: "'sups' Superscript in Latin lookup 48 subtable" V.aalt
Substitution2: "'ordn' Ordinals in Latin lookup 20 subtable" V.aalt
Substitution2: "'dnom' Denominators in Latin lookup 14 subtable" v.dnom
Substitution2: "'numr' Numerators in Latin lookup 13 subtable" v.numr
Substitution2: "'sups' Superscript in Latin lookup 12 subtable" V.aalt
Substitution2: "'sinf' Scientific Inferiors in Latin lookup 11 subtable" v.inferior
Substitution2: "'subs' Subscript in Latin lookup 10 subtable" v.inferior
AlternateSubs2: "'aalt' Access All Alternates in Latin lookup 1 subtable" v.inferior V.aalt v.numr v.dnom
EndChar

StartChar: w
Encoding: 119 119 379
Width: 863
GlyphClass: 2
Flags: W
AnchorPoint: "Anchor-4" 432 562 basechar 0
AnchorPoint: "Anchor-3" 432 0 basechar 0
LayerCount: 2
Fore
SplineSet
622 93 m 1,0,-1
 648 216 l 1,1,-1
 721 530 l 1,2,-1
 831 530 l 1,3,-1
 831 522 l 1,4,-1
 693 0 l 1,5,-1
 537 0 l 1,6,-1
 464 314 l 1,7,-1
 440 437 l 1,8,-1
 424 437 l 1,9,-1
 399 314 l 1,10,-1
 326 0 l 1,11,-1
 170 0 l 1,12,-1
 32 522 l 1,13,-1
 32 530 l 1,14,-1
 142 530 l 1,15,-1
 215 216 l 1,16,-1
 241 93 l 1,17,-1
 256 93 l 1,18,-1
 280 216 l 1,19,-1
 353 530 l 1,20,-1
 510 530 l 1,21,-1
 583 216 l 1,22,-1
 608 93 l 1,23,-1
 622 93 l 1,0,-1
EndSplineSet
Validated: 1048577
Substitution2: "'sups' Superscript in Latin lookup 48 subtable" X.aalt
Substitution2: "'ordn' Ordinals in Latin lookup 20 subtable" X.aalt
Substitution2: "'dnom' Denominators in Latin lookup 14 subtable" w.dnom
Substitution2: "'numr' Numerators in Latin lookup 13 subtable" w.numr
Substitution2: "'sups' Superscript in Latin lookup 12 subtable" X.aalt
Substitution2: "'sinf' Scientific Inferiors in Latin lookup 11 subtable" w.inferior
Substitution2: "'subs' Subscript in Latin lookup 10 subtable" w.inferior
AlternateSubs2: "'aalt' Access All Alternates in Latin lookup 1 subtable" w.inferior X.aalt w.numr w.dnom
EndChar

StartChar: x
Encoding: 120 120 384
Width: 585
GlyphClass: 2
Flags: W
AnchorPoint: "Anchor-4" 292 530 basechar 0
AnchorPoint: "Anchor-3" 292 0 basechar 0
LayerCount: 2
Fore
SplineSet
553 7 m 1,0,-1
 553 0 l 1,1,-1
 439 0 l 1,2,-1
 311 222 l 1,3,-1
 274 222 l 1,4,-1
 146 0 l 1,5,-1
 32 0 l 1,6,-1
 32 7 l 1,7,-1
 185 261 l 1,8,-1
 185 281 l 1,9,-1
 32 523 l 1,10,-1
 32 530 l 1,11,-1
 146 530 l 1,12,-1
 274 315 l 1,13,-1
 311 315 l 1,14,-1
 439 530 l 1,15,-1
 553 530 l 1,16,-1
 553 523 l 1,17,-1
 400 281 l 1,18,-1
 400 261 l 1,19,-1
 553 7 l 1,0,-1
EndSplineSet
Validated: 1048577
Substitution2: "Single Substitution lookup 56 subtable" multiply.aalt
Substitution2: "Single Substitution lookup 55 subtable" glyph871
Substitution2: "Single Substitution lookup 54 subtable" multiply.aalt
Substitution2: "'sups' Superscript in Latin lookup 48 subtable" Y.aalt
Substitution2: "'ordn' Ordinals in Latin lookup 20 subtable" Y.aalt
Substitution2: "'dnom' Denominators in Latin lookup 14 subtable" x.dnom
Substitution2: "'numr' Numerators in Latin lookup 13 subtable" x.numr
Substitution2: "'sups' Superscript in Latin lookup 12 subtable" Y.aalt
Substitution2: "'sinf' Scientific Inferiors in Latin lookup 11 subtable" x.inferior
Substitution2: "'subs' Subscript in Latin lookup 10 subtable" x.inferior
AlternateSubs2: "'aalt' Access All Alternates in Latin lookup 1 subtable" x.inferior Y.aalt x.numr x.dnom multiply.aalt glyph871
EndChar

StartChar: y
Encoding: 121 121 385
Width: 579
GlyphClass: 2
Flags: W
AnchorPoint: "Anchor-4" 289 562 basechar 0
AnchorPoint: "Anchor-3" 289 0 basechar 0
LayerCount: 2
Fore
SplineSet
100 -89 m 1,0,-1
 246 -89 l 1,1,-1
 270 2 l 1,2,-1
 209 2 l 1,3,-1
 31 522 l 1,4,-1
 31 530 l 1,5,-1
 143 530 l 1,6,-1
 243 216 l 1,7,-1
 280 93 l 1,8,-1
 299 93 l 1,9,-1
 336 216 l 1,10,-1
 436 530 l 1,11,-1
 547 530 l 1,12,-1
 547 522 l 1,13,-1
 328 -119 l 2,14,15
 308 -180 308 -180 244 -180 c 2,16,-1
 100 -180 l 1,17,-1
 100 -89 l 1,0,-1
EndSplineSet
Validated: 1048577
Substitution2: "'sups' Superscript in Latin lookup 48 subtable" W.aalt
Substitution2: "'ordn' Ordinals in Latin lookup 20 subtable" W.aalt
Substitution2: "'dnom' Denominators in Latin lookup 14 subtable" y.dnom
Substitution2: "'numr' Numerators in Latin lookup 13 subtable" y.numr
Substitution2: "'sups' Superscript in Latin lookup 12 subtable" W.aalt
Substitution2: "'sinf' Scientific Inferiors in Latin lookup 11 subtable" y.inferior
Substitution2: "'subs' Subscript in Latin lookup 10 subtable" y.inferior
AlternateSubs2: "'aalt' Access All Alternates in Latin lookup 1 subtable" y.inferior W.aalt y.numr y.dnom
EndChar

StartChar: z
Encoding: 122 122 391
Width: 515
GlyphClass: 2
Flags: W
AnchorPoint: "Anchor-5" 257 265 basechar 0
AnchorPoint: "Anchor-4" 257 562 basechar 0
AnchorPoint: "Anchor-3" 257 0 basechar 0
LayerCount: 2
Fore
SplineSet
39 76 m 1,0,-1
 330 437 l 1,1,-1
 50 437 l 1,2,-1
 50 530 l 1,3,-1
 470 530 l 1,4,-1
 470 454 l 1,5,-1
 177 93 l 1,6,-1
 475 93 l 1,7,-1
 475 0 l 1,8,-1
 39 0 l 1,9,-1
 39 76 l 1,0,-1
EndSplineSet
Validated: 1048577
Substitution2: "'sups' Superscript in Latin lookup 48 subtable" Z.aalt
Substitution2: "'ordn' Ordinals in Latin lookup 20 subtable" Z.aalt
Substitution2: "'dnom' Denominators in Latin lookup 14 subtable" z.dnom
Substitution2: "'numr' Numerators in Latin lookup 13 subtable" z.numr
Substitution2: "'sups' Superscript in Latin lookup 12 subtable" Z.aalt
Substitution2: "'sinf' Scientific Inferiors in Latin lookup 11 subtable" z.inferior
Substitution2: "'subs' Subscript in Latin lookup 10 subtable" z.inferior
AlternateSubs2: "'aalt' Access All Alternates in Latin lookup 1 subtable" z.inferior Z.aalt z.numr z.dnom
EndChar

StartChar: glyph395
Encoding: 65662 -1 395
Width: 356
GlyphClass: 2
Flags: W
AnchorPoint: "Anchor-4" 193 562 basechar 0
AnchorPoint: "Anchor-3" 119 0 basechar 0
LayerCount: 2
Fore
SplineSet
84 511.5 m 128,-1,1
 103 530 103 530 132 530 c 2,2,-1
 322 530 l 1,3,-1
 322 437 l 1,4,-1
 173 437 l 1,5,-1
 173 0 l 1,6,-1
 65 0 l 1,7,-1
 65 463 l 2,8,0
 65 493 65 493 84 511.5 c 128,-1,1
EndSplineSet
Validated: 1048577
EndChar

StartChar: a.ss01
Encoding: 65666 -1 399
Width: 563
GlyphClass: 2
Flags: W
AnchorPoint: "Anchor-4" 288 562 basechar 0
AnchorPoint: "Anchor-3" 469 0 basechar 0
LayerCount: 2
Fore
SplineSet
90.5 32.5 m 128,-1,1
 40 75 40 75 40 152 c 0,2,3
 40 208 40 208 63 240 c 128,-1,4
 86 272 86 272 129.5 287.5 c 128,-1,5
 173 303 173 303 244 310 c 2,6,-1
 398 325 l 1,7,-1
 398 361 l 2,8,9
 398 410 398 410 369 432.5 c 128,-1,10
 340 455 340 455 285 455 c 0,11,12
 231 455 231 455 204 434 c 128,-1,13
 177 413 177 413 171 368 c 1,14,-1
 62 368 l 1,15,16
 65 450 65 450 126.5 495 c 128,-1,17
 188 540 188 540 289 540 c 0,18,19
 387 540 387 540 445 494.5 c 128,-1,20
 503 449 503 449 503 358 c 2,21,-1
 503 0 l 1,22,-1
 406 0 l 1,23,-1
 396 66 l 1,24,25
 366 26 366 26 321.5 8 c 128,-1,26
 277 -10 277 -10 225 -10 c 0,27,0
 141 -10 141 -10 90.5 32.5 c 128,-1,1
173.5 94 m 128,-1,29
 198 74 198 74 249 74 c 0,30,31
 312 74 312 74 355 106 c 128,-1,32
 398 138 398 138 398 190 c 2,33,-1
 398 245 l 1,34,-1
 265 230 l 2,35,36
 200 223 200 223 174.5 206.5 c 128,-1,37
 149 190 149 190 149 156 c 0,38,28
 149 114 149 114 173.5 94 c 128,-1,29
EndSplineSet
Validated: 1048577
Substitution2: "'ss03' Style Set 3 in Latin lookup 30 subtable" a.ss01.ss03
Substitution2: "'ss02' Style Set 2 in Latin lookup 29 subtable" a.ss01.ss02
AlternateSubs2: "'aalt' Access All Alternates in Latin lookup 1 subtable" a.ss01.ss02 a.ss01.ss03
EndChar

StartChar: aogonek.ss01
Encoding: 65673 -1 406
Width: 563
GlyphClass: 2
Flags: W
AnchorPoint: "Anchor-3" 469 0 basechar 0
LayerCount: 2
Fore
SplineSet
90.5 32.5 m 128,-1,1
 40 75 40 75 40 152 c 0,2,3
 40 208 40 208 63 240 c 128,-1,4
 86 272 86 272 129.5 287.5 c 128,-1,5
 173 303 173 303 244 310 c 2,6,-1
 398 325 l 1,7,-1
 398 361 l 2,8,9
 398 410 398 410 369 432.5 c 128,-1,10
 340 455 340 455 285 455 c 0,11,12
 231 455 231 455 204 434 c 128,-1,13
 177 413 177 413 171 368 c 1,14,-1
 62 368 l 1,15,16
 65 450 65 450 126.5 495 c 128,-1,17
 188 540 188 540 289 540 c 0,18,19
 387 540 387 540 445 494.5 c 128,-1,20
 503 449 503 449 503 358 c 2,21,-1
 503 0 l 1,22,23
 425 -25 425 -25 425 -60 c 0,24,25
 425 -73 425 -73 437.5 -81 c 128,-1,26
 450 -89 450 -89 472 -89 c 2,27,-1
 503 -89 l 1,28,-1
 503 -180 l 1,29,-1
 454 -180 l 2,30,31
 394 -180 394 -180 363 -155.5 c 128,-1,32
 332 -131 332 -131 332 -94 c 0,33,34
 332 -26 332 -26 404 11 c 1,35,-1
 396 66 l 1,36,37
 366 26 366 26 321.5 8 c 128,-1,38
 277 -10 277 -10 225 -10 c 0,39,0
 141 -10 141 -10 90.5 32.5 c 128,-1,1
173.5 94 m 128,-1,41
 198 74 198 74 249 74 c 0,42,43
 312 74 312 74 355 106 c 128,-1,44
 398 138 398 138 398 190 c 2,45,-1
 398 245 l 1,46,-1
 265 230 l 2,47,48
 200 223 200 223 174.5 206.5 c 128,-1,49
 149 190 149 190 149 156 c 0,50,40
 149 114 149 114 173.5 94 c 128,-1,41
EndSplineSet
Validated: 1048577
Substitution2: "'ss03' Style Set 3 in Latin lookup 30 subtable" aogonek.ss01.ss03
Substitution2: "'ss02' Style Set 2 in Latin lookup 29 subtable" aogonek.ss01.ss02
AlternateSubs2: "'aalt' Access All Alternates in Latin lookup 1 subtable" aogonek.ss01.ss02 aogonek.ss01.ss03
EndChar

StartChar: ae.aalt
Encoding: 65677 -1 410
Width: 956
GlyphClass: 2
Flags: W
AnchorPoint: "Anchor-4" 470 562 basechar 0
AnchorPoint: "Anchor-3" 478 0 basechar 0
LayerCount: 2
Fore
SplineSet
91 32.5 m 128,-1,1
 40 75 40 75 40 152 c 0,2,3
 40 208 40 208 63 240 c 128,-1,4
 86 272 86 272 129 287.5 c 128,-1,5
 172 303 172 303 243 310 c 2,6,-1
 397 325 l 1,7,-1
 397 361 l 2,8,9
 397 410 397 410 368.5 432 c 128,-1,10
 340 454 340 454 284 454 c 0,11,12
 230 454 230 454 203 433.5 c 128,-1,13
 176 413 176 413 171 368 c 1,14,-1
 62 368 l 1,15,16
 65 450 65 450 126.5 495 c 128,-1,17
 188 540 188 540 287 540 c 0,18,19
 349 540 349 540 396 521.5 c 128,-1,20
 443 503 443 503 469 465 c 1,21,22
 504 501 504 501 551.5 520.5 c 128,-1,23
 599 540 599 540 654 540 c 0,24,25
 732 540 732 540 793.5 502.5 c 128,-1,26
 855 465 855 465 888 396 c 128,-1,27
 921 327 921 327 915 234 c 1,28,-1
 501 234 l 1,29,30
 509 165 509 165 550.5 121 c 128,-1,31
 592 77 592 77 654 77 c 0,32,33
 700 77 700 77 734 100.5 c 128,-1,34
 768 124 768 124 785 165 c 1,35,-1
 900 165 l 1,36,37
 877 85 877 85 810.5 37.5 c 128,-1,38
 744 -10 744 -10 654 -10 c 0,39,40
 590 -10 590 -10 538 14.5 c 128,-1,41
 486 39 486 39 450 84 c 1,42,43
 405 27 405 27 348.5 8.5 c 128,-1,44
 292 -10 292 -10 229 -10 c 0,45,0
 142 -10 142 -10 91 32.5 c 128,-1,1
172.5 95 m 128,-1,47
 197 75 197 75 248 75 c 0,48,49
 311 75 311 75 354 106.5 c 128,-1,50
 397 138 397 138 397 190 c 2,51,-1
 397 245 l 1,52,-1
 264 230 l 2,53,54
 199 223 199 223 173.5 207 c 128,-1,55
 148 191 148 191 148 157 c 0,56,46
 148 115 148 115 172.5 95 c 128,-1,47
806 317 m 1,57,58
 794 379 794 379 753 417 c 128,-1,59
 712 455 712 455 654 455 c 128,-1,60
 596 455 596 455 556 416.5 c 128,-1,61
 516 378 516 378 504 317 c 1,62,-1
 806 317 l 1,57,58
EndSplineSet
Validated: 1048609
EndChar

StartChar: b.ss01
Encoding: 65679 -1 412
Width: 632
GlyphClass: 2
Flags: W
AnchorPoint: "Anchor-5" 319 265 basechar 0
AnchorPoint: "Anchor-4" 319 530 basechar 0
AnchorPoint: "Anchor-3" 319 0 basechar 0
LayerCount: 2
Fore
SplineSet
247.5 11 m 128,-1,1
 201 32 201 32 173 70 c 1,2,-1
 173 0 l 1,3,-1
 66 0 l 1,4,-1
 66 710 l 1,5,-1
 174 710 l 1,6,-1
 174 462 l 1,7,8
 203 499 203 499 249 519.5 c 128,-1,9
 295 540 295 540 348 540 c 0,10,11
 412 540 412 540 467.5 507 c 128,-1,12
 523 474 523 474 556.5 411.5 c 128,-1,13
 590 349 590 349 590 265 c 128,-1,14
 590 181 590 181 556 118.5 c 128,-1,15
 522 56 522 56 466 23 c 128,-1,16
 410 -10 410 -10 348 -10 c 0,17,0
 294 -10 294 -10 247.5 11 c 128,-1,1
190 162 m 128,-1,19
 212 120 212 120 247.5 99 c 128,-1,20
 283 78 283 78 324 78 c 128,-1,21
 365 78 365 78 400.5 99 c 128,-1,22
 436 120 436 120 457.5 162 c 128,-1,23
 479 204 479 204 479 265 c 128,-1,24
 479 326 479 326 457.5 368 c 128,-1,25
 436 410 436 410 400.5 431 c 128,-1,26
 365 452 365 452 324 452 c 128,-1,27
 283 452 283 452 247.5 431 c 128,-1,28
 212 410 212 410 190 368 c 128,-1,29
 168 326 168 326 168 265 c 128,-1,18
 168 204 168 204 190 162 c 128,-1,19
EndSplineSet
Validated: 1048577
EndChar

StartChar: d.ss01
Encoding: 65680 -1 413
Width: 632
GlyphClass: 2
Flags: W
AnchorPoint: "Anchor-6" 605 710 basechar 0
AnchorPoint: "Anchor-5" 311 265 basechar 0
AnchorPoint: "Anchor-4" 311 710 basechar 0
AnchorPoint: "Anchor-3" 311 0 basechar 0
LayerCount: 2
Fore
SplineSet
166.5 23 m 128,-1,1
 111 56 111 56 77 118.5 c 128,-1,2
 43 181 43 181 43 265 c 256,3,4
 43 349 43 349 77 411.5 c 128,-1,5
 111 474 111 474 166.5 507 c 128,-1,6
 222 540 222 540 287 540 c 0,7,8
 339 540 339 540 384.5 519.5 c 128,-1,9
 430 499 430 499 458 462 c 1,10,-1
 458 710 l 1,11,-1
 566 710 l 1,12,-1
 566 0 l 1,13,-1
 460 0 l 1,14,-1
 460 71 l 1,15,16
 432 33 432 33 385.5 11.5 c 128,-1,17
 339 -10 339 -10 287 -10 c 0,18,0
 222 -10 222 -10 166.5 23 c 128,-1,1
175 162 m 128,-1,20
 197 120 197 120 232.5 99 c 128,-1,21
 268 78 268 78 309 78 c 256,22,23
 350 78 350 78 385 99 c 128,-1,24
 420 120 420 120 442 162 c 128,-1,25
 464 204 464 204 464 265 c 256,26,27
 464 326 464 326 442 368 c 128,-1,28
 420 410 420 410 385 431 c 128,-1,29
 350 452 350 452 309 452 c 256,30,31
 268 452 268 452 232.5 431 c 128,-1,32
 197 410 197 410 175 368 c 128,-1,33
 153 326 153 326 153 265 c 256,34,19
 153 204 153 204 175 162 c 128,-1,20
EndSplineSet
Validated: 1
EndChar

StartChar: dcroat.aalt
Encoding: 65682 -1 415
Width: 632
GlyphClass: 2
Flags: W
AnchorPoint: "Anchor-6" 605 710 basechar 0
AnchorPoint: "Anchor-5" 311 265 basechar 0
AnchorPoint: "Anchor-4" 311 710 basechar 0
AnchorPoint: "Anchor-3" 311 0 basechar 0
LayerCount: 2
Fore
SplineSet
166.5 23 m 128,-1,1
 111 56 111 56 77 118.5 c 128,-1,2
 43 181 43 181 43 265 c 256,3,4
 43 349 43 349 77 411.5 c 128,-1,5
 111 474 111 474 166.5 507 c 128,-1,6
 222 540 222 540 287 540 c 0,7,8
 339 540 339 540 384.5 519.5 c 128,-1,9
 430 499 430 499 458 462 c 1,10,-1
 458 572 l 1,11,-1
 341 572 l 1,12,-1
 341 648 l 1,13,-1
 458 648 l 1,14,-1
 458 710 l 1,15,-1
 566 710 l 1,16,-1
 566 648 l 1,17,-1
 646 648 l 1,18,-1
 646 572 l 1,19,-1
 566 572 l 1,20,-1
 566 0 l 1,21,-1
 460 0 l 1,22,-1
 460 71 l 1,23,24
 432 33 432 33 385.5 11.5 c 128,-1,25
 339 -10 339 -10 287 -10 c 0,26,0
 222 -10 222 -10 166.5 23 c 128,-1,1
175 162 m 128,-1,28
 197 120 197 120 232.5 99 c 128,-1,29
 268 78 268 78 309 78 c 256,30,31
 350 78 350 78 385 99 c 128,-1,32
 420 120 420 120 442 162 c 128,-1,33
 464 204 464 204 464 265 c 256,34,35
 464 326 464 326 442 368 c 128,-1,36
 420 410 420 410 385 431 c 128,-1,37
 350 452 350 452 309 452 c 256,38,39
 268 452 268 452 232.5 431 c 128,-1,40
 197 410 197 410 175 368 c 128,-1,41
 153 326 153 326 153 265 c 256,42,27
 153 204 153 204 175 162 c 128,-1,28
EndSplineSet
Validated: 1
EndChar

StartChar: g.ss01
Encoding: 65683 -1 416
Width: 631
GlyphClass: 2
Flags: W
AnchorPoint: "Anchor-4" 311 562 basechar 0
AnchorPoint: "Anchor-3" 312 -180 basechar 0
LayerCount: 2
Fore
SplineSet
114 -89 m 1,0,-1
 457 -89 l 1,1,-1
 457 93 l 1,2,3
 427 53 427 53 382 34.5 c 128,-1,4
 337 16 337 16 288 16 c 0,5,6
 219 16 219 16 163 50.5 c 128,-1,7
 107 85 107 85 75 145 c 128,-1,8
 43 205 43 205 43 278 c 128,-1,9
 43 351 43 351 75 411 c 128,-1,10
 107 471 107 471 163 505.5 c 128,-1,11
 219 540 219 540 288 540 c 0,12,13
 338 540 338 540 383.5 520.5 c 128,-1,14
 429 501 429 501 459 460 c 1,15,-1
 459 530 l 1,16,-1
 565 530 l 1,17,-1
 565 -110 l 2,18,19
 565 -142 565 -142 546 -161 c 128,-1,20
 527 -180 527 -180 494 -180 c 2,21,-1
 114 -180 l 1,22,-1
 114 -89 l 1,0,-1
196 153 m 128,-1,24
 240 104 240 104 311 104 c 128,-1,25
 382 104 382 104 423 153.5 c 128,-1,26
 464 203 464 203 464 278 c 0,27,28
 464 354 464 354 422.5 403 c 128,-1,29
 381 452 381 452 311 452 c 0,30,31
 263 452 263 452 227 429 c 128,-1,32
 191 406 191 406 171.5 366.5 c 128,-1,33
 152 327 152 327 152 278 c 0,34,23
 152 202 152 202 196 153 c 128,-1,24
EndSplineSet
Validated: 1048577
EndChar

StartChar: h.ss01
Encoding: 65688 -1 421
Width: 583
GlyphClass: 2
Flags: W
AnchorPoint: "Anchor-5" 293 355 basechar 0
AnchorPoint: "Anchor-4" 120 732 basechar 0
AnchorPoint: "Anchor-3" 293 0 basechar 0
LayerCount: 2
Fore
SplineSet
66 710 m 1,0,-1
 174 710 l 1,1,-1
 174 467 l 1,2,-1
 177 467 l 1,3,4
 204 505 204 505 241 522.5 c 128,-1,5
 278 540 278 540 330 540 c 0,6,7
 415 540 415 540 469.5 485.5 c 128,-1,8
 524 431 524 431 524 331 c 2,9,-1
 524 0 l 1,10,-1
 416 0 l 1,11,-1
 416 324 l 2,12,13
 416 388 416 388 384 420 c 128,-1,14
 352 452 352 452 295 452 c 0,15,16
 237 452 237 452 205.5 420 c 128,-1,17
 174 388 174 388 174 324 c 2,18,-1
 174 0 l 1,19,-1
 66 0 l 1,20,-1
 66 710 l 1,0,-1
EndSplineSet
Validated: 1048577
EndChar

StartChar: hbar.aalt
Encoding: 65689 -1 422
Width: 583
GlyphClass: 2
Flags: W
AnchorPoint: "Anchor-5" 293 355 basechar 0
AnchorPoint: "Anchor-4" 120 732 basechar 0
AnchorPoint: "Anchor-3" 293 0 basechar 0
LayerCount: 2
Fore
SplineSet
66 572 m 1,0,-1
 -13 572 l 1,1,-1
 -13 648 l 1,2,-1
 66 648 l 1,3,-1
 66 710 l 1,4,-1
 174 710 l 1,5,-1
 174 648 l 1,6,-1
 292 648 l 1,7,-1
 292 572 l 1,8,-1
 174 572 l 1,9,-1
 174 467 l 1,10,-1
 177 467 l 1,11,12
 204 505 204 505 241 522.5 c 128,-1,13
 278 540 278 540 330 540 c 0,14,15
 415 540 415 540 469.5 485.5 c 128,-1,16
 524 431 524 431 524 331 c 2,17,-1
 524 0 l 1,18,-1
 416 0 l 1,19,-1
 416 324 l 2,20,21
 416 388 416 388 384 420 c 128,-1,22
 352 452 352 452 295 452 c 0,23,24
 237 452 237 452 205.5 420 c 128,-1,25
 174 388 174 388 174 324 c 2,26,-1
 174 0 l 1,27,-1
 66 0 l 1,28,-1
 66 572 l 1,0,-1
EndSplineSet
Validated: 1048577
EndChar

StartChar: m.ss01
Encoding: 65691 -1 424
Width: 926
GlyphClass: 2
Flags: W
AnchorPoint: "Anchor-4" 464 530 basechar 0
AnchorPoint: "Anchor-3" 464 0 basechar 0
LayerCount: 2
Fore
SplineSet
66 530 m 1,0,-1
 166 530 l 1,1,-1
 166 467 l 1,2,-1
 176 467 l 1,3,4
 230 540 230 540 328 540 c 0,5,6
 378 540 378 540 419.5 517.5 c 128,-1,7
 461 495 461 495 487 453 c 1,8,9
 538 540 538 540 666 540 c 0,10,11
 724 540 724 540 769.5 514.5 c 128,-1,12
 815 489 815 489 841 440 c 128,-1,13
 867 391 867 391 867 324 c 2,14,-1
 867 0 l 1,15,-1
 759 0 l 1,16,-1
 759 324 l 2,17,18
 759 452 759 452 640 452 c 128,-1,19
 521 452 521 452 521 323 c 2,20,-1
 521 0 l 1,21,-1
 413 0 l 1,22,-1
 413 323 l 2,23,24
 413 452 413 452 293 452 c 0,25,26
 235 452 235 452 204.5 420 c 128,-1,27
 174 388 174 388 174 323 c 2,28,-1
 174 0 l 1,29,-1
 66 0 l 1,30,-1
 66 530 l 1,0,-1
EndSplineSet
Validated: 1048577
EndChar

StartChar: n.ss01
Encoding: 65692 -1 425
Width: 583
GlyphClass: 2
Flags: W
AnchorPoint: "Anchor-4" 295 562 basechar 0
AnchorPoint: "Anchor-3" 295 0 basechar 0
LayerCount: 2
Fore
SplineSet
66 530 m 1,0,-1
 172 530 l 1,1,-1
 172 466 l 1,2,-1
 176 466 l 1,3,4
 203 504 203 504 240.5 522 c 128,-1,5
 278 540 278 540 330 540 c 0,6,7
 415 540 415 540 469.5 485.5 c 128,-1,8
 524 431 524 431 524 331 c 2,9,-1
 524 0 l 1,10,-1
 416 0 l 1,11,-1
 416 324 l 2,12,13
 416 388 416 388 384 420 c 128,-1,14
 352 452 352 452 295 452 c 0,15,16
 237 452 237 452 205.5 420 c 128,-1,17
 174 388 174 388 174 324 c 2,18,-1
 174 0 l 1,19,-1
 66 0 l 1,20,-1
 66 530 l 1,0,-1
EndSplineSet
Validated: 1048577
EndChar

StartChar: eng.aalt
Encoding: 65696 -1 429
Width: 583
GlyphClass: 2
Flags: W
AnchorPoint: "Anchor-4" 291 530 basechar 0
AnchorPoint: "Anchor-3" 291 0 basechar 0
LayerCount: 2
Fore
SplineSet
296 -89 m 1,0,-1
 416 -89 l 1,1,-1
 416 323 l 2,2,3
 416 387 416 387 384 419.5 c 128,-1,4
 352 452 352 452 295 452 c 0,5,6
 237 452 237 452 205.5 420 c 128,-1,7
 174 388 174 388 174 323 c 2,8,-1
 174 0 l 1,9,-1
 66 0 l 1,10,-1
 66 530 l 1,11,-1
 172 530 l 1,12,-1
 172 467 l 1,13,-1
 177 467 l 1,14,15
 204 504 204 504 241 522 c 128,-1,16
 278 540 278 540 330 540 c 0,17,18
 415 540 415 540 469.5 485.5 c 128,-1,19
 524 431 524 431 524 331 c 2,20,-1
 524 -110 l 2,21,22
 524 -142 524 -142 505 -161 c 128,-1,23
 486 -180 486 -180 453 -180 c 2,24,-1
 296 -180 l 1,25,-1
 296 -89 l 1,0,-1
EndSplineSet
Validated: 1048577
EndChar

StartChar: p.ss01
Encoding: 65698 -1 431
Width: 632
GlyphClass: 2
Flags: W
AnchorPoint: "Anchor-4" 319 530 basechar 0
AnchorPoint: "Anchor-3" 319 0 basechar 0
LayerCount: 2
Fore
SplineSet
66 530 m 1,0,-1
 173 530 l 1,1,-1
 173 460 l 1,2,3
 201 498 201 498 247 519 c 128,-1,4
 293 540 293 540 345 540 c 0,5,6
 410 540 410 540 466 507 c 128,-1,7
 522 474 522 474 556 411.5 c 128,-1,8
 590 349 590 349 590 265 c 128,-1,9
 590 181 590 181 555.5 118.5 c 128,-1,10
 521 56 521 56 465 23 c 128,-1,11
 409 -10 409 -10 345 -10 c 0,12,13
 294 -10 294 -10 248.5 10.5 c 128,-1,14
 203 31 203 31 174 68 c 1,15,-1
 174 -180 l 1,16,-1
 66 -180 l 1,17,-1
 66 530 l 1,0,-1
190 162 m 128,-1,19
 212 120 212 120 247.5 99 c 128,-1,20
 283 78 283 78 324 78 c 128,-1,21
 365 78 365 78 400.5 99 c 128,-1,22
 436 120 436 120 457.5 162 c 128,-1,23
 479 204 479 204 479 265 c 128,-1,24
 479 326 479 326 457.5 368 c 128,-1,25
 436 410 436 410 400.5 431 c 128,-1,26
 365 452 365 452 324 452 c 128,-1,27
 283 452 283 452 247.5 431 c 128,-1,28
 212 410 212 410 190 368 c 128,-1,29
 168 326 168 326 168 265 c 128,-1,18
 168 204 168 204 190 162 c 128,-1,19
EndSplineSet
Validated: 1048577
EndChar

StartChar: thorn.aalt
Encoding: 65699 -1 432
Width: 632
GlyphClass: 2
Flags: W
AnchorPoint: "Anchor-4" 319 530 basechar 0
AnchorPoint: "Anchor-3" 319 0 basechar 0
LayerCount: 2
Fore
SplineSet
66 710 m 1,0,-1
 174 710 l 1,1,-1
 174 462 l 1,2,3
 203 499 203 499 248.5 519.5 c 128,-1,4
 294 540 294 540 345 540 c 0,5,6
 410 540 410 540 466 507 c 128,-1,7
 522 474 522 474 556 411.5 c 128,-1,8
 590 349 590 349 590 265 c 128,-1,9
 590 181 590 181 555.5 118.5 c 128,-1,10
 521 56 521 56 465 23 c 128,-1,11
 409 -10 409 -10 345 -10 c 0,12,13
 294 -10 294 -10 248.5 10.5 c 128,-1,14
 203 31 203 31 174 68 c 1,15,-1
 174 -180 l 1,16,-1
 66 -180 l 1,17,-1
 66 710 l 1,0,-1
190 162.5 m 128,-1,19
 212 120 212 120 247.5 99 c 128,-1,20
 283 78 283 78 324 78 c 128,-1,21
 365 78 365 78 400.5 99 c 128,-1,22
 436 120 436 120 457.5 162.5 c 128,-1,23
 479 205 479 205 479 265 c 128,-1,24
 479 325 479 325 457.5 367 c 128,-1,25
 436 409 436 409 400.5 430.5 c 128,-1,26
 365 452 365 452 324 452 c 128,-1,27
 283 452 283 452 247.5 430.5 c 128,-1,28
 212 409 212 409 190 367 c 128,-1,29
 168 325 168 325 168 265 c 128,-1,18
 168 205 168 205 190 162.5 c 128,-1,19
EndSplineSet
Validated: 1048577
EndChar

StartChar: q.ss01
Encoding: 65700 -1 433
Width: 632
GlyphClass: 2
Flags: W
AnchorPoint: "Anchor-4" 311 530 basechar 0
AnchorPoint: "Anchor-3" 311 0 basechar 0
LayerCount: 2
Fore
SplineSet
458 68 m 1,0,1
 430 31 430 31 384.5 10.5 c 128,-1,2
 339 -10 339 -10 287 -10 c 0,3,4
 222 -10 222 -10 166.5 23 c 128,-1,5
 111 56 111 56 77 118.5 c 128,-1,6
 43 181 43 181 43 265 c 128,-1,7
 43 349 43 349 77 411.5 c 128,-1,8
 111 474 111 474 166.5 507 c 128,-1,9
 222 540 222 540 287 540 c 0,10,11
 339 540 339 540 385.5 518.5 c 128,-1,12
 432 497 432 497 460 459 c 1,13,-1
 460 530 l 1,14,-1
 566 530 l 1,15,-1
 566 -180 l 1,16,-1
 458 -180 l 1,17,-1
 458 68 l 1,0,1
175 162 m 128,-1,19
 197 120 197 120 232.5 99 c 128,-1,20
 268 78 268 78 309 78 c 128,-1,21
 350 78 350 78 385 99 c 128,-1,22
 420 120 420 120 442 162 c 128,-1,23
 464 204 464 204 464 265 c 128,-1,24
 464 326 464 326 442 368 c 128,-1,25
 420 410 420 410 385 431 c 128,-1,26
 350 452 350 452 309 452 c 128,-1,27
 268 452 268 452 232.5 431 c 128,-1,28
 197 410 197 410 175 368 c 128,-1,29
 153 326 153 326 153 265 c 128,-1,18
 153 204 153 204 175 162 c 128,-1,19
EndSplineSet
Validated: 1048577
EndChar

StartChar: r.ss01
Encoding: 65701 -1 434
Width: 361
GlyphClass: 2
Flags: W
AnchorPoint: "Anchor-4" 191 562 basechar 0
AnchorPoint: "Anchor-3" 120 0 basechar 0
LayerCount: 2
Fore
SplineSet
66 530 m 1,0,-1
 172 530 l 1,1,-1
 172 466 l 1,2,-1
 176 466 l 1,3,4
 198 503 198 503 223 516.5 c 128,-1,5
 248 530 248 530 295 530 c 2,6,-1
 327 530 l 1,7,-1
 327 432 l 1,8,-1
 286 432 l 2,9,10
 227 432 227 432 200.5 408 c 128,-1,11
 174 384 174 384 174 320 c 2,12,-1
 174 0 l 1,13,-1
 66 0 l 1,14,-1
 66 530 l 1,0,-1
EndSplineSet
Validated: 1048577
EndChar

StartChar: u.ss01
Encoding: 65705 -1 438
Width: 579
GlyphClass: 2
Flags: W
AnchorPoint: "Anchor-6" 552 530 basechar 0
AnchorPoint: "Anchor-4" 286 562 basechar 0
AnchorPoint: "Anchor-3" 479 0 basechar 0
LayerCount: 2
Fore
SplineSet
152.5 14 m 128,-1,1
 109 38 109 38 83.5 85 c 128,-1,2
 58 132 58 132 58 199 c 2,3,-1
 58 530 l 1,4,-1
 166 530 l 1,5,-1
 166 206 l 2,6,7
 166 141 166 141 197 109.5 c 128,-1,8
 228 78 228 78 286 78 c 128,-1,9
 344 78 344 78 374.5 109.5 c 128,-1,10
 405 141 405 141 405 206 c 2,11,-1
 405 530 l 1,12,-1
 513 530 l 1,13,-1
 513 0 l 1,14,-1
 407 0 l 1,15,-1
 407 64 l 1,16,-1
 403 64 l 1,17,18
 376 26 376 26 339.5 8 c 128,-1,19
 303 -10 303 -10 251 -10 c 0,20,0
 196 -10 196 -10 152.5 14 c 128,-1,1
EndSplineSet
Validated: 1048577
EndChar

StartChar: uogonek.aalt
Encoding: 65713 -1 446
Width: 579
GlyphClass: 2
Flags: W
AnchorPoint: "Anchor-6" 552 530 basechar 0
AnchorPoint: "Anchor-3" 479 0 basechar 0
LayerCount: 2
Fore
SplineSet
152.5 14 m 128,-1,1
 109 38 109 38 83.5 85 c 128,-1,2
 58 132 58 132 58 199 c 2,3,-1
 58 530 l 1,4,-1
 166 530 l 1,5,-1
 166 206 l 2,6,7
 166 141 166 141 197 109.5 c 128,-1,8
 228 78 228 78 286 78 c 128,-1,9
 344 78 344 78 374.5 109.5 c 128,-1,10
 405 141 405 141 405 206 c 2,11,-1
 405 530 l 1,12,-1
 513 530 l 1,13,-1
 513 0 l 1,14,15
 435 -25 435 -25 435 -60 c 0,16,17
 435 -73 435 -73 447.5 -81 c 128,-1,18
 460 -89 460 -89 482 -89 c 2,19,-1
 513 -89 l 1,20,-1
 513 -180 l 1,21,-1
 464 -180 l 2,22,23
 404 -180 404 -180 373 -155.5 c 128,-1,24
 342 -131 342 -131 342 -94 c 0,25,26
 342 -30 342 -30 407 7 c 1,27,-1
 407 64 l 1,28,-1
 403 64 l 1,29,30
 376 26 376 26 339.5 8 c 128,-1,31
 303 -10 303 -10 251 -10 c 0,32,0
 196 -10 196 -10 152.5 14 c 128,-1,1
EndSplineSet
Validated: 1048577
EndChar

StartChar: a.ss01.ss02
Encoding: 65716 -1 449
Width: 594
GlyphClass: 2
Flags: W
AnchorPoint: "Anchor-4" 283 562 basechar 0
AnchorPoint: "Anchor-3" 482 0 basechar 0
LayerCount: 2
Fore
SplineSet
90 33 m 128,-1,1
 40 76 40 76 40 153 c 0,2,3
 40 209 40 209 62 241 c 128,-1,4
 84 273 84 273 126.5 288 c 128,-1,5
 169 303 169 303 240 310 c 2,6,-1
 389 325 l 1,7,-1
 389 361 l 2,8,9
 389 455 389 455 280 455 c 0,10,11
 229 455 229 455 203 434 c 128,-1,12
 177 413 177 413 171 368 c 1,13,-1
 62 368 l 1,14,15
 62 448 62 448 124.5 494 c 128,-1,16
 187 540 187 540 284 540 c 0,17,18
 379 540 379 540 436.5 494.5 c 128,-1,19
 494 449 494 449 494 358 c 2,20,-1
 494 93 l 1,21,-1
 560 93 l 1,22,-1
 560 0 l 1,23,-1
 459 0 l 2,24,25
 433 0 433 0 416 17 c 128,-1,26
 399 34 399 34 399 60 c 2,27,-1
 399 80 l 1,28,-1
 396 80 l 1,29,30
 367 33 367 33 321 11.5 c 128,-1,31
 275 -10 275 -10 221 -10 c 0,32,0
 140 -10 140 -10 90 33 c 128,-1,1
172.5 94 m 128,-1,34
 196 74 196 74 246 74 c 0,35,36
 306 74 306 74 347.5 106 c 128,-1,37
 389 138 389 138 389 190 c 2,38,-1
 389 245 l 1,39,-1
 260 230 l 2,40,41
 198 223 198 223 173.5 207 c 128,-1,42
 149 191 149 191 149 156 c 0,43,33
 149 114 149 114 172.5 94 c 128,-1,34
EndSplineSet
Validated: 1048577
EndChar

StartChar: aogonek.ss01.ss02
Encoding: 65723 -1 456
Width: 594
GlyphClass: 2
Flags: W
AnchorPoint: "Anchor-3" 482 0 basechar 0
LayerCount: 2
Fore
SplineSet
90 33 m 128,-1,1
 40 76 40 76 40 153 c 0,2,3
 40 209 40 209 62 241 c 128,-1,4
 84 273 84 273 126.5 288 c 128,-1,5
 169 303 169 303 240 310 c 2,6,-1
 389 325 l 1,7,-1
 389 361 l 2,8,9
 389 455 389 455 280 455 c 0,10,11
 229 455 229 455 203 434 c 128,-1,12
 177 413 177 413 171 368 c 1,13,-1
 62 368 l 1,14,15
 62 448 62 448 124.5 494 c 128,-1,16
 187 540 187 540 284 540 c 0,17,18
 379 540 379 540 436.5 494.5 c 128,-1,19
 494 449 494 449 494 358 c 2,20,-1
 494 93 l 1,21,-1
 560 93 l 1,22,-1
 560 0 l 1,23,-1
 517 0 l 1,24,25
 439 -25 439 -25 439 -60 c 0,26,27
 439 -73 439 -73 451.5 -81 c 128,-1,28
 464 -89 464 -89 486 -89 c 2,29,-1
 517 -89 l 1,30,-1
 517 -180 l 1,31,-1
 468 -180 l 2,32,33
 408 -180 408 -180 377 -155.5 c 128,-1,34
 346 -131 346 -131 346 -94 c 0,35,36
 346 -26 346 -26 421 12 c 1,37,38
 399 29 399 29 399 60 c 2,39,-1
 399 80 l 1,40,-1
 396 80 l 1,41,42
 367 33 367 33 321 11.5 c 128,-1,43
 275 -10 275 -10 221 -10 c 0,44,0
 140 -10 140 -10 90 33 c 128,-1,1
172.5 94 m 128,-1,46
 196 74 196 74 246 74 c 0,47,48
 306 74 306 74 347.5 106 c 128,-1,49
 389 138 389 138 389 190 c 2,50,-1
 389 245 l 1,51,-1
 260 230 l 2,52,53
 198 223 198 223 173.5 207 c 128,-1,54
 149 191 149 191 149 156 c 0,55,45
 149 114 149 114 172.5 94 c 128,-1,46
EndSplineSet
Validated: 1048577
EndChar

StartChar: a.ss01.ss03
Encoding: 65727 -1 460
Width: 632
GlyphClass: 2
Flags: W
AnchorPoint: "Anchor-4" 309 562 basechar 0
AnchorPoint: "Anchor-3" 532 0 basechar 0
LayerCount: 2
Fore
SplineSet
166.5 23 m 128,-1,1
 111 56 111 56 77 118.5 c 128,-1,2
 43 181 43 181 43 265 c 128,-1,3
 43 349 43 349 77 411.5 c 128,-1,4
 111 474 111 474 166.5 507 c 128,-1,5
 222 540 222 540 287 540 c 0,6,7
 339 540 339 540 385.5 518.5 c 128,-1,8
 432 497 432 497 460 459 c 1,9,-1
 460 530 l 1,10,-1
 566 530 l 1,11,-1
 566 0 l 1,12,-1
 460 0 l 1,13,-1
 460 71 l 1,14,15
 432 33 432 33 385.5 11.5 c 128,-1,16
 339 -10 339 -10 287 -10 c 0,17,0
 222 -10 222 -10 166.5 23 c 128,-1,1
175 162 m 128,-1,19
 197 120 197 120 232.5 99 c 128,-1,20
 268 78 268 78 309 78 c 128,-1,21
 350 78 350 78 385 99 c 128,-1,22
 420 120 420 120 442 162 c 128,-1,23
 464 204 464 204 464 265 c 128,-1,24
 464 326 464 326 442 368 c 128,-1,25
 420 410 420 410 385 431 c 128,-1,26
 350 452 350 452 309 452 c 128,-1,27
 268 452 268 452 232.5 431 c 128,-1,28
 197 410 197 410 175 368 c 128,-1,29
 153 326 153 326 153 265 c 128,-1,18
 153 204 153 204 175 162 c 128,-1,19
EndSplineSet
Validated: 1048577
EndChar

StartChar: aogonek.ss01.ss03
Encoding: 65734 -1 467
Width: 632
GlyphClass: 2
Flags: W
AnchorPoint: "Anchor-3" 532 0 basechar 0
LayerCount: 2
Fore
SplineSet
166.5 23 m 128,-1,1
 111 56 111 56 77 118.5 c 128,-1,2
 43 181 43 181 43 265 c 128,-1,3
 43 349 43 349 77 411.5 c 128,-1,4
 111 474 111 474 166.5 507 c 128,-1,5
 222 540 222 540 287 540 c 0,6,7
 339 540 339 540 385.5 518.5 c 128,-1,8
 432 497 432 497 460 459 c 1,9,-1
 460 530 l 1,10,-1
 566 530 l 1,11,-1
 566 0 l 1,12,13
 488 -25 488 -25 488 -60 c 0,14,15
 488 -73 488 -73 500.5 -81 c 128,-1,16
 513 -89 513 -89 535 -89 c 2,17,-1
 566 -89 l 1,18,-1
 566 -180 l 1,19,-1
 517 -180 l 2,20,21
 457 -180 457 -180 426 -155.5 c 128,-1,22
 395 -131 395 -131 395 -94 c 0,23,24
 395 -30 395 -30 460 7 c 1,25,-1
 460 71 l 1,26,27
 432 33 432 33 385.5 11.5 c 128,-1,28
 339 -10 339 -10 287 -10 c 0,29,0
 222 -10 222 -10 166.5 23 c 128,-1,1
175 162 m 128,-1,31
 197 120 197 120 232.5 99 c 128,-1,32
 268 78 268 78 309 78 c 128,-1,33
 350 78 350 78 385 99 c 128,-1,34
 420 120 420 120 442 162 c 128,-1,35
 464 204 464 204 464 265 c 128,-1,36
 464 326 464 326 442 368 c 128,-1,37
 420 410 420 410 385 431 c 128,-1,38
 350 452 350 452 309 452 c 128,-1,39
 268 452 268 452 232.5 431 c 128,-1,40
 197 410 197 410 175 368 c 128,-1,41
 153 326 153 326 153 265 c 128,-1,30
 153 204 153 204 175 162 c 128,-1,31
EndSplineSet
Validated: 1048577
EndChar

StartChar: f_f.liga
Encoding: 65738 -1 471
Width: 708
GlyphClass: 3
LigCaretCntFixed: 1
Flags: W
LayerCount: 2
Fore
SplineSet
131 691.5 m 128,-1,1
 150 710 150 710 179 710 c 2,2,-1
 355 710 l 1,3,-1
 355 619 l 1,4,-1
 220 619 l 1,5,-1
 220 530 l 1,6,-1
 431 530 l 1,7,-1
 431 643 l 2,8,9
 431 673 431 673 450 691.5 c 128,-1,10
 469 710 469 710 498 710 c 2,11,-1
 674 710 l 1,12,-1
 674 619 l 1,13,-1
 539 619 l 1,14,-1
 539 530 l 1,15,-1
 674 530 l 1,16,-1
 674 437 l 1,17,-1
 539 437 l 1,18,-1
 539 0 l 1,19,-1
 431 0 l 1,20,-1
 431 437 l 1,21,-1
 220 437 l 1,22,-1
 220 0 l 1,23,-1
 112 0 l 1,24,-1
 112 437 l 1,25,-1
 34 437 l 1,26,-1
 34 530 l 1,27,-1
 112 530 l 1,28,-1
 112 643 l 2,29,0
 112 673 112 673 131 691.5 c 128,-1,1
EndSplineSet
Validated: 1
Ligature2: "'liga' Standard Ligatures in Latin lookup 26 subtable" f f
LCarets2: 1 354
EndChar

StartChar: f_f_i.liga
Encoding: 65739 -1 472
Width: 925
GlyphClass: 3
LigCaretCntFixed: 1
Flags: W
LayerCount: 2
Fore
SplineSet
131 691.5 m 128,-1,1
 150 710 150 710 179 710 c 2,2,-1
 355 710 l 1,3,-1
 355 619 l 1,4,-1
 220 619 l 1,5,-1
 220 530 l 1,6,-1
 431 530 l 1,7,-1
 431 643 l 2,8,9
 431 673 431 673 450 691.5 c 128,-1,10
 469 710 469 710 498 710 c 2,11,-1
 674 710 l 1,12,-1
 674 619 l 1,13,-1
 539 619 l 1,14,-1
 539 530 l 1,15,-1
 674 530 l 1,16,-1
 674 437 l 1,17,-1
 539 437 l 1,18,-1
 539 0 l 1,19,-1
 431 0 l 1,20,-1
 431 437 l 1,21,-1
 220 437 l 1,22,-1
 220 0 l 1,23,-1
 112 0 l 1,24,-1
 112 437 l 1,25,-1
 34 437 l 1,26,-1
 34 530 l 1,27,-1
 112 530 l 1,28,-1
 112 643 l 2,29,0
 112 673 112 673 131 691.5 c 128,-1,1
750 530 m 1,30,-1
 858 530 l 1,31,-1
 858 0 l 1,32,-1
 750 0 l 1,33,-1
 750 530 l 1,30,-1
750 710 m 1,34,-1
 858 710 l 1,35,-1
 858 600 l 1,36,-1
 750 600 l 1,37,-1
 750 710 l 1,34,-1
EndSplineSet
Validated: 1
Ligature2: "'liga' Standard Ligatures in Latin lookup 26 subtable" f f i
LCarets2: 2 308 616
EndChar

StartChar: f_f_l.liga
Encoding: 65740 -1 473
Width: 925
GlyphClass: 3
LigCaretCntFixed: 1
Flags: W
LayerCount: 2
Fore
SplineSet
131 691.5 m 128,-1,1
 150 710 150 710 179 710 c 2,2,-1
 355 710 l 1,3,-1
 355 619 l 1,4,-1
 220 619 l 1,5,-1
 220 530 l 1,6,-1
 431 530 l 1,7,-1
 431 643 l 2,8,9
 431 673 431 673 450 691.5 c 128,-1,10
 469 710 469 710 498 710 c 2,11,-1
 674 710 l 1,12,-1
 674 619 l 1,13,-1
 539 619 l 1,14,-1
 539 530 l 1,15,-1
 674 530 l 1,16,-1
 674 437 l 1,17,-1
 539 437 l 1,18,-1
 539 0 l 1,19,-1
 431 0 l 1,20,-1
 431 437 l 1,21,-1
 220 437 l 1,22,-1
 220 0 l 1,23,-1
 112 0 l 1,24,-1
 112 437 l 1,25,-1
 34 437 l 1,26,-1
 34 530 l 1,27,-1
 112 530 l 1,28,-1
 112 643 l 2,29,0
 112 673 112 673 131 691.5 c 128,-1,1
750 710 m 1,30,-1
 858 710 l 1,31,-1
 858 0 l 1,32,-1
 750 0 l 1,33,-1
 750 710 l 1,30,-1
EndSplineSet
Validated: 1
Ligature2: "'liga' Standard Ligatures in Latin lookup 26 subtable" f f l
LCarets2: 2 308 616
EndChar

StartChar: f_i.liga
Encoding: 65741 -1 474
Width: 605
GlyphClass: 3
LigCaretCntFixed: 1
Flags: W
AnchorPoint: "Anchor-8" 142 710 baselig 0
AnchorPoint: "Anchor-7" 142 0 baselig 0
AnchorPoint: "Anchor-8" 451 710 baselig 1
AnchorPoint: "Anchor-7" 451 0 baselig 1
LayerCount: 2
Fore
SplineSet
131 691.5 m 128,-1,1
 150 710 150 710 179 710 c 2,2,-1
 355 710 l 1,3,-1
 355 619 l 1,4,-1
 220 619 l 1,5,-1
 220 530 l 1,6,-1
 355 530 l 1,7,-1
 355 437 l 1,8,-1
 220 437 l 1,9,-1
 220 0 l 1,10,-1
 112 0 l 1,11,-1
 112 437 l 1,12,-1
 34 437 l 1,13,-1
 34 530 l 1,14,-1
 112 530 l 1,15,-1
 112 643 l 2,16,0
 112 673 112 673 131 691.5 c 128,-1,1
430 710 m 1,17,-1
 538 710 l 1,18,-1
 538 600 l 1,19,-1
 430 600 l 1,20,-1
 430 710 l 1,17,-1
431 530 m 1,21,-1
 539 530 l 1,22,-1
 539 0 l 1,23,-1
 431 0 l 1,24,-1
 431 530 l 1,21,-1
EndSplineSet
Validated: 1
Ligature2: "'liga' Standard Ligatures in Latin lookup 26 subtable" f i
LCarets2: 1 297
EndChar

StartChar: f_iacute.dlig
Encoding: 65742 -1 475
Width: 604
GlyphClass: 3
LigCaretCntFixed: 1
Flags: W
AnchorPoint: "Anchor-8" 171 710 baselig 0
AnchorPoint: "Anchor-7" 171 0 baselig 0
AnchorPoint: "Anchor-8" 488 710 baselig 1
AnchorPoint: "Anchor-7" 488 0 baselig 1
LayerCount: 2
Fore
SplineSet
131 691.5 m 128,-1,1
 150 710 150 710 179 710 c 2,2,-1
 355 710 l 1,3,-1
 355 619 l 1,4,-1
 220 619 l 1,5,-1
 220 530 l 1,6,-1
 355 530 l 1,7,-1
 355 437 l 1,8,-1
 220 437 l 1,9,-1
 220 0 l 1,10,-1
 112 0 l 1,11,-1
 112 437 l 1,12,-1
 34 437 l 1,13,-1
 34 530 l 1,14,-1
 112 530 l 1,15,-1
 112 643 l 2,16,0
 112 673 112 673 131 691.5 c 128,-1,1
523 710 m 1,17,-1
 662 710 l 1,18,-1
 511 586 l 1,19,-1
 414 586 l 1,20,-1
 523 710 l 1,17,-1
431 530 m 1,21,-1
 539 530 l 1,22,-1
 539 0 l 1,23,-1
 431 0 l 1,24,-1
 431 530 l 1,21,-1
EndSplineSet
Validated: 1
Ligature2: "'dlig' Discretionary Ligatures in Latin lookup 45 subtable" f iacute
LCarets2: 1 329
EndChar

StartChar: f_l.liga
Encoding: 65743 -1 476
Width: 605
GlyphClass: 3
LigCaretCntFixed: 1
Flags: W
AnchorPoint: "Anchor-8" 142 710 baselig 0
AnchorPoint: "Anchor-7" 142 0 baselig 0
AnchorPoint: "Anchor-8" 446 710 baselig 1
AnchorPoint: "Anchor-7" 446 0 baselig 1
LayerCount: 2
Fore
SplineSet
131 691.5 m 128,-1,1
 150 710 150 710 179 710 c 2,2,-1
 355 710 l 1,3,-1
 355 619 l 1,4,-1
 220 619 l 1,5,-1
 220 530 l 1,6,-1
 355 530 l 1,7,-1
 355 437 l 1,8,-1
 220 437 l 1,9,-1
 220 0 l 1,10,-1
 112 0 l 1,11,-1
 112 437 l 1,12,-1
 34 437 l 1,13,-1
 34 530 l 1,14,-1
 112 530 l 1,15,-1
 112 643 l 2,16,0
 112 673 112 673 131 691.5 c 128,-1,1
431 710 m 1,17,-1
 539 710 l 1,18,-1
 539 0 l 1,19,-1
 431 0 l 1,20,-1
 431 710 l 1,17,-1
EndSplineSet
Validated: 1
Ligature2: "'liga' Standard Ligatures in Latin lookup 26 subtable" f l
LCarets2: 1 294
EndChar

StartChar: f_t.dlig
Encoding: 65744 -1 477
Width: 699
GlyphClass: 3
LigCaretCntFixed: 1
Flags: W
AnchorPoint: "Anchor-8" 175 710 baselig 0
AnchorPoint: "Anchor-7" 175 0 baselig 0
AnchorPoint: "Anchor-8" 524 710 baselig 1
AnchorPoint: "Anchor-7" 524 0 baselig 1
LayerCount: 2
Fore
SplineSet
131 691.5 m 128,-1,1
 150 710 150 710 179 710 c 2,2,-1
 355 710 l 1,3,-1
 355 619 l 1,4,-1
 220 619 l 1,5,-1
 220 530 l 1,6,-1
 431 530 l 1,7,-1
 431 665 l 1,8,-1
 539 665 l 1,9,-1
 539 530 l 1,10,-1
 657 530 l 1,11,-1
 657 437 l 1,12,-1
 539 437 l 1,13,-1
 539 91 l 1,14,-1
 657 91 l 1,15,-1
 657 0 l 1,16,-1
 498 0 l 2,17,18
 469 0 469 0 450 19 c 128,-1,19
 431 38 431 38 431 67 c 2,20,-1
 431 437 l 1,21,-1
 220 437 l 1,22,-1
 220 0 l 1,23,-1
 112 0 l 1,24,-1
 112 437 l 1,25,-1
 34 437 l 1,26,-1
 34 530 l 1,27,-1
 112 530 l 1,28,-1
 112 643 l 2,29,0
 112 673 112 673 131 691.5 c 128,-1,1
EndSplineSet
Validated: 1
Ligature2: "'dlig' Discretionary Ligatures in Latin lookup 45 subtable" f t
LCarets2: 1 349
EndChar

StartChar: uniFB01
Encoding: 64257 64257 478
Width: 605
GlyphClass: 3
LigCaretCntFixed: 1
Flags: W
LayerCount: 2
Fore
SplineSet
131 691.5 m 128,-1,1
 150 710 150 710 179 710 c 2,2,-1
 355 710 l 1,3,-1
 355 619 l 1,4,-1
 220 619 l 1,5,-1
 220 530 l 1,6,-1
 355 530 l 1,7,-1
 355 437 l 1,8,-1
 220 437 l 1,9,-1
 220 0 l 1,10,-1
 112 0 l 1,11,-1
 112 437 l 1,12,-1
 34 437 l 1,13,-1
 34 530 l 1,14,-1
 112 530 l 1,15,-1
 112 643 l 2,16,0
 112 673 112 673 131 691.5 c 128,-1,1
430 710 m 1,17,-1
 538 710 l 1,18,-1
 538 600 l 1,19,-1
 430 600 l 1,20,-1
 430 710 l 1,17,-1
431 530 m 1,21,-1
 539 530 l 1,22,-1
 539 0 l 1,23,-1
 431 0 l 1,24,-1
 431 530 l 1,21,-1
EndSplineSet
Validated: 1
MultipleSubs2: "'ccmp' Glyph Composition/Decomposition in Latin lookup 4 subtable" f i
LCarets2: 1 306
EndChar

StartChar: uniFB02
Encoding: 64258 64258 479
Width: 605
GlyphClass: 3
LigCaretCntFixed: 1
Flags: W
LayerCount: 2
Fore
SplineSet
131 691.5 m 128,-1,1
 150 710 150 710 179 710 c 2,2,-1
 355 710 l 1,3,-1
 355 619 l 1,4,-1
 220 619 l 1,5,-1
 220 530 l 1,6,-1
 355 530 l 1,7,-1
 355 437 l 1,8,-1
 220 437 l 1,9,-1
 220 0 l 1,10,-1
 112 0 l 1,11,-1
 112 437 l 1,12,-1
 34 437 l 1,13,-1
 34 530 l 1,14,-1
 112 530 l 1,15,-1
 112 643 l 2,16,0
 112 673 112 673 131 691.5 c 128,-1,1
431 710 m 1,17,-1
 539 710 l 1,18,-1
 539 0 l 1,19,-1
 431 0 l 1,20,-1
 431 710 l 1,17,-1
EndSplineSet
Validated: 1
MultipleSubs2: "'ccmp' Glyph Composition/Decomposition in Latin lookup 4 subtable" f l
LCarets2: 1 306
EndChar

StartChar: r_f.dlig
Encoding: 65745 -1 480
Width: 661
GlyphClass: 3
LigCaretCntFixed: 1
Flags: W
AnchorPoint: "Anchor-8" 165 530 baselig 0
AnchorPoint: "Anchor-7" 165 0 baselig 0
AnchorPoint: "Anchor-8" 496 530 baselig 1
AnchorPoint: "Anchor-7" 496 0 baselig 1
LayerCount: 2
Fore
SplineSet
84 511.5 m 128,-1,1
 103 530 103 530 132 530 c 2,2,-1
 384 530 l 1,3,-1
 384 643 l 2,4,5
 384 673 384 673 403 691.5 c 128,-1,6
 422 710 422 710 451 710 c 2,7,-1
 627 710 l 1,8,-1
 627 619 l 1,9,-1
 492 619 l 1,10,-1
 492 530 l 1,11,-1
 627 530 l 1,12,-1
 627 437 l 1,13,-1
 492 437 l 1,14,-1
 492 0 l 1,15,-1
 384 0 l 1,16,-1
 384 437 l 1,17,-1
 173 437 l 1,18,-1
 173 0 l 1,19,-1
 65 0 l 1,20,-1
 65 463 l 2,21,0
 65 493 65 493 84 511.5 c 128,-1,1
EndSplineSet
Validated: 1
Ligature2: "'dlig' Discretionary Ligatures in Latin lookup 45 subtable" r f
MultipleSubs2: "'ss05' Style Set 5 in Latin lookup 33 subtable" r.ss01 f
MultipleSubs2: "'ss01' Style Set 1 in Latin lookup 28 subtable" r.ss01 f
LCarets2: 1 330
EndChar

StartChar: r_f_f.dlig
Encoding: 65746 -1 481
Width: 980
GlyphClass: 3
LigCaretCntFixed: 1
Flags: W
AnchorPoint: "Anchor-8" 163 530 baselig 0
AnchorPoint: "Anchor-7" 163 0 baselig 0
AnchorPoint: "Anchor-8" 490 530 baselig 1
AnchorPoint: "Anchor-7" 490 0 baselig 1
AnchorPoint: "Anchor-8" 817 530 baselig 2
AnchorPoint: "Anchor-7" 817 0 baselig 2
LayerCount: 2
Fore
SplineSet
403 691.5 m 128,-1,1
 422 710 422 710 451 710 c 2,2,-1
 627 710 l 1,3,-1
 627 619 l 1,4,-1
 492 619 l 1,5,-1
 492 530 l 1,6,-1
 703 530 l 1,7,-1
 703 643 l 2,8,9
 703 673 703 673 722 691.5 c 128,-1,10
 741 710 741 710 771 710 c 2,11,-1
 946 710 l 1,12,-1
 946 619 l 1,13,-1
 811 619 l 1,14,-1
 811 530 l 1,15,-1
 946 530 l 1,16,-1
 946 437 l 1,17,-1
 811 437 l 1,18,-1
 811 0 l 1,19,-1
 703 0 l 1,20,-1
 703 437 l 1,21,-1
 492 437 l 1,22,-1
 492 0 l 1,23,-1
 384 0 l 1,24,-1
 384 437 l 1,25,-1
 173 437 l 1,26,-1
 173 0 l 1,27,-1
 65 0 l 1,28,-1
 65 463 l 2,29,30
 65 493 65 493 84 511.5 c 128,-1,31
 103 530 103 530 132 530 c 2,32,-1
 384 530 l 1,33,-1
 384 643 l 2,34,0
 384 673 384 673 403 691.5 c 128,-1,1
EndSplineSet
Validated: 1
Ligature2: "'dlig' Discretionary Ligatures in Latin lookup 45 subtable" r f f
MultipleSubs2: "'ss05' Style Set 5 in Latin lookup 33 subtable" r.ss01 f_f.liga
MultipleSubs2: "'ss01' Style Set 1 in Latin lookup 28 subtable" r.ss01 f_f.liga
LCarets2: 2 327 653
EndChar

StartChar: r_dotlessi.dlig
Encoding: 65748 -1 483
Width: 558
GlyphClass: 3
LigCaretCntFixed: 1
Flags: W
AnchorPoint: "Anchor-7" 141 0 baselig 0
AnchorPoint: "Anchor-7" 439 0 baselig 1
LayerCount: 2
Fore
SplineSet
84 511 m 128,-1,1
 103 530 103 530 137 530 c 2,2,-1
 492 530 l 1,3,-1
 492 0 l 1,4,-1
 384 0 l 1,5,-1
 384 437 l 1,6,-1
 173 437 l 1,7,-1
 173 0 l 1,8,-1
 65 0 l 1,9,-1
 65 460 l 2,10,0
 65 492 65 492 84 511 c 128,-1,1
EndSplineSet
Validated: 1
Ligature2: "'dlig' Discretionary Ligatures in Latin lookup 45 subtable" r dotlessi
MultipleSubs2: "'ss05' Style Set 5 in Latin lookup 33 subtable" r.ss01 dotlessi
MultipleSubs2: "'ss01' Style Set 1 in Latin lookup 28 subtable" r.ss01 dotlessi
LCarets2: 1 279
EndChar

StartChar: r_iogonek.dlig
Encoding: 65755 -1 490
Width: 558
GlyphClass: 3
LigCaretCntFixed: 1
Flags: W
AnchorPoint: "Anchor-8" 140 530 baselig 0
AnchorPoint: "Anchor-7" 140 0 baselig 0
AnchorPoint: "Anchor-8" 418 530 baselig 1
AnchorPoint: "Anchor-7" 418 0 baselig 1
LayerCount: 2
Fore
SplineSet
84 511 m 128,-1,1
 103 530 103 530 137 530 c 2,2,-1
 492 530 l 1,3,-1
 492 0 l 1,4,5
 414 -25 414 -25 414 -60 c 0,6,7
 414 -73 414 -73 426.5 -81 c 128,-1,8
 439 -89 439 -89 461 -89 c 2,9,-1
 492 -89 l 1,10,-1
 492 -180 l 1,11,-1
 443 -180 l 2,12,13
 383 -180 383 -180 352 -155.5 c 128,-1,14
 321 -131 321 -131 321 -94 c 0,15,16
 321 -32 321 -32 384 6 c 1,17,-1
 384 437 l 1,18,-1
 173 437 l 1,19,-1
 173 0 l 1,20,-1
 65 0 l 1,21,-1
 65 460 l 2,22,0
 65 492 65 492 84 511 c 128,-1,1
384 710 m 1,23,-1
 492 710 l 1,24,-1
 492 600 l 1,25,-1
 384 600 l 1,26,-1
 384 710 l 1,23,-1
EndSplineSet
Validated: 1
Ligature2: "'dlig' Discretionary Ligatures in Latin lookup 45 subtable" r iogonek
MultipleSubs2: "'ss05' Style Set 5 in Latin lookup 33 subtable" r.ss01 iogonek
MultipleSubs2: "'ss01' Style Set 1 in Latin lookup 28 subtable" r.ss01 iogonek
LCarets2: 1 279
EndChar

StartChar: r_r_i.dlig
Encoding: 65756 -1 491
Width: 877
GlyphClass: 3
LigCaretCntFixed: 1
Flags: W
AnchorPoint: "Anchor-8" 758 710 baselig 0
AnchorPoint: "Anchor-7" 460 0 baselig 0
AnchorPoint: "Anchor-7" 758 0 baselig 1
LayerCount: 2
Fore
SplineSet
84 511.5 m 128,-1,1
 103 530 103 530 132 530 c 2,2,-1
 308 530 l 1,3,-1
 308 437 l 1,4,-1
 173 437 l 1,5,-1
 173 0 l 1,6,-1
 65 0 l 1,7,-1
 65 463 l 2,8,0
 65 493 65 493 84 511.5 c 128,-1,1
384 460 m 2,9,10
 384 492 384 492 403 511 c 128,-1,11
 422 530 422 530 456 530 c 2,12,-1
 811 530 l 1,13,-1
 811 0 l 1,14,-1
 703 0 l 1,15,-1
 703 437 l 1,16,-1
 492 437 l 1,17,-1
 492 0 l 1,18,-1
 384 0 l 1,19,-1
 384 460 l 2,9,10
703 710 m 1,20,-1
 811 710 l 1,21,-1
 811 600 l 1,22,-1
 703 600 l 1,23,-1
 703 710 l 1,20,-1
EndSplineSet
Validated: 1
Ligature2: "'dlig' Discretionary Ligatures in Latin lookup 45 subtable" r r i
MultipleSubs2: "'ss05' Style Set 5 in Latin lookup 33 subtable" r.ss01 r.ss01 i
MultipleSubs2: "'ss01' Style Set 1 in Latin lookup 28 subtable" r.ss01 r.ss01 i
LCarets2: 2 292 585
EndChar

StartChar: r_r_y.dlig
Encoding: 65757 -1 492
Width: 1160
GlyphClass: 3
LigCaretCntFixed: 1
Flags: W
AnchorPoint: "Anchor-8" 567 562 baselig 0
AnchorPoint: "Anchor-7" 439 0 baselig 0
AnchorPoint: "Anchor-8" 871 562 baselig 1
AnchorPoint: "Anchor-7" 883 0 baselig 1
LayerCount: 2
Fore
SplineSet
84 511.5 m 128,-1,1
 103 530 103 530 132 530 c 2,2,-1
 308 530 l 1,3,-1
 308 437 l 1,4,-1
 173 437 l 1,5,-1
 173 0 l 1,6,-1
 65 0 l 1,7,-1
 65 463 l 2,8,0
 65 493 65 493 84 511.5 c 128,-1,1
384 463 m 2,9,10
 384 493 384 493 403 511.5 c 128,-1,11
 422 530 422 530 451 530 c 2,12,-1
 724 530 l 1,13,-1
 824 216 l 1,14,-1
 861 93 l 1,15,-1
 880 93 l 1,16,-1
 917 216 l 1,17,-1
 1017 530 l 1,18,-1
 1129 530 l 1,19,-1
 1129 522 l 1,20,-1
 909 -119 l 2,21,22
 889 -180 889 -180 825 -180 c 2,23,-1
 681 -180 l 1,24,-1
 681 -89 l 1,25,-1
 827 -89 l 1,26,-1
 851 2 l 1,27,-1
 790 2 l 1,28,-1
 641 437 l 1,29,-1
 492 437 l 1,30,-1
 492 0 l 1,31,-1
 384 0 l 1,32,-1
 384 463 l 2,9,10
EndSplineSet
Validated: 1
Ligature2: "'dlig' Discretionary Ligatures in Latin lookup 45 subtable" r r y
MultipleSubs2: "'ss05' Style Set 5 in Latin lookup 33 subtable" r.ss01 r.ss01 y
MultipleSubs2: "'ss01' Style Set 1 in Latin lookup 28 subtable" r.ss01 r.ss01 y
LCarets2: 1 731
EndChar

StartChar: r_t.dlig
Encoding: 65758 -1 493
Width: 651
GlyphClass: 3
LigCaretCntFixed: 1
Flags: W
AnchorPoint: "Anchor-8" 192 562 baselig 0
AnchorPoint: "Anchor-7" 119 0 baselig 0
AnchorPoint: "Anchor-7" 482 0 baselig 1
AnchorPoint: "Anchor-9" 538 710 baselig 1
AnchorPoint: "Anchor-8" 485 530 baselig 1
LayerCount: 2
Fore
SplineSet
84 511.5 m 128,-1,1
 103 530 103 530 132 530 c 2,2,-1
 384 530 l 1,3,-1
 384 665 l 1,4,-1
 492 665 l 1,5,-1
 492 530 l 1,6,-1
 610 530 l 1,7,-1
 610 437 l 1,8,-1
 492 437 l 1,9,-1
 492 91 l 1,10,-1
 610 91 l 1,11,-1
 610 0 l 1,12,-1
 451 0 l 2,13,14
 422 0 422 0 403 19 c 128,-1,15
 384 38 384 38 384 67 c 2,16,-1
 384 437 l 1,17,-1
 173 437 l 1,18,-1
 173 0 l 1,19,-1
 65 0 l 1,20,-1
 65 463 l 2,21,0
 65 493 65 493 84 511.5 c 128,-1,1
EndSplineSet
Validated: 1
Ligature2: "'dlig' Discretionary Ligatures in Latin lookup 45 subtable" r t
MultipleSubs2: "'ss05' Style Set 5 in Latin lookup 33 subtable" r.ss01 t
MultipleSubs2: "'ss01' Style Set 1 in Latin lookup 28 subtable" r.ss01 t
LCarets2: 1 324
EndChar

StartChar: r_u.dlig
Encoding: 65761 -1 496
Width: 896
GlyphClass: 3
LigCaretCntFixed: 1
Flags: W
AnchorPoint: "Anchor-8" 193 562 baselig 0
AnchorPoint: "Anchor-7" 119 0 baselig 0
AnchorPoint: "Anchor-8" 607 562 baselig 1
AnchorPoint: "Anchor-7" 661 0 baselig 1
LayerCount: 2
Fore
SplineSet
84 511.5 m 128,-1,1
 103 530 103 530 132 530 c 2,2,-1
 492 530 l 1,3,-1
 492 218 l 2,4,5
 492 92 492 92 605 92 c 2,6,-1
 723 92 l 1,7,-1
 723 530 l 1,8,-1
 831 530 l 1,9,-1
 831 67 l 2,10,11
 831 38 831 38 812 19 c 128,-1,12
 793 0 793 0 763 0 c 2,13,-1
 579 0 l 2,14,15
 524 0 524 0 479.5 24 c 128,-1,16
 435 48 435 48 409.5 95.5 c 128,-1,17
 384 143 384 143 384 209 c 2,18,-1
 384 437 l 1,19,-1
 173 437 l 1,20,-1
 173 0 l 1,21,-1
 65 0 l 1,22,-1
 65 463 l 2,23,0
 65 493 65 493 84 511.5 c 128,-1,1
EndSplineSet
Validated: 1
Ligature2: "'dlig' Discretionary Ligatures in Latin lookup 45 subtable" r u
MultipleSubs2: "'ss05' Style Set 5 in Latin lookup 33 subtable" r.ss01 u.ss01
MultipleSubs2: "'ss01' Style Set 1 in Latin lookup 28 subtable" r.ss01 u.ss01
LCarets2: 1 351
EndChar

StartChar: r_uogonek.dlig
Encoding: 65768 -1 503
Width: 896
GlyphClass: 3
LigCaretCntFixed: 1
Flags: W
AnchorPoint: "Anchor-8" 193 562 baselig 0
AnchorPoint: "Anchor-7" 119 0 baselig 0
AnchorPoint: "Anchor-8" 607 562 baselig 1
AnchorPoint: "Anchor-7" 661 0 baselig 1
LayerCount: 2
Fore
SplineSet
84 511.5 m 128,-1,1
 103 530 103 530 132 530 c 2,2,-1
 492 530 l 1,3,-1
 492 218 l 2,4,5
 492 92 492 92 605 92 c 2,6,-1
 723 92 l 1,7,-1
 723 530 l 1,8,-1
 831 530 l 1,9,-1
 831 67 l 2,10,11
 831 38 831 38 812 19 c 128,-1,12
 793 0 793 0 763 0 c 2,13,-1
 696 0 l 1,14,15
 618 -25 618 -25 618 -60 c 0,16,17
 618 -73 618 -73 630.5 -81 c 128,-1,18
 643 -89 643 -89 665 -89 c 2,19,-1
 696 -89 l 1,20,-1
 696 -180 l 1,21,-1
 647 -180 l 2,22,23
 587 -180 587 -180 556 -155.5 c 128,-1,24
 525 -131 525 -131 525 -94 c 0,25,26
 525 -36 525 -36 579 0 c 1,27,28
 524 0 524 0 479.5 24 c 128,-1,29
 435 48 435 48 409.5 95.5 c 128,-1,30
 384 143 384 143 384 209 c 2,31,-1
 384 437 l 1,32,-1
 173 437 l 1,33,-1
 173 0 l 1,34,-1
 65 0 l 1,35,-1
 65 463 l 2,36,0
 65 493 65 493 84 511.5 c 128,-1,1
EndSplineSet
Validated: 1
Ligature2: "'dlig' Discretionary Ligatures in Latin lookup 45 subtable" r uogonek
MultipleSubs2: "'ss05' Style Set 5 in Latin lookup 33 subtable" r.ss01 uogonek
MultipleSubs2: "'ss01' Style Set 1 in Latin lookup 28 subtable" r.ss01 uogonek
LCarets2: 1 351
EndChar

StartChar: r_v.dlig
Encoding: 65770 -1 505
Width: 840
GlyphClass: 3
LigCaretCntFixed: 1
Flags: W
AnchorPoint: "Anchor-8" 193 562 baselig 0
AnchorPoint: "Anchor-7" 119 0 baselig 0
AnchorPoint: "Anchor-7" 620 0 baselig 1
LayerCount: 2
Fore
SplineSet
84 511.5 m 128,-1,1
 103 530 103 530 132 530 c 2,2,-1
 405 530 l 1,3,-1
 504 216 l 1,4,-1
 542 93 l 1,5,-1
 561 93 l 1,6,-1
 599 216 l 1,7,-1
 698 530 l 1,8,-1
 809 530 l 1,9,-1
 809 521 l 1,10,-1
 631 0 l 1,11,-1
 472 0 l 1,12,-1
 322 437 l 1,13,-1
 173 437 l 1,14,-1
 173 0 l 1,15,-1
 65 0 l 1,16,-1
 65 463 l 2,17,0
 65 493 65 493 84 511.5 c 128,-1,1
EndSplineSet
Validated: 1
Ligature2: "'dlig' Discretionary Ligatures in Latin lookup 45 subtable" r v
MultipleSubs2: "'ss05' Style Set 5 in Latin lookup 33 subtable" r.ss01 v
MultipleSubs2: "'ss01' Style Set 1 in Latin lookup 28 subtable" r.ss01 v
LCarets2: 1 351
EndChar

StartChar: r_w.dlig
Encoding: 65771 -1 506
Width: 1131
GlyphClass: 3
LigCaretCntFixed: 1
Flags: W
LayerCount: 2
Fore
SplineSet
84 511.5 m 128,-1,1
 103 530 103 530 132 530 c 2,2,-1
 409 530 l 1,3,-1
 482 216 l 1,4,-1
 509 93 l 1,5,-1
 523 93 l 1,6,-1
 548 216 l 1,7,-1
 620 530 l 1,8,-1
 778 530 l 1,9,-1
 850 216 l 1,10,-1
 875 93 l 1,11,-1
 889 93 l 1,12,-1
 916 216 l 1,13,-1
 989 530 l 1,14,-1
 1098 530 l 1,15,-1
 1098 522 l 1,16,-1
 961 0 l 1,17,-1
 805 0 l 1,18,-1
 732 314 l 1,19,-1
 707 437 l 1,20,-1
 691 437 l 1,21,-1
 667 314 l 1,22,-1
 593 0 l 1,23,-1
 438 0 l 1,24,-1
 322 437 l 1,25,-1
 173 437 l 1,26,-1
 173 0 l 1,27,-1
 65 0 l 1,28,-1
 65 463 l 2,29,0
 65 493 65 493 84 511.5 c 128,-1,1
EndSplineSet
Validated: 1
Ligature2: "'dlig' Discretionary Ligatures in Latin lookup 45 subtable" r w
MultipleSubs2: "'ss05' Style Set 5 in Latin lookup 33 subtable" r.ss01 w
MultipleSubs2: "'ss01' Style Set 1 in Latin lookup 28 subtable" r.ss01 w
LCarets2: 1 351
EndChar

